G04 #@! TF.GenerationSoftware,KiCad,Pcbnew,(5.1.4)-1*
G04 #@! TF.CreationDate,2020-04-18T17:13:35+10:00*
G04 #@! TF.ProjectId,c64-nes-adapter,6336342d-6e65-4732-9d61-646170746572,rev?*
G04 #@! TF.SameCoordinates,Original*
G04 #@! TF.FileFunction,Soldermask,Top*
G04 #@! TF.FilePolarity,Negative*
%FSLAX46Y46*%
G04 Gerber Fmt 4.6, Leading zero omitted, Abs format (unit mm)*
G04 Created by KiCad (PCBNEW (5.1.4)-1) date 2020-04-18 17:13:35*
%MOMM*%
%LPD*%
G04 APERTURE LIST*
%ADD10C,0.100000*%
G04 APERTURE END LIST*
D10*
G36*
X175465000Y-112416000D02*
G01*
X169213000Y-112416000D01*
X169213000Y-110714000D01*
X175465000Y-110714000D01*
X175465000Y-112416000D01*
X175465000Y-112416000D01*
G37*
G36*
X177440000Y-110441000D02*
G01*
X175738000Y-110441000D01*
X175738000Y-104189000D01*
X177440000Y-104189000D01*
X177440000Y-110441000D01*
X177440000Y-110441000D01*
G37*
G36*
X168940000Y-110441000D02*
G01*
X167238000Y-110441000D01*
X167238000Y-104189000D01*
X168940000Y-104189000D01*
X168940000Y-110441000D01*
X168940000Y-110441000D01*
G37*
G36*
X166573468Y-107845565D02*
G01*
X166612138Y-107857296D01*
X166647777Y-107876346D01*
X166679017Y-107901983D01*
X166704654Y-107933223D01*
X166723704Y-107968862D01*
X166735435Y-108007532D01*
X166740000Y-108053888D01*
X166740000Y-108705112D01*
X166735435Y-108751468D01*
X166723704Y-108790138D01*
X166704654Y-108825777D01*
X166679017Y-108857017D01*
X166647777Y-108882654D01*
X166612138Y-108901704D01*
X166573468Y-108913435D01*
X166527112Y-108918000D01*
X165450888Y-108918000D01*
X165404532Y-108913435D01*
X165365862Y-108901704D01*
X165330223Y-108882654D01*
X165298983Y-108857017D01*
X165273346Y-108825777D01*
X165254296Y-108790138D01*
X165242565Y-108751468D01*
X165238000Y-108705112D01*
X165238000Y-108053888D01*
X165242565Y-108007532D01*
X165254296Y-107968862D01*
X165273346Y-107933223D01*
X165298983Y-107901983D01*
X165330223Y-107876346D01*
X165365862Y-107857296D01*
X165404532Y-107845565D01*
X165450888Y-107841000D01*
X166527112Y-107841000D01*
X166573468Y-107845565D01*
X166573468Y-107845565D01*
G37*
G36*
X192735468Y-107083565D02*
G01*
X192774138Y-107095296D01*
X192809777Y-107114346D01*
X192841017Y-107139983D01*
X192866654Y-107171223D01*
X192885704Y-107206862D01*
X192897435Y-107245532D01*
X192902000Y-107291888D01*
X192902000Y-107943112D01*
X192897435Y-107989468D01*
X192885704Y-108028138D01*
X192866654Y-108063777D01*
X192841017Y-108095017D01*
X192809777Y-108120654D01*
X192774138Y-108139704D01*
X192735468Y-108151435D01*
X192689112Y-108156000D01*
X191612888Y-108156000D01*
X191566532Y-108151435D01*
X191527862Y-108139704D01*
X191492223Y-108120654D01*
X191460983Y-108095017D01*
X191435346Y-108063777D01*
X191416296Y-108028138D01*
X191404565Y-107989468D01*
X191400000Y-107943112D01*
X191400000Y-107291888D01*
X191404565Y-107245532D01*
X191416296Y-107206862D01*
X191435346Y-107171223D01*
X191460983Y-107139983D01*
X191492223Y-107114346D01*
X191527862Y-107095296D01*
X191566532Y-107083565D01*
X191612888Y-107079000D01*
X192689112Y-107079000D01*
X192735468Y-107083565D01*
X192735468Y-107083565D01*
G37*
G36*
X200926000Y-108089000D02*
G01*
X199124000Y-108089000D01*
X199124000Y-106287000D01*
X200926000Y-106287000D01*
X200926000Y-108089000D01*
X200926000Y-108089000D01*
G37*
G36*
X194446000Y-108081000D02*
G01*
X193444000Y-108081000D01*
X193444000Y-107179000D01*
X194446000Y-107179000D01*
X194446000Y-108081000D01*
X194446000Y-108081000D01*
G37*
G36*
X179180142Y-106286242D02*
G01*
X179328101Y-106347529D01*
X179461255Y-106436499D01*
X179574501Y-106549745D01*
X179663471Y-106682899D01*
X179724758Y-106830858D01*
X179756000Y-106987925D01*
X179756000Y-107148075D01*
X179724758Y-107305142D01*
X179663471Y-107453101D01*
X179574501Y-107586255D01*
X179461255Y-107699501D01*
X179328101Y-107788471D01*
X179180142Y-107849758D01*
X179023075Y-107881000D01*
X178862925Y-107881000D01*
X178705858Y-107849758D01*
X178557899Y-107788471D01*
X178424745Y-107699501D01*
X178311499Y-107586255D01*
X178222529Y-107453101D01*
X178161242Y-107305142D01*
X178130000Y-107148075D01*
X178130000Y-106987925D01*
X178161242Y-106830858D01*
X178222529Y-106682899D01*
X178311499Y-106549745D01*
X178424745Y-106436499D01*
X178557899Y-106347529D01*
X178705858Y-106286242D01*
X178862925Y-106255000D01*
X179023075Y-106255000D01*
X179180142Y-106286242D01*
X179180142Y-106286242D01*
G37*
G36*
X196446000Y-107131000D02*
G01*
X195444000Y-107131000D01*
X195444000Y-106229000D01*
X196446000Y-106229000D01*
X196446000Y-107131000D01*
X196446000Y-107131000D01*
G37*
G36*
X166573468Y-105970565D02*
G01*
X166612138Y-105982296D01*
X166647777Y-106001346D01*
X166679017Y-106026983D01*
X166704654Y-106058223D01*
X166723704Y-106093862D01*
X166735435Y-106132532D01*
X166740000Y-106178888D01*
X166740000Y-106830112D01*
X166735435Y-106876468D01*
X166723704Y-106915138D01*
X166704654Y-106950777D01*
X166679017Y-106982017D01*
X166647777Y-107007654D01*
X166612138Y-107026704D01*
X166573468Y-107038435D01*
X166527112Y-107043000D01*
X165450888Y-107043000D01*
X165404532Y-107038435D01*
X165365862Y-107026704D01*
X165330223Y-107007654D01*
X165298983Y-106982017D01*
X165273346Y-106950777D01*
X165254296Y-106915138D01*
X165242565Y-106876468D01*
X165238000Y-106830112D01*
X165238000Y-106178888D01*
X165242565Y-106132532D01*
X165254296Y-106093862D01*
X165273346Y-106058223D01*
X165298983Y-106026983D01*
X165330223Y-106001346D01*
X165365862Y-105982296D01*
X165404532Y-105970565D01*
X165450888Y-105966000D01*
X166527112Y-105966000D01*
X166573468Y-105970565D01*
X166573468Y-105970565D01*
G37*
G36*
X186800443Y-104515519D02*
G01*
X186866627Y-104522037D01*
X187036466Y-104573557D01*
X187192991Y-104657222D01*
X187228729Y-104686552D01*
X187330186Y-104769814D01*
X187413448Y-104871271D01*
X187442778Y-104907009D01*
X187526443Y-105063534D01*
X187577963Y-105233373D01*
X187595359Y-105410000D01*
X187577963Y-105586627D01*
X187526443Y-105756466D01*
X187442778Y-105912991D01*
X187413448Y-105948729D01*
X187330186Y-106050186D01*
X187251467Y-106114788D01*
X187192991Y-106162778D01*
X187158900Y-106181000D01*
X187057407Y-106235250D01*
X187036466Y-106246443D01*
X186866627Y-106297963D01*
X186800442Y-106304482D01*
X186734260Y-106311000D01*
X186645740Y-106311000D01*
X186579558Y-106304482D01*
X186513373Y-106297963D01*
X186343534Y-106246443D01*
X186322594Y-106235250D01*
X186221100Y-106181000D01*
X186187009Y-106162778D01*
X186128533Y-106114788D01*
X186049814Y-106050186D01*
X185966552Y-105948729D01*
X185937222Y-105912991D01*
X185853557Y-105756466D01*
X185802037Y-105586627D01*
X185784641Y-105410000D01*
X185802037Y-105233373D01*
X185853557Y-105063534D01*
X185937222Y-104907009D01*
X185966552Y-104871271D01*
X186049814Y-104769814D01*
X186151271Y-104686552D01*
X186187009Y-104657222D01*
X186343534Y-104573557D01*
X186513373Y-104522037D01*
X186579557Y-104515519D01*
X186645740Y-104509000D01*
X186734260Y-104509000D01*
X186800443Y-104515519D01*
X186800443Y-104515519D01*
G37*
G36*
X184260443Y-104515519D02*
G01*
X184326627Y-104522037D01*
X184496466Y-104573557D01*
X184652991Y-104657222D01*
X184688729Y-104686552D01*
X184790186Y-104769814D01*
X184873448Y-104871271D01*
X184902778Y-104907009D01*
X184986443Y-105063534D01*
X185037963Y-105233373D01*
X185055359Y-105410000D01*
X185037963Y-105586627D01*
X184986443Y-105756466D01*
X184902778Y-105912991D01*
X184873448Y-105948729D01*
X184790186Y-106050186D01*
X184711467Y-106114788D01*
X184652991Y-106162778D01*
X184618900Y-106181000D01*
X184517407Y-106235250D01*
X184496466Y-106246443D01*
X184326627Y-106297963D01*
X184260442Y-106304482D01*
X184194260Y-106311000D01*
X184105740Y-106311000D01*
X184039558Y-106304482D01*
X183973373Y-106297963D01*
X183803534Y-106246443D01*
X183782594Y-106235250D01*
X183681100Y-106181000D01*
X183647009Y-106162778D01*
X183588533Y-106114788D01*
X183509814Y-106050186D01*
X183426552Y-105948729D01*
X183397222Y-105912991D01*
X183313557Y-105756466D01*
X183262037Y-105586627D01*
X183244641Y-105410000D01*
X183262037Y-105233373D01*
X183313557Y-105063534D01*
X183397222Y-104907009D01*
X183426552Y-104871271D01*
X183509814Y-104769814D01*
X183611271Y-104686552D01*
X183647009Y-104657222D01*
X183803534Y-104573557D01*
X183973373Y-104522037D01*
X184039557Y-104515519D01*
X184105740Y-104509000D01*
X184194260Y-104509000D01*
X184260443Y-104515519D01*
X184260443Y-104515519D01*
G37*
G36*
X192735468Y-105208565D02*
G01*
X192774138Y-105220296D01*
X192809777Y-105239346D01*
X192841017Y-105264983D01*
X192866654Y-105296223D01*
X192885704Y-105331862D01*
X192897435Y-105370532D01*
X192902000Y-105416888D01*
X192902000Y-106068112D01*
X192897435Y-106114468D01*
X192885704Y-106153138D01*
X192866654Y-106188777D01*
X192841017Y-106220017D01*
X192809777Y-106245654D01*
X192774138Y-106264704D01*
X192735468Y-106276435D01*
X192689112Y-106281000D01*
X191612888Y-106281000D01*
X191566532Y-106276435D01*
X191527862Y-106264704D01*
X191492223Y-106245654D01*
X191460983Y-106220017D01*
X191435346Y-106188777D01*
X191416296Y-106153138D01*
X191404565Y-106114468D01*
X191400000Y-106068112D01*
X191400000Y-105416888D01*
X191404565Y-105370532D01*
X191416296Y-105331862D01*
X191435346Y-105296223D01*
X191460983Y-105264983D01*
X191492223Y-105239346D01*
X191527862Y-105220296D01*
X191566532Y-105208565D01*
X191612888Y-105204000D01*
X192689112Y-105204000D01*
X192735468Y-105208565D01*
X192735468Y-105208565D01*
G37*
G36*
X194446000Y-106181000D02*
G01*
X193444000Y-106181000D01*
X193444000Y-105279000D01*
X194446000Y-105279000D01*
X194446000Y-106181000D01*
X194446000Y-106181000D01*
G37*
G36*
X200135442Y-103753518D02*
G01*
X200201627Y-103760037D01*
X200371466Y-103811557D01*
X200527991Y-103895222D01*
X200553309Y-103916000D01*
X200665186Y-104007814D01*
X200748448Y-104109271D01*
X200777778Y-104145009D01*
X200861443Y-104301534D01*
X200912963Y-104471373D01*
X200930359Y-104648000D01*
X200912963Y-104824627D01*
X200861443Y-104994466D01*
X200777778Y-105150991D01*
X200748448Y-105186729D01*
X200665186Y-105288186D01*
X200565236Y-105370212D01*
X200527991Y-105400778D01*
X200490679Y-105420722D01*
X200392407Y-105473250D01*
X200371466Y-105484443D01*
X200201627Y-105535963D01*
X200135442Y-105542482D01*
X200069260Y-105549000D01*
X199980740Y-105549000D01*
X199914558Y-105542482D01*
X199848373Y-105535963D01*
X199678534Y-105484443D01*
X199657594Y-105473250D01*
X199559321Y-105420722D01*
X199522009Y-105400778D01*
X199484764Y-105370212D01*
X199384814Y-105288186D01*
X199301552Y-105186729D01*
X199272222Y-105150991D01*
X199188557Y-104994466D01*
X199137037Y-104824627D01*
X199119641Y-104648000D01*
X199137037Y-104471373D01*
X199188557Y-104301534D01*
X199272222Y-104145009D01*
X199301552Y-104109271D01*
X199384814Y-104007814D01*
X199496691Y-103916000D01*
X199522009Y-103895222D01*
X199678534Y-103811557D01*
X199848373Y-103760037D01*
X199914558Y-103753518D01*
X199980740Y-103747000D01*
X200069260Y-103747000D01*
X200135442Y-103753518D01*
X200135442Y-103753518D01*
G37*
G36*
X192735468Y-103576065D02*
G01*
X192774138Y-103587796D01*
X192809777Y-103606846D01*
X192841017Y-103632483D01*
X192866654Y-103663723D01*
X192885704Y-103699362D01*
X192897435Y-103738032D01*
X192902000Y-103784388D01*
X192902000Y-104435612D01*
X192897435Y-104481968D01*
X192885704Y-104520638D01*
X192866654Y-104556277D01*
X192841017Y-104587517D01*
X192809777Y-104613154D01*
X192774138Y-104632204D01*
X192735468Y-104643935D01*
X192689112Y-104648500D01*
X191612888Y-104648500D01*
X191566532Y-104643935D01*
X191527862Y-104632204D01*
X191492223Y-104613154D01*
X191460983Y-104587517D01*
X191435346Y-104556277D01*
X191416296Y-104520638D01*
X191404565Y-104481968D01*
X191400000Y-104435612D01*
X191400000Y-103784388D01*
X191404565Y-103738032D01*
X191416296Y-103699362D01*
X191435346Y-103663723D01*
X191460983Y-103632483D01*
X191492223Y-103606846D01*
X191527862Y-103587796D01*
X191566532Y-103576065D01*
X191612888Y-103571500D01*
X192689112Y-103571500D01*
X192735468Y-103576065D01*
X192735468Y-103576065D01*
G37*
G36*
X194446000Y-104525000D02*
G01*
X193444000Y-104525000D01*
X193444000Y-103623000D01*
X194446000Y-103623000D01*
X194446000Y-104525000D01*
X194446000Y-104525000D01*
G37*
G36*
X175465000Y-103916000D02*
G01*
X169213000Y-103916000D01*
X169213000Y-102214000D01*
X175465000Y-102214000D01*
X175465000Y-103916000D01*
X175465000Y-103916000D01*
G37*
G36*
X186800442Y-101975518D02*
G01*
X186866627Y-101982037D01*
X187036466Y-102033557D01*
X187192991Y-102117222D01*
X187228729Y-102146552D01*
X187330186Y-102229814D01*
X187413448Y-102331271D01*
X187442778Y-102367009D01*
X187526443Y-102523534D01*
X187577963Y-102693373D01*
X187595359Y-102870000D01*
X187577963Y-103046627D01*
X187526443Y-103216466D01*
X187442778Y-103372991D01*
X187413448Y-103408729D01*
X187330186Y-103510186D01*
X187230500Y-103591995D01*
X187192991Y-103622778D01*
X187036466Y-103706443D01*
X186866627Y-103757963D01*
X186800443Y-103764481D01*
X186734260Y-103771000D01*
X186645740Y-103771000D01*
X186579557Y-103764481D01*
X186513373Y-103757963D01*
X186343534Y-103706443D01*
X186187009Y-103622778D01*
X186149500Y-103591995D01*
X186049814Y-103510186D01*
X185966552Y-103408729D01*
X185937222Y-103372991D01*
X185853557Y-103216466D01*
X185802037Y-103046627D01*
X185784641Y-102870000D01*
X185802037Y-102693373D01*
X185853557Y-102523534D01*
X185937222Y-102367009D01*
X185966552Y-102331271D01*
X186049814Y-102229814D01*
X186151271Y-102146552D01*
X186187009Y-102117222D01*
X186343534Y-102033557D01*
X186513373Y-101982037D01*
X186579558Y-101975518D01*
X186645740Y-101969000D01*
X186734260Y-101969000D01*
X186800442Y-101975518D01*
X186800442Y-101975518D01*
G37*
G36*
X184260442Y-101975518D02*
G01*
X184326627Y-101982037D01*
X184496466Y-102033557D01*
X184652991Y-102117222D01*
X184688729Y-102146552D01*
X184790186Y-102229814D01*
X184873448Y-102331271D01*
X184902778Y-102367009D01*
X184986443Y-102523534D01*
X185037963Y-102693373D01*
X185055359Y-102870000D01*
X185037963Y-103046627D01*
X184986443Y-103216466D01*
X184902778Y-103372991D01*
X184873448Y-103408729D01*
X184790186Y-103510186D01*
X184690500Y-103591995D01*
X184652991Y-103622778D01*
X184496466Y-103706443D01*
X184326627Y-103757963D01*
X184260443Y-103764481D01*
X184194260Y-103771000D01*
X184105740Y-103771000D01*
X184039557Y-103764481D01*
X183973373Y-103757963D01*
X183803534Y-103706443D01*
X183647009Y-103622778D01*
X183609500Y-103591995D01*
X183509814Y-103510186D01*
X183426552Y-103408729D01*
X183397222Y-103372991D01*
X183313557Y-103216466D01*
X183262037Y-103046627D01*
X183244641Y-102870000D01*
X183262037Y-102693373D01*
X183313557Y-102523534D01*
X183397222Y-102367009D01*
X183426552Y-102331271D01*
X183509814Y-102229814D01*
X183611271Y-102146552D01*
X183647009Y-102117222D01*
X183803534Y-102033557D01*
X183973373Y-101982037D01*
X184039558Y-101975518D01*
X184105740Y-101969000D01*
X184194260Y-101969000D01*
X184260442Y-101975518D01*
X184260442Y-101975518D01*
G37*
G36*
X196446000Y-103575000D02*
G01*
X195444000Y-103575000D01*
X195444000Y-102673000D01*
X196446000Y-102673000D01*
X196446000Y-103575000D01*
X196446000Y-103575000D01*
G37*
G36*
X200135442Y-101213518D02*
G01*
X200201627Y-101220037D01*
X200371466Y-101271557D01*
X200527991Y-101355222D01*
X200563729Y-101384552D01*
X200665186Y-101467814D01*
X200748448Y-101569271D01*
X200777778Y-101605009D01*
X200861443Y-101761534D01*
X200912963Y-101931373D01*
X200930359Y-102108000D01*
X200912963Y-102284627D01*
X200861443Y-102454466D01*
X200777778Y-102610991D01*
X200766281Y-102625000D01*
X200665186Y-102748186D01*
X200563729Y-102831448D01*
X200527991Y-102860778D01*
X200371466Y-102944443D01*
X200201627Y-102995963D01*
X200135443Y-103002481D01*
X200069260Y-103009000D01*
X199980740Y-103009000D01*
X199914558Y-103002482D01*
X199848373Y-102995963D01*
X199678534Y-102944443D01*
X199522009Y-102860778D01*
X199486271Y-102831448D01*
X199384814Y-102748186D01*
X199283719Y-102625000D01*
X199272222Y-102610991D01*
X199188557Y-102454466D01*
X199137037Y-102284627D01*
X199119641Y-102108000D01*
X199137037Y-101931373D01*
X199188557Y-101761534D01*
X199272222Y-101605009D01*
X199301552Y-101569271D01*
X199384814Y-101467814D01*
X199486271Y-101384552D01*
X199522009Y-101355222D01*
X199678534Y-101271557D01*
X199848373Y-101220037D01*
X199914557Y-101213519D01*
X199980740Y-101207000D01*
X200069260Y-101207000D01*
X200135442Y-101213518D01*
X200135442Y-101213518D01*
G37*
G36*
X192735468Y-101701065D02*
G01*
X192774138Y-101712796D01*
X192809777Y-101731846D01*
X192841017Y-101757483D01*
X192866654Y-101788723D01*
X192885704Y-101824362D01*
X192897435Y-101863032D01*
X192902000Y-101909388D01*
X192902000Y-102560612D01*
X192897435Y-102606968D01*
X192885704Y-102645638D01*
X192866654Y-102681277D01*
X192841017Y-102712517D01*
X192809777Y-102738154D01*
X192774138Y-102757204D01*
X192735468Y-102768935D01*
X192689112Y-102773500D01*
X191612888Y-102773500D01*
X191566532Y-102768935D01*
X191527862Y-102757204D01*
X191492223Y-102738154D01*
X191460983Y-102712517D01*
X191435346Y-102681277D01*
X191416296Y-102645638D01*
X191404565Y-102606968D01*
X191400000Y-102560612D01*
X191400000Y-101909388D01*
X191404565Y-101863032D01*
X191416296Y-101824362D01*
X191435346Y-101788723D01*
X191460983Y-101757483D01*
X191492223Y-101731846D01*
X191527862Y-101712796D01*
X191566532Y-101701065D01*
X191612888Y-101696500D01*
X192689112Y-101696500D01*
X192735468Y-101701065D01*
X192735468Y-101701065D01*
G37*
G36*
X194446000Y-102625000D02*
G01*
X193444000Y-102625000D01*
X193444000Y-101723000D01*
X194446000Y-101723000D01*
X194446000Y-102625000D01*
X194446000Y-102625000D01*
G37*
G36*
X177241468Y-100685065D02*
G01*
X177280138Y-100696796D01*
X177315777Y-100715846D01*
X177347017Y-100741483D01*
X177372654Y-100772723D01*
X177391704Y-100808362D01*
X177403435Y-100847032D01*
X177408000Y-100893388D01*
X177408000Y-101544612D01*
X177403435Y-101590968D01*
X177391704Y-101629638D01*
X177372654Y-101665277D01*
X177347017Y-101696517D01*
X177315777Y-101722154D01*
X177280138Y-101741204D01*
X177241468Y-101752935D01*
X177195112Y-101757500D01*
X176118888Y-101757500D01*
X176072532Y-101752935D01*
X176033862Y-101741204D01*
X175998223Y-101722154D01*
X175966983Y-101696517D01*
X175941346Y-101665277D01*
X175922296Y-101629638D01*
X175910565Y-101590968D01*
X175906000Y-101544612D01*
X175906000Y-100893388D01*
X175910565Y-100847032D01*
X175922296Y-100808362D01*
X175941346Y-100772723D01*
X175966983Y-100741483D01*
X175998223Y-100715846D01*
X176033862Y-100696796D01*
X176072532Y-100685065D01*
X176118888Y-100680500D01*
X177195112Y-100680500D01*
X177241468Y-100685065D01*
X177241468Y-100685065D01*
G37*
G36*
X185051000Y-101231000D02*
G01*
X183249000Y-101231000D01*
X183249000Y-99429000D01*
X185051000Y-99429000D01*
X185051000Y-101231000D01*
X185051000Y-101231000D01*
G37*
G36*
X186800443Y-99435519D02*
G01*
X186866627Y-99442037D01*
X187036466Y-99493557D01*
X187192991Y-99577222D01*
X187228729Y-99606552D01*
X187330186Y-99689814D01*
X187412633Y-99790277D01*
X187442778Y-99827009D01*
X187526443Y-99983534D01*
X187577963Y-100153373D01*
X187595359Y-100330000D01*
X187577963Y-100506627D01*
X187526443Y-100676466D01*
X187442778Y-100832991D01*
X187413448Y-100868729D01*
X187330186Y-100970186D01*
X187228729Y-101053448D01*
X187192991Y-101082778D01*
X187036466Y-101166443D01*
X186866627Y-101217963D01*
X186800443Y-101224481D01*
X186734260Y-101231000D01*
X186645740Y-101231000D01*
X186579558Y-101224482D01*
X186513373Y-101217963D01*
X186343534Y-101166443D01*
X186187009Y-101082778D01*
X186151271Y-101053448D01*
X186049814Y-100970186D01*
X185966552Y-100868729D01*
X185937222Y-100832991D01*
X185853557Y-100676466D01*
X185802037Y-100506627D01*
X185784641Y-100330000D01*
X185802037Y-100153373D01*
X185853557Y-99983534D01*
X185937222Y-99827009D01*
X185967367Y-99790277D01*
X186049814Y-99689814D01*
X186151271Y-99606552D01*
X186187009Y-99577222D01*
X186343534Y-99493557D01*
X186513373Y-99442037D01*
X186579558Y-99435518D01*
X186645740Y-99429000D01*
X186734260Y-99429000D01*
X186800443Y-99435519D01*
X186800443Y-99435519D01*
G37*
G36*
X192735468Y-100020065D02*
G01*
X192774138Y-100031796D01*
X192809777Y-100050846D01*
X192841017Y-100076483D01*
X192866654Y-100107723D01*
X192885704Y-100143362D01*
X192897435Y-100182032D01*
X192902000Y-100228388D01*
X192902000Y-100879612D01*
X192897435Y-100925968D01*
X192885704Y-100964638D01*
X192866654Y-101000277D01*
X192841017Y-101031517D01*
X192809777Y-101057154D01*
X192774138Y-101076204D01*
X192735468Y-101087935D01*
X192689112Y-101092500D01*
X191612888Y-101092500D01*
X191566532Y-101087935D01*
X191527862Y-101076204D01*
X191492223Y-101057154D01*
X191460983Y-101031517D01*
X191435346Y-101000277D01*
X191416296Y-100964638D01*
X191404565Y-100925968D01*
X191400000Y-100879612D01*
X191400000Y-100228388D01*
X191404565Y-100182032D01*
X191416296Y-100143362D01*
X191435346Y-100107723D01*
X191460983Y-100076483D01*
X191492223Y-100050846D01*
X191527862Y-100031796D01*
X191566532Y-100020065D01*
X191612888Y-100015500D01*
X192689112Y-100015500D01*
X192735468Y-100020065D01*
X192735468Y-100020065D01*
G37*
G36*
X194446000Y-100969000D02*
G01*
X193444000Y-100969000D01*
X193444000Y-100067000D01*
X194446000Y-100067000D01*
X194446000Y-100969000D01*
X194446000Y-100969000D01*
G37*
G36*
X200135442Y-98673518D02*
G01*
X200201627Y-98680037D01*
X200371466Y-98731557D01*
X200527991Y-98815222D01*
X200559214Y-98840846D01*
X200665186Y-98927814D01*
X200739517Y-99018388D01*
X200777778Y-99065009D01*
X200861443Y-99221534D01*
X200912963Y-99391373D01*
X200930359Y-99568000D01*
X200912963Y-99744627D01*
X200861443Y-99914466D01*
X200777778Y-100070991D01*
X200748448Y-100106729D01*
X200665186Y-100208186D01*
X200571891Y-100284750D01*
X200527991Y-100320778D01*
X200371466Y-100404443D01*
X200201627Y-100455963D01*
X200135442Y-100462482D01*
X200069260Y-100469000D01*
X199980740Y-100469000D01*
X199914557Y-100462481D01*
X199848373Y-100455963D01*
X199678534Y-100404443D01*
X199522009Y-100320778D01*
X199478109Y-100284750D01*
X199384814Y-100208186D01*
X199301552Y-100106729D01*
X199272222Y-100070991D01*
X199188557Y-99914466D01*
X199137037Y-99744627D01*
X199119641Y-99568000D01*
X199137037Y-99391373D01*
X199188557Y-99221534D01*
X199272222Y-99065009D01*
X199310483Y-99018388D01*
X199384814Y-98927814D01*
X199490786Y-98840846D01*
X199522009Y-98815222D01*
X199678534Y-98731557D01*
X199848373Y-98680037D01*
X199914558Y-98673518D01*
X199980740Y-98667000D01*
X200069260Y-98667000D01*
X200135442Y-98673518D01*
X200135442Y-98673518D01*
G37*
G36*
X179180142Y-98786242D02*
G01*
X179328101Y-98847529D01*
X179461255Y-98936499D01*
X179574501Y-99049745D01*
X179663471Y-99182899D01*
X179724758Y-99330858D01*
X179756000Y-99487925D01*
X179756000Y-99648075D01*
X179724758Y-99805142D01*
X179663471Y-99953101D01*
X179574501Y-100086255D01*
X179461255Y-100199501D01*
X179328101Y-100288471D01*
X179180142Y-100349758D01*
X179023075Y-100381000D01*
X178862925Y-100381000D01*
X178705858Y-100349758D01*
X178557899Y-100288471D01*
X178424745Y-100199501D01*
X178311499Y-100086255D01*
X178222529Y-99953101D01*
X178161242Y-99805142D01*
X178130000Y-99648075D01*
X178130000Y-99487925D01*
X178161242Y-99330858D01*
X178222529Y-99182899D01*
X178311499Y-99049745D01*
X178424745Y-98936499D01*
X178557899Y-98847529D01*
X178705858Y-98786242D01*
X178862925Y-98755000D01*
X179023075Y-98755000D01*
X179180142Y-98786242D01*
X179180142Y-98786242D01*
G37*
G36*
X196446000Y-100019000D02*
G01*
X195444000Y-100019000D01*
X195444000Y-99117000D01*
X196446000Y-99117000D01*
X196446000Y-100019000D01*
X196446000Y-100019000D01*
G37*
G36*
X177241468Y-98810065D02*
G01*
X177280138Y-98821796D01*
X177315777Y-98840846D01*
X177347017Y-98866483D01*
X177372654Y-98897723D01*
X177391704Y-98933362D01*
X177403435Y-98972032D01*
X177408000Y-99018388D01*
X177408000Y-99669612D01*
X177403435Y-99715968D01*
X177391704Y-99754638D01*
X177372654Y-99790277D01*
X177347017Y-99821517D01*
X177315777Y-99847154D01*
X177280138Y-99866204D01*
X177241468Y-99877935D01*
X177195112Y-99882500D01*
X176118888Y-99882500D01*
X176072532Y-99877935D01*
X176033862Y-99866204D01*
X175998223Y-99847154D01*
X175966983Y-99821517D01*
X175941346Y-99790277D01*
X175922296Y-99754638D01*
X175910565Y-99715968D01*
X175906000Y-99669612D01*
X175906000Y-99018388D01*
X175910565Y-98972032D01*
X175922296Y-98933362D01*
X175941346Y-98897723D01*
X175966983Y-98866483D01*
X175998223Y-98840846D01*
X176033862Y-98821796D01*
X176072532Y-98810065D01*
X176118888Y-98805500D01*
X177195112Y-98805500D01*
X177241468Y-98810065D01*
X177241468Y-98810065D01*
G37*
G36*
X192735468Y-98145065D02*
G01*
X192774138Y-98156796D01*
X192809777Y-98175846D01*
X192841017Y-98201483D01*
X192866654Y-98232723D01*
X192885704Y-98268362D01*
X192897435Y-98307032D01*
X192902000Y-98353388D01*
X192902000Y-99004612D01*
X192897435Y-99050968D01*
X192885704Y-99089638D01*
X192866654Y-99125277D01*
X192841017Y-99156517D01*
X192809777Y-99182154D01*
X192774138Y-99201204D01*
X192735468Y-99212935D01*
X192689112Y-99217500D01*
X191612888Y-99217500D01*
X191566532Y-99212935D01*
X191527862Y-99201204D01*
X191492223Y-99182154D01*
X191460983Y-99156517D01*
X191435346Y-99125277D01*
X191416296Y-99089638D01*
X191404565Y-99050968D01*
X191400000Y-99004612D01*
X191400000Y-98353388D01*
X191404565Y-98307032D01*
X191416296Y-98268362D01*
X191435346Y-98232723D01*
X191460983Y-98201483D01*
X191492223Y-98175846D01*
X191527862Y-98156796D01*
X191566532Y-98145065D01*
X191612888Y-98140500D01*
X192689112Y-98140500D01*
X192735468Y-98145065D01*
X192735468Y-98145065D01*
G37*
G36*
X194446000Y-99069000D02*
G01*
X193444000Y-99069000D01*
X193444000Y-98167000D01*
X194446000Y-98167000D01*
X194446000Y-99069000D01*
X194446000Y-99069000D01*
G37*
G36*
X200135443Y-96133519D02*
G01*
X200201627Y-96140037D01*
X200371466Y-96191557D01*
X200371468Y-96191558D01*
X200449729Y-96233390D01*
X200527991Y-96275222D01*
X200563729Y-96304552D01*
X200665186Y-96387814D01*
X200728262Y-96464674D01*
X200777778Y-96525009D01*
X200861443Y-96681534D01*
X200912963Y-96851373D01*
X200930359Y-97028000D01*
X200912963Y-97204627D01*
X200861443Y-97374466D01*
X200777778Y-97530991D01*
X200760066Y-97552573D01*
X200665186Y-97668186D01*
X200563729Y-97751448D01*
X200527991Y-97780778D01*
X200371466Y-97864443D01*
X200201627Y-97915963D01*
X200135442Y-97922482D01*
X200069260Y-97929000D01*
X199980740Y-97929000D01*
X199914558Y-97922482D01*
X199848373Y-97915963D01*
X199678534Y-97864443D01*
X199522009Y-97780778D01*
X199486271Y-97751448D01*
X199384814Y-97668186D01*
X199289934Y-97552573D01*
X199272222Y-97530991D01*
X199188557Y-97374466D01*
X199137037Y-97204627D01*
X199119641Y-97028000D01*
X199137037Y-96851373D01*
X199188557Y-96681534D01*
X199272222Y-96525009D01*
X199321738Y-96464674D01*
X199384814Y-96387814D01*
X199486271Y-96304552D01*
X199522009Y-96275222D01*
X199600272Y-96233389D01*
X199678532Y-96191558D01*
X199678534Y-96191557D01*
X199848373Y-96140037D01*
X199914557Y-96133519D01*
X199980740Y-96127000D01*
X200069260Y-96127000D01*
X200135443Y-96133519D01*
X200135443Y-96133519D01*
G37*
G36*
X182008569Y-95957815D02*
G01*
X182156528Y-96019102D01*
X182289682Y-96108072D01*
X182402928Y-96221318D01*
X182491898Y-96354472D01*
X182553185Y-96502431D01*
X182584427Y-96659498D01*
X182584427Y-96819648D01*
X182553185Y-96976715D01*
X182491898Y-97124674D01*
X182402928Y-97257828D01*
X182289682Y-97371074D01*
X182156528Y-97460044D01*
X182008569Y-97521331D01*
X181851502Y-97552573D01*
X181691352Y-97552573D01*
X181534285Y-97521331D01*
X181386326Y-97460044D01*
X181253172Y-97371074D01*
X181139926Y-97257828D01*
X181050956Y-97124674D01*
X180989669Y-96976715D01*
X180958427Y-96819648D01*
X180958427Y-96659498D01*
X180989669Y-96502431D01*
X181050956Y-96354472D01*
X181139926Y-96221318D01*
X181253172Y-96108072D01*
X181386326Y-96019102D01*
X181534285Y-95957815D01*
X181691352Y-95926573D01*
X181851502Y-95926573D01*
X182008569Y-95957815D01*
X182008569Y-95957815D01*
G37*
G36*
X192735468Y-96464065D02*
G01*
X192774138Y-96475796D01*
X192809777Y-96494846D01*
X192841017Y-96520483D01*
X192866654Y-96551723D01*
X192885704Y-96587362D01*
X192897435Y-96626032D01*
X192902000Y-96672388D01*
X192902000Y-97323612D01*
X192897435Y-97369968D01*
X192885704Y-97408638D01*
X192866654Y-97444277D01*
X192841017Y-97475517D01*
X192809777Y-97501154D01*
X192774138Y-97520204D01*
X192735468Y-97531935D01*
X192689112Y-97536500D01*
X191612888Y-97536500D01*
X191566532Y-97531935D01*
X191527862Y-97520204D01*
X191492223Y-97501154D01*
X191460983Y-97475517D01*
X191435346Y-97444277D01*
X191416296Y-97408638D01*
X191404565Y-97369968D01*
X191400000Y-97323612D01*
X191400000Y-96672388D01*
X191404565Y-96626032D01*
X191416296Y-96587362D01*
X191435346Y-96551723D01*
X191460983Y-96520483D01*
X191492223Y-96494846D01*
X191527862Y-96475796D01*
X191566532Y-96464065D01*
X191612888Y-96459500D01*
X192689112Y-96459500D01*
X192735468Y-96464065D01*
X192735468Y-96464065D01*
G37*
G36*
X194446000Y-97413000D02*
G01*
X193444000Y-97413000D01*
X193444000Y-96511000D01*
X194446000Y-96511000D01*
X194446000Y-97413000D01*
X194446000Y-97413000D01*
G37*
G36*
X196446000Y-96463000D02*
G01*
X195444000Y-96463000D01*
X195444000Y-95561000D01*
X196446000Y-95561000D01*
X196446000Y-96463000D01*
X196446000Y-96463000D01*
G37*
G36*
X192735468Y-94589065D02*
G01*
X192774138Y-94600796D01*
X192809777Y-94619846D01*
X192841017Y-94645483D01*
X192866654Y-94676723D01*
X192885704Y-94712362D01*
X192897435Y-94751032D01*
X192902000Y-94797388D01*
X192902000Y-95448612D01*
X192897435Y-95494968D01*
X192885704Y-95533638D01*
X192866654Y-95569277D01*
X192841017Y-95600517D01*
X192809777Y-95626154D01*
X192774138Y-95645204D01*
X192735468Y-95656935D01*
X192689112Y-95661500D01*
X191612888Y-95661500D01*
X191566532Y-95656935D01*
X191527862Y-95645204D01*
X191492223Y-95626154D01*
X191460983Y-95600517D01*
X191435346Y-95569277D01*
X191416296Y-95533638D01*
X191404565Y-95494968D01*
X191400000Y-95448612D01*
X191400000Y-94797388D01*
X191404565Y-94751032D01*
X191416296Y-94712362D01*
X191435346Y-94676723D01*
X191460983Y-94645483D01*
X191492223Y-94619846D01*
X191527862Y-94600796D01*
X191566532Y-94589065D01*
X191612888Y-94584500D01*
X192689112Y-94584500D01*
X192735468Y-94589065D01*
X192735468Y-94589065D01*
G37*
G36*
X194446000Y-95513000D02*
G01*
X193444000Y-95513000D01*
X193444000Y-94611000D01*
X194446000Y-94611000D01*
X194446000Y-95513000D01*
X194446000Y-95513000D01*
G37*
G36*
X200135442Y-93593518D02*
G01*
X200201627Y-93600037D01*
X200371466Y-93651557D01*
X200527991Y-93735222D01*
X200562786Y-93763778D01*
X200665186Y-93847814D01*
X200743050Y-93942693D01*
X200777778Y-93985009D01*
X200861443Y-94141534D01*
X200912963Y-94311373D01*
X200930359Y-94488000D01*
X200912963Y-94664627D01*
X200861443Y-94834466D01*
X200777778Y-94990991D01*
X200748448Y-95026729D01*
X200665186Y-95128186D01*
X200563729Y-95211448D01*
X200527991Y-95240778D01*
X200371466Y-95324443D01*
X200201627Y-95375963D01*
X200135443Y-95382481D01*
X200069260Y-95389000D01*
X199980740Y-95389000D01*
X199914557Y-95382481D01*
X199848373Y-95375963D01*
X199678534Y-95324443D01*
X199522009Y-95240778D01*
X199486271Y-95211448D01*
X199384814Y-95128186D01*
X199301552Y-95026729D01*
X199272222Y-94990991D01*
X199188557Y-94834466D01*
X199137037Y-94664627D01*
X199119641Y-94488000D01*
X199137037Y-94311373D01*
X199188557Y-94141534D01*
X199272222Y-93985009D01*
X199306950Y-93942693D01*
X199384814Y-93847814D01*
X199487214Y-93763778D01*
X199522009Y-93735222D01*
X199678534Y-93651557D01*
X199848373Y-93600037D01*
X199914557Y-93593519D01*
X199980740Y-93587000D01*
X200069260Y-93587000D01*
X200135442Y-93593518D01*
X200135442Y-93593518D01*
G37*
G36*
X185190549Y-92775835D02*
G01*
X185338508Y-92837122D01*
X185471662Y-92926092D01*
X185584908Y-93039338D01*
X185673878Y-93172492D01*
X185735165Y-93320451D01*
X185766407Y-93477518D01*
X185766407Y-93637668D01*
X185735165Y-93794735D01*
X185673878Y-93942694D01*
X185584908Y-94075848D01*
X185471662Y-94189094D01*
X185338508Y-94278064D01*
X185190549Y-94339351D01*
X185033482Y-94370593D01*
X184873332Y-94370593D01*
X184716265Y-94339351D01*
X184568306Y-94278064D01*
X184435152Y-94189094D01*
X184321906Y-94075848D01*
X184232936Y-93942694D01*
X184171649Y-93794735D01*
X184140407Y-93637668D01*
X184140407Y-93477518D01*
X184171649Y-93320451D01*
X184232936Y-93172492D01*
X184321906Y-93039338D01*
X184435152Y-92926092D01*
X184568306Y-92837122D01*
X184716265Y-92775835D01*
X184873332Y-92744593D01*
X185033482Y-92744593D01*
X185190549Y-92775835D01*
X185190549Y-92775835D01*
G37*
G36*
X192735468Y-92908065D02*
G01*
X192774138Y-92919796D01*
X192809777Y-92938846D01*
X192841017Y-92964483D01*
X192866654Y-92995723D01*
X192885704Y-93031362D01*
X192897435Y-93070032D01*
X192902000Y-93116388D01*
X192902000Y-93767612D01*
X192897435Y-93813968D01*
X192885704Y-93852638D01*
X192866654Y-93888277D01*
X192841017Y-93919517D01*
X192809777Y-93945154D01*
X192774138Y-93964204D01*
X192735468Y-93975935D01*
X192689112Y-93980500D01*
X191612888Y-93980500D01*
X191566532Y-93975935D01*
X191527862Y-93964204D01*
X191492223Y-93945154D01*
X191460983Y-93919517D01*
X191435346Y-93888277D01*
X191416296Y-93852638D01*
X191404565Y-93813968D01*
X191400000Y-93767612D01*
X191400000Y-93116388D01*
X191404565Y-93070032D01*
X191416296Y-93031362D01*
X191435346Y-92995723D01*
X191460983Y-92964483D01*
X191492223Y-92938846D01*
X191527862Y-92919796D01*
X191566532Y-92908065D01*
X191612888Y-92903500D01*
X192689112Y-92903500D01*
X192735468Y-92908065D01*
X192735468Y-92908065D01*
G37*
G36*
X194446000Y-93857000D02*
G01*
X193444000Y-93857000D01*
X193444000Y-92955000D01*
X194446000Y-92955000D01*
X194446000Y-93857000D01*
X194446000Y-93857000D01*
G37*
G36*
X196446000Y-92907000D02*
G01*
X195444000Y-92907000D01*
X195444000Y-92005000D01*
X196446000Y-92005000D01*
X196446000Y-92907000D01*
X196446000Y-92907000D01*
G37*
G36*
X200135442Y-91053518D02*
G01*
X200201627Y-91060037D01*
X200371466Y-91111557D01*
X200527991Y-91195222D01*
X200563729Y-91224552D01*
X200665186Y-91307814D01*
X200748448Y-91409271D01*
X200777778Y-91445009D01*
X200861443Y-91601534D01*
X200912963Y-91771373D01*
X200930359Y-91948000D01*
X200912963Y-92124627D01*
X200861443Y-92294466D01*
X200777778Y-92450991D01*
X200748448Y-92486729D01*
X200665186Y-92588186D01*
X200563729Y-92671448D01*
X200527991Y-92700778D01*
X200527989Y-92700779D01*
X200387569Y-92775836D01*
X200371466Y-92784443D01*
X200201627Y-92835963D01*
X200135442Y-92842482D01*
X200069260Y-92849000D01*
X199980740Y-92849000D01*
X199914558Y-92842482D01*
X199848373Y-92835963D01*
X199678534Y-92784443D01*
X199662432Y-92775836D01*
X199522011Y-92700779D01*
X199522009Y-92700778D01*
X199486271Y-92671448D01*
X199384814Y-92588186D01*
X199301552Y-92486729D01*
X199272222Y-92450991D01*
X199188557Y-92294466D01*
X199137037Y-92124627D01*
X199119641Y-91948000D01*
X199137037Y-91771373D01*
X199188557Y-91601534D01*
X199272222Y-91445009D01*
X199301552Y-91409271D01*
X199384814Y-91307814D01*
X199486271Y-91224552D01*
X199522009Y-91195222D01*
X199678534Y-91111557D01*
X199848373Y-91060037D01*
X199914558Y-91053518D01*
X199980740Y-91047000D01*
X200069260Y-91047000D01*
X200135442Y-91053518D01*
X200135442Y-91053518D01*
G37*
G36*
X192735468Y-91033065D02*
G01*
X192774138Y-91044796D01*
X192809777Y-91063846D01*
X192841017Y-91089483D01*
X192866654Y-91120723D01*
X192885704Y-91156362D01*
X192897435Y-91195032D01*
X192902000Y-91241388D01*
X192902000Y-91892612D01*
X192897435Y-91938968D01*
X192885704Y-91977638D01*
X192866654Y-92013277D01*
X192841017Y-92044517D01*
X192809777Y-92070154D01*
X192774138Y-92089204D01*
X192735468Y-92100935D01*
X192689112Y-92105500D01*
X191612888Y-92105500D01*
X191566532Y-92100935D01*
X191527862Y-92089204D01*
X191492223Y-92070154D01*
X191460983Y-92044517D01*
X191435346Y-92013277D01*
X191416296Y-91977638D01*
X191404565Y-91938968D01*
X191400000Y-91892612D01*
X191400000Y-91241388D01*
X191404565Y-91195032D01*
X191416296Y-91156362D01*
X191435346Y-91120723D01*
X191460983Y-91089483D01*
X191492223Y-91063846D01*
X191527862Y-91044796D01*
X191566532Y-91033065D01*
X191612888Y-91028500D01*
X192689112Y-91028500D01*
X192735468Y-91033065D01*
X192735468Y-91033065D01*
G37*
G36*
X194446000Y-91957000D02*
G01*
X193444000Y-91957000D01*
X193444000Y-91055000D01*
X194446000Y-91055000D01*
X194446000Y-91957000D01*
X194446000Y-91957000D01*
G37*
G36*
X188018976Y-89947408D02*
G01*
X188166935Y-90008695D01*
X188300089Y-90097665D01*
X188413335Y-90210911D01*
X188502305Y-90344065D01*
X188563592Y-90492024D01*
X188594834Y-90649091D01*
X188594834Y-90809241D01*
X188563592Y-90966308D01*
X188502305Y-91114267D01*
X188413335Y-91247421D01*
X188300089Y-91360667D01*
X188166935Y-91449637D01*
X188018976Y-91510924D01*
X187861909Y-91542166D01*
X187701759Y-91542166D01*
X187544692Y-91510924D01*
X187396733Y-91449637D01*
X187263579Y-91360667D01*
X187150333Y-91247421D01*
X187061363Y-91114267D01*
X187000076Y-90966308D01*
X186968834Y-90809241D01*
X186968834Y-90649091D01*
X187000076Y-90492024D01*
X187061363Y-90344065D01*
X187150333Y-90210911D01*
X187263579Y-90097665D01*
X187396733Y-90008695D01*
X187544692Y-89947408D01*
X187701759Y-89916166D01*
X187861909Y-89916166D01*
X188018976Y-89947408D01*
X188018976Y-89947408D01*
G37*
M02*
