G04 #@! TF.GenerationSoftware,KiCad,Pcbnew,(5.1.4)-1*
G04 #@! TF.CreationDate,2020-04-18T17:13:35+10:00*
G04 #@! TF.ProjectId,c64-nes-adapter,6336342d-6e65-4732-9d61-646170746572,rev?*
G04 #@! TF.SameCoordinates,Original*
G04 #@! TF.FileFunction,Copper,L1,Top*
G04 #@! TF.FilePolarity,Positive*
%FSLAX46Y46*%
G04 Gerber Fmt 4.6, Leading zero omitted, Abs format (unit mm)*
G04 Created by KiCad (PCBNEW (5.1.4)-1) date 2020-04-18 17:13:35*
%MOMM*%
%LPD*%
G04 APERTURE LIST*
%ADD10R,1.700000X1.700000*%
%ADD11O,1.700000X1.700000*%
%ADD12C,1.524000*%
%ADD13R,0.900000X0.800000*%
%ADD14C,0.100000*%
%ADD15C,0.975000*%
%ADD16R,0.550000X1.600000*%
%ADD17R,1.600000X0.550000*%
%ADD18C,0.800000*%
%ADD19C,0.250000*%
G04 APERTURE END LIST*
D10*
X200025000Y-107188000D03*
D11*
X200025000Y-104648000D03*
X200025000Y-102108000D03*
X200025000Y-99568000D03*
X200025000Y-97028000D03*
X200025000Y-94488000D03*
X200025000Y-91948000D03*
D12*
X187781834Y-90729166D03*
X184953407Y-93557593D03*
X181771427Y-96739573D03*
X178943000Y-99568000D03*
X178943000Y-107068000D03*
D11*
X186690000Y-105410000D03*
X184150000Y-105410000D03*
X186690000Y-102870000D03*
X184150000Y-102870000D03*
X186690000Y-100330000D03*
D10*
X184150000Y-100330000D03*
D13*
X193945000Y-91506000D03*
X193945000Y-93406000D03*
X195945000Y-92456000D03*
X193945000Y-95062000D03*
X193945000Y-96962000D03*
X195945000Y-96012000D03*
X193945000Y-98618000D03*
X193945000Y-100518000D03*
X195945000Y-99568000D03*
X193945000Y-102174000D03*
X193945000Y-104074000D03*
X195945000Y-103124000D03*
X193945000Y-105730000D03*
X193945000Y-107630000D03*
X195945000Y-106680000D03*
D14*
G36*
X192631142Y-105256174D02*
G01*
X192654803Y-105259684D01*
X192678007Y-105265496D01*
X192700529Y-105273554D01*
X192722153Y-105283782D01*
X192742670Y-105296079D01*
X192761883Y-105310329D01*
X192779607Y-105326393D01*
X192795671Y-105344117D01*
X192809921Y-105363330D01*
X192822218Y-105383847D01*
X192832446Y-105405471D01*
X192840504Y-105427993D01*
X192846316Y-105451197D01*
X192849826Y-105474858D01*
X192851000Y-105498750D01*
X192851000Y-105986250D01*
X192849826Y-106010142D01*
X192846316Y-106033803D01*
X192840504Y-106057007D01*
X192832446Y-106079529D01*
X192822218Y-106101153D01*
X192809921Y-106121670D01*
X192795671Y-106140883D01*
X192779607Y-106158607D01*
X192761883Y-106174671D01*
X192742670Y-106188921D01*
X192722153Y-106201218D01*
X192700529Y-106211446D01*
X192678007Y-106219504D01*
X192654803Y-106225316D01*
X192631142Y-106228826D01*
X192607250Y-106230000D01*
X191694750Y-106230000D01*
X191670858Y-106228826D01*
X191647197Y-106225316D01*
X191623993Y-106219504D01*
X191601471Y-106211446D01*
X191579847Y-106201218D01*
X191559330Y-106188921D01*
X191540117Y-106174671D01*
X191522393Y-106158607D01*
X191506329Y-106140883D01*
X191492079Y-106121670D01*
X191479782Y-106101153D01*
X191469554Y-106079529D01*
X191461496Y-106057007D01*
X191455684Y-106033803D01*
X191452174Y-106010142D01*
X191451000Y-105986250D01*
X191451000Y-105498750D01*
X191452174Y-105474858D01*
X191455684Y-105451197D01*
X191461496Y-105427993D01*
X191469554Y-105405471D01*
X191479782Y-105383847D01*
X191492079Y-105363330D01*
X191506329Y-105344117D01*
X191522393Y-105326393D01*
X191540117Y-105310329D01*
X191559330Y-105296079D01*
X191579847Y-105283782D01*
X191601471Y-105273554D01*
X191623993Y-105265496D01*
X191647197Y-105259684D01*
X191670858Y-105256174D01*
X191694750Y-105255000D01*
X192607250Y-105255000D01*
X192631142Y-105256174D01*
X192631142Y-105256174D01*
G37*
D15*
X192151000Y-105742500D03*
D14*
G36*
X192631142Y-107131174D02*
G01*
X192654803Y-107134684D01*
X192678007Y-107140496D01*
X192700529Y-107148554D01*
X192722153Y-107158782D01*
X192742670Y-107171079D01*
X192761883Y-107185329D01*
X192779607Y-107201393D01*
X192795671Y-107219117D01*
X192809921Y-107238330D01*
X192822218Y-107258847D01*
X192832446Y-107280471D01*
X192840504Y-107302993D01*
X192846316Y-107326197D01*
X192849826Y-107349858D01*
X192851000Y-107373750D01*
X192851000Y-107861250D01*
X192849826Y-107885142D01*
X192846316Y-107908803D01*
X192840504Y-107932007D01*
X192832446Y-107954529D01*
X192822218Y-107976153D01*
X192809921Y-107996670D01*
X192795671Y-108015883D01*
X192779607Y-108033607D01*
X192761883Y-108049671D01*
X192742670Y-108063921D01*
X192722153Y-108076218D01*
X192700529Y-108086446D01*
X192678007Y-108094504D01*
X192654803Y-108100316D01*
X192631142Y-108103826D01*
X192607250Y-108105000D01*
X191694750Y-108105000D01*
X191670858Y-108103826D01*
X191647197Y-108100316D01*
X191623993Y-108094504D01*
X191601471Y-108086446D01*
X191579847Y-108076218D01*
X191559330Y-108063921D01*
X191540117Y-108049671D01*
X191522393Y-108033607D01*
X191506329Y-108015883D01*
X191492079Y-107996670D01*
X191479782Y-107976153D01*
X191469554Y-107954529D01*
X191461496Y-107932007D01*
X191455684Y-107908803D01*
X191452174Y-107885142D01*
X191451000Y-107861250D01*
X191451000Y-107373750D01*
X191452174Y-107349858D01*
X191455684Y-107326197D01*
X191461496Y-107302993D01*
X191469554Y-107280471D01*
X191479782Y-107258847D01*
X191492079Y-107238330D01*
X191506329Y-107219117D01*
X191522393Y-107201393D01*
X191540117Y-107185329D01*
X191559330Y-107171079D01*
X191579847Y-107158782D01*
X191601471Y-107148554D01*
X191623993Y-107140496D01*
X191647197Y-107134684D01*
X191670858Y-107131174D01*
X191694750Y-107130000D01*
X192607250Y-107130000D01*
X192631142Y-107131174D01*
X192631142Y-107131174D01*
G37*
D15*
X192151000Y-107617500D03*
D14*
G36*
X192631142Y-94636674D02*
G01*
X192654803Y-94640184D01*
X192678007Y-94645996D01*
X192700529Y-94654054D01*
X192722153Y-94664282D01*
X192742670Y-94676579D01*
X192761883Y-94690829D01*
X192779607Y-94706893D01*
X192795671Y-94724617D01*
X192809921Y-94743830D01*
X192822218Y-94764347D01*
X192832446Y-94785971D01*
X192840504Y-94808493D01*
X192846316Y-94831697D01*
X192849826Y-94855358D01*
X192851000Y-94879250D01*
X192851000Y-95366750D01*
X192849826Y-95390642D01*
X192846316Y-95414303D01*
X192840504Y-95437507D01*
X192832446Y-95460029D01*
X192822218Y-95481653D01*
X192809921Y-95502170D01*
X192795671Y-95521383D01*
X192779607Y-95539107D01*
X192761883Y-95555171D01*
X192742670Y-95569421D01*
X192722153Y-95581718D01*
X192700529Y-95591946D01*
X192678007Y-95600004D01*
X192654803Y-95605816D01*
X192631142Y-95609326D01*
X192607250Y-95610500D01*
X191694750Y-95610500D01*
X191670858Y-95609326D01*
X191647197Y-95605816D01*
X191623993Y-95600004D01*
X191601471Y-95591946D01*
X191579847Y-95581718D01*
X191559330Y-95569421D01*
X191540117Y-95555171D01*
X191522393Y-95539107D01*
X191506329Y-95521383D01*
X191492079Y-95502170D01*
X191479782Y-95481653D01*
X191469554Y-95460029D01*
X191461496Y-95437507D01*
X191455684Y-95414303D01*
X191452174Y-95390642D01*
X191451000Y-95366750D01*
X191451000Y-94879250D01*
X191452174Y-94855358D01*
X191455684Y-94831697D01*
X191461496Y-94808493D01*
X191469554Y-94785971D01*
X191479782Y-94764347D01*
X191492079Y-94743830D01*
X191506329Y-94724617D01*
X191522393Y-94706893D01*
X191540117Y-94690829D01*
X191559330Y-94676579D01*
X191579847Y-94664282D01*
X191601471Y-94654054D01*
X191623993Y-94645996D01*
X191647197Y-94640184D01*
X191670858Y-94636674D01*
X191694750Y-94635500D01*
X192607250Y-94635500D01*
X192631142Y-94636674D01*
X192631142Y-94636674D01*
G37*
D15*
X192151000Y-95123000D03*
D14*
G36*
X192631142Y-96511674D02*
G01*
X192654803Y-96515184D01*
X192678007Y-96520996D01*
X192700529Y-96529054D01*
X192722153Y-96539282D01*
X192742670Y-96551579D01*
X192761883Y-96565829D01*
X192779607Y-96581893D01*
X192795671Y-96599617D01*
X192809921Y-96618830D01*
X192822218Y-96639347D01*
X192832446Y-96660971D01*
X192840504Y-96683493D01*
X192846316Y-96706697D01*
X192849826Y-96730358D01*
X192851000Y-96754250D01*
X192851000Y-97241750D01*
X192849826Y-97265642D01*
X192846316Y-97289303D01*
X192840504Y-97312507D01*
X192832446Y-97335029D01*
X192822218Y-97356653D01*
X192809921Y-97377170D01*
X192795671Y-97396383D01*
X192779607Y-97414107D01*
X192761883Y-97430171D01*
X192742670Y-97444421D01*
X192722153Y-97456718D01*
X192700529Y-97466946D01*
X192678007Y-97475004D01*
X192654803Y-97480816D01*
X192631142Y-97484326D01*
X192607250Y-97485500D01*
X191694750Y-97485500D01*
X191670858Y-97484326D01*
X191647197Y-97480816D01*
X191623993Y-97475004D01*
X191601471Y-97466946D01*
X191579847Y-97456718D01*
X191559330Y-97444421D01*
X191540117Y-97430171D01*
X191522393Y-97414107D01*
X191506329Y-97396383D01*
X191492079Y-97377170D01*
X191479782Y-97356653D01*
X191469554Y-97335029D01*
X191461496Y-97312507D01*
X191455684Y-97289303D01*
X191452174Y-97265642D01*
X191451000Y-97241750D01*
X191451000Y-96754250D01*
X191452174Y-96730358D01*
X191455684Y-96706697D01*
X191461496Y-96683493D01*
X191469554Y-96660971D01*
X191479782Y-96639347D01*
X191492079Y-96618830D01*
X191506329Y-96599617D01*
X191522393Y-96581893D01*
X191540117Y-96565829D01*
X191559330Y-96551579D01*
X191579847Y-96539282D01*
X191601471Y-96529054D01*
X191623993Y-96520996D01*
X191647197Y-96515184D01*
X191670858Y-96511674D01*
X191694750Y-96510500D01*
X192607250Y-96510500D01*
X192631142Y-96511674D01*
X192631142Y-96511674D01*
G37*
D15*
X192151000Y-96998000D03*
D14*
G36*
X192631142Y-91080674D02*
G01*
X192654803Y-91084184D01*
X192678007Y-91089996D01*
X192700529Y-91098054D01*
X192722153Y-91108282D01*
X192742670Y-91120579D01*
X192761883Y-91134829D01*
X192779607Y-91150893D01*
X192795671Y-91168617D01*
X192809921Y-91187830D01*
X192822218Y-91208347D01*
X192832446Y-91229971D01*
X192840504Y-91252493D01*
X192846316Y-91275697D01*
X192849826Y-91299358D01*
X192851000Y-91323250D01*
X192851000Y-91810750D01*
X192849826Y-91834642D01*
X192846316Y-91858303D01*
X192840504Y-91881507D01*
X192832446Y-91904029D01*
X192822218Y-91925653D01*
X192809921Y-91946170D01*
X192795671Y-91965383D01*
X192779607Y-91983107D01*
X192761883Y-91999171D01*
X192742670Y-92013421D01*
X192722153Y-92025718D01*
X192700529Y-92035946D01*
X192678007Y-92044004D01*
X192654803Y-92049816D01*
X192631142Y-92053326D01*
X192607250Y-92054500D01*
X191694750Y-92054500D01*
X191670858Y-92053326D01*
X191647197Y-92049816D01*
X191623993Y-92044004D01*
X191601471Y-92035946D01*
X191579847Y-92025718D01*
X191559330Y-92013421D01*
X191540117Y-91999171D01*
X191522393Y-91983107D01*
X191506329Y-91965383D01*
X191492079Y-91946170D01*
X191479782Y-91925653D01*
X191469554Y-91904029D01*
X191461496Y-91881507D01*
X191455684Y-91858303D01*
X191452174Y-91834642D01*
X191451000Y-91810750D01*
X191451000Y-91323250D01*
X191452174Y-91299358D01*
X191455684Y-91275697D01*
X191461496Y-91252493D01*
X191469554Y-91229971D01*
X191479782Y-91208347D01*
X191492079Y-91187830D01*
X191506329Y-91168617D01*
X191522393Y-91150893D01*
X191540117Y-91134829D01*
X191559330Y-91120579D01*
X191579847Y-91108282D01*
X191601471Y-91098054D01*
X191623993Y-91089996D01*
X191647197Y-91084184D01*
X191670858Y-91080674D01*
X191694750Y-91079500D01*
X192607250Y-91079500D01*
X192631142Y-91080674D01*
X192631142Y-91080674D01*
G37*
D15*
X192151000Y-91567000D03*
D14*
G36*
X192631142Y-92955674D02*
G01*
X192654803Y-92959184D01*
X192678007Y-92964996D01*
X192700529Y-92973054D01*
X192722153Y-92983282D01*
X192742670Y-92995579D01*
X192761883Y-93009829D01*
X192779607Y-93025893D01*
X192795671Y-93043617D01*
X192809921Y-93062830D01*
X192822218Y-93083347D01*
X192832446Y-93104971D01*
X192840504Y-93127493D01*
X192846316Y-93150697D01*
X192849826Y-93174358D01*
X192851000Y-93198250D01*
X192851000Y-93685750D01*
X192849826Y-93709642D01*
X192846316Y-93733303D01*
X192840504Y-93756507D01*
X192832446Y-93779029D01*
X192822218Y-93800653D01*
X192809921Y-93821170D01*
X192795671Y-93840383D01*
X192779607Y-93858107D01*
X192761883Y-93874171D01*
X192742670Y-93888421D01*
X192722153Y-93900718D01*
X192700529Y-93910946D01*
X192678007Y-93919004D01*
X192654803Y-93924816D01*
X192631142Y-93928326D01*
X192607250Y-93929500D01*
X191694750Y-93929500D01*
X191670858Y-93928326D01*
X191647197Y-93924816D01*
X191623993Y-93919004D01*
X191601471Y-93910946D01*
X191579847Y-93900718D01*
X191559330Y-93888421D01*
X191540117Y-93874171D01*
X191522393Y-93858107D01*
X191506329Y-93840383D01*
X191492079Y-93821170D01*
X191479782Y-93800653D01*
X191469554Y-93779029D01*
X191461496Y-93756507D01*
X191455684Y-93733303D01*
X191452174Y-93709642D01*
X191451000Y-93685750D01*
X191451000Y-93198250D01*
X191452174Y-93174358D01*
X191455684Y-93150697D01*
X191461496Y-93127493D01*
X191469554Y-93104971D01*
X191479782Y-93083347D01*
X191492079Y-93062830D01*
X191506329Y-93043617D01*
X191522393Y-93025893D01*
X191540117Y-93009829D01*
X191559330Y-92995579D01*
X191579847Y-92983282D01*
X191601471Y-92973054D01*
X191623993Y-92964996D01*
X191647197Y-92959184D01*
X191670858Y-92955674D01*
X191694750Y-92954500D01*
X192607250Y-92954500D01*
X192631142Y-92955674D01*
X192631142Y-92955674D01*
G37*
D15*
X192151000Y-93442000D03*
D14*
G36*
X192631142Y-98192674D02*
G01*
X192654803Y-98196184D01*
X192678007Y-98201996D01*
X192700529Y-98210054D01*
X192722153Y-98220282D01*
X192742670Y-98232579D01*
X192761883Y-98246829D01*
X192779607Y-98262893D01*
X192795671Y-98280617D01*
X192809921Y-98299830D01*
X192822218Y-98320347D01*
X192832446Y-98341971D01*
X192840504Y-98364493D01*
X192846316Y-98387697D01*
X192849826Y-98411358D01*
X192851000Y-98435250D01*
X192851000Y-98922750D01*
X192849826Y-98946642D01*
X192846316Y-98970303D01*
X192840504Y-98993507D01*
X192832446Y-99016029D01*
X192822218Y-99037653D01*
X192809921Y-99058170D01*
X192795671Y-99077383D01*
X192779607Y-99095107D01*
X192761883Y-99111171D01*
X192742670Y-99125421D01*
X192722153Y-99137718D01*
X192700529Y-99147946D01*
X192678007Y-99156004D01*
X192654803Y-99161816D01*
X192631142Y-99165326D01*
X192607250Y-99166500D01*
X191694750Y-99166500D01*
X191670858Y-99165326D01*
X191647197Y-99161816D01*
X191623993Y-99156004D01*
X191601471Y-99147946D01*
X191579847Y-99137718D01*
X191559330Y-99125421D01*
X191540117Y-99111171D01*
X191522393Y-99095107D01*
X191506329Y-99077383D01*
X191492079Y-99058170D01*
X191479782Y-99037653D01*
X191469554Y-99016029D01*
X191461496Y-98993507D01*
X191455684Y-98970303D01*
X191452174Y-98946642D01*
X191451000Y-98922750D01*
X191451000Y-98435250D01*
X191452174Y-98411358D01*
X191455684Y-98387697D01*
X191461496Y-98364493D01*
X191469554Y-98341971D01*
X191479782Y-98320347D01*
X191492079Y-98299830D01*
X191506329Y-98280617D01*
X191522393Y-98262893D01*
X191540117Y-98246829D01*
X191559330Y-98232579D01*
X191579847Y-98220282D01*
X191601471Y-98210054D01*
X191623993Y-98201996D01*
X191647197Y-98196184D01*
X191670858Y-98192674D01*
X191694750Y-98191500D01*
X192607250Y-98191500D01*
X192631142Y-98192674D01*
X192631142Y-98192674D01*
G37*
D15*
X192151000Y-98679000D03*
D14*
G36*
X192631142Y-100067674D02*
G01*
X192654803Y-100071184D01*
X192678007Y-100076996D01*
X192700529Y-100085054D01*
X192722153Y-100095282D01*
X192742670Y-100107579D01*
X192761883Y-100121829D01*
X192779607Y-100137893D01*
X192795671Y-100155617D01*
X192809921Y-100174830D01*
X192822218Y-100195347D01*
X192832446Y-100216971D01*
X192840504Y-100239493D01*
X192846316Y-100262697D01*
X192849826Y-100286358D01*
X192851000Y-100310250D01*
X192851000Y-100797750D01*
X192849826Y-100821642D01*
X192846316Y-100845303D01*
X192840504Y-100868507D01*
X192832446Y-100891029D01*
X192822218Y-100912653D01*
X192809921Y-100933170D01*
X192795671Y-100952383D01*
X192779607Y-100970107D01*
X192761883Y-100986171D01*
X192742670Y-101000421D01*
X192722153Y-101012718D01*
X192700529Y-101022946D01*
X192678007Y-101031004D01*
X192654803Y-101036816D01*
X192631142Y-101040326D01*
X192607250Y-101041500D01*
X191694750Y-101041500D01*
X191670858Y-101040326D01*
X191647197Y-101036816D01*
X191623993Y-101031004D01*
X191601471Y-101022946D01*
X191579847Y-101012718D01*
X191559330Y-101000421D01*
X191540117Y-100986171D01*
X191522393Y-100970107D01*
X191506329Y-100952383D01*
X191492079Y-100933170D01*
X191479782Y-100912653D01*
X191469554Y-100891029D01*
X191461496Y-100868507D01*
X191455684Y-100845303D01*
X191452174Y-100821642D01*
X191451000Y-100797750D01*
X191451000Y-100310250D01*
X191452174Y-100286358D01*
X191455684Y-100262697D01*
X191461496Y-100239493D01*
X191469554Y-100216971D01*
X191479782Y-100195347D01*
X191492079Y-100174830D01*
X191506329Y-100155617D01*
X191522393Y-100137893D01*
X191540117Y-100121829D01*
X191559330Y-100107579D01*
X191579847Y-100095282D01*
X191601471Y-100085054D01*
X191623993Y-100076996D01*
X191647197Y-100071184D01*
X191670858Y-100067674D01*
X191694750Y-100066500D01*
X192607250Y-100066500D01*
X192631142Y-100067674D01*
X192631142Y-100067674D01*
G37*
D15*
X192151000Y-100554000D03*
D14*
G36*
X192631142Y-101748674D02*
G01*
X192654803Y-101752184D01*
X192678007Y-101757996D01*
X192700529Y-101766054D01*
X192722153Y-101776282D01*
X192742670Y-101788579D01*
X192761883Y-101802829D01*
X192779607Y-101818893D01*
X192795671Y-101836617D01*
X192809921Y-101855830D01*
X192822218Y-101876347D01*
X192832446Y-101897971D01*
X192840504Y-101920493D01*
X192846316Y-101943697D01*
X192849826Y-101967358D01*
X192851000Y-101991250D01*
X192851000Y-102478750D01*
X192849826Y-102502642D01*
X192846316Y-102526303D01*
X192840504Y-102549507D01*
X192832446Y-102572029D01*
X192822218Y-102593653D01*
X192809921Y-102614170D01*
X192795671Y-102633383D01*
X192779607Y-102651107D01*
X192761883Y-102667171D01*
X192742670Y-102681421D01*
X192722153Y-102693718D01*
X192700529Y-102703946D01*
X192678007Y-102712004D01*
X192654803Y-102717816D01*
X192631142Y-102721326D01*
X192607250Y-102722500D01*
X191694750Y-102722500D01*
X191670858Y-102721326D01*
X191647197Y-102717816D01*
X191623993Y-102712004D01*
X191601471Y-102703946D01*
X191579847Y-102693718D01*
X191559330Y-102681421D01*
X191540117Y-102667171D01*
X191522393Y-102651107D01*
X191506329Y-102633383D01*
X191492079Y-102614170D01*
X191479782Y-102593653D01*
X191469554Y-102572029D01*
X191461496Y-102549507D01*
X191455684Y-102526303D01*
X191452174Y-102502642D01*
X191451000Y-102478750D01*
X191451000Y-101991250D01*
X191452174Y-101967358D01*
X191455684Y-101943697D01*
X191461496Y-101920493D01*
X191469554Y-101897971D01*
X191479782Y-101876347D01*
X191492079Y-101855830D01*
X191506329Y-101836617D01*
X191522393Y-101818893D01*
X191540117Y-101802829D01*
X191559330Y-101788579D01*
X191579847Y-101776282D01*
X191601471Y-101766054D01*
X191623993Y-101757996D01*
X191647197Y-101752184D01*
X191670858Y-101748674D01*
X191694750Y-101747500D01*
X192607250Y-101747500D01*
X192631142Y-101748674D01*
X192631142Y-101748674D01*
G37*
D15*
X192151000Y-102235000D03*
D14*
G36*
X192631142Y-103623674D02*
G01*
X192654803Y-103627184D01*
X192678007Y-103632996D01*
X192700529Y-103641054D01*
X192722153Y-103651282D01*
X192742670Y-103663579D01*
X192761883Y-103677829D01*
X192779607Y-103693893D01*
X192795671Y-103711617D01*
X192809921Y-103730830D01*
X192822218Y-103751347D01*
X192832446Y-103772971D01*
X192840504Y-103795493D01*
X192846316Y-103818697D01*
X192849826Y-103842358D01*
X192851000Y-103866250D01*
X192851000Y-104353750D01*
X192849826Y-104377642D01*
X192846316Y-104401303D01*
X192840504Y-104424507D01*
X192832446Y-104447029D01*
X192822218Y-104468653D01*
X192809921Y-104489170D01*
X192795671Y-104508383D01*
X192779607Y-104526107D01*
X192761883Y-104542171D01*
X192742670Y-104556421D01*
X192722153Y-104568718D01*
X192700529Y-104578946D01*
X192678007Y-104587004D01*
X192654803Y-104592816D01*
X192631142Y-104596326D01*
X192607250Y-104597500D01*
X191694750Y-104597500D01*
X191670858Y-104596326D01*
X191647197Y-104592816D01*
X191623993Y-104587004D01*
X191601471Y-104578946D01*
X191579847Y-104568718D01*
X191559330Y-104556421D01*
X191540117Y-104542171D01*
X191522393Y-104526107D01*
X191506329Y-104508383D01*
X191492079Y-104489170D01*
X191479782Y-104468653D01*
X191469554Y-104447029D01*
X191461496Y-104424507D01*
X191455684Y-104401303D01*
X191452174Y-104377642D01*
X191451000Y-104353750D01*
X191451000Y-103866250D01*
X191452174Y-103842358D01*
X191455684Y-103818697D01*
X191461496Y-103795493D01*
X191469554Y-103772971D01*
X191479782Y-103751347D01*
X191492079Y-103730830D01*
X191506329Y-103711617D01*
X191522393Y-103693893D01*
X191540117Y-103677829D01*
X191559330Y-103663579D01*
X191579847Y-103651282D01*
X191601471Y-103641054D01*
X191623993Y-103632996D01*
X191647197Y-103627184D01*
X191670858Y-103623674D01*
X191694750Y-103622500D01*
X192607250Y-103622500D01*
X192631142Y-103623674D01*
X192631142Y-103623674D01*
G37*
D15*
X192151000Y-104110000D03*
D16*
X169539000Y-103065000D03*
X170339000Y-103065000D03*
X171139000Y-103065000D03*
X171939000Y-103065000D03*
X172739000Y-103065000D03*
X173539000Y-103065000D03*
X174339000Y-103065000D03*
X175139000Y-103065000D03*
D17*
X176589000Y-104515000D03*
X176589000Y-105315000D03*
X176589000Y-106115000D03*
X176589000Y-106915000D03*
X176589000Y-107715000D03*
X176589000Y-108515000D03*
X176589000Y-109315000D03*
X176589000Y-110115000D03*
D16*
X175139000Y-111565000D03*
X174339000Y-111565000D03*
X173539000Y-111565000D03*
X172739000Y-111565000D03*
X171939000Y-111565000D03*
X171139000Y-111565000D03*
X170339000Y-111565000D03*
X169539000Y-111565000D03*
D17*
X168089000Y-110115000D03*
X168089000Y-109315000D03*
X168089000Y-108515000D03*
X168089000Y-107715000D03*
X168089000Y-106915000D03*
X168089000Y-106115000D03*
X168089000Y-105315000D03*
X168089000Y-104515000D03*
D14*
G36*
X177137142Y-100732674D02*
G01*
X177160803Y-100736184D01*
X177184007Y-100741996D01*
X177206529Y-100750054D01*
X177228153Y-100760282D01*
X177248670Y-100772579D01*
X177267883Y-100786829D01*
X177285607Y-100802893D01*
X177301671Y-100820617D01*
X177315921Y-100839830D01*
X177328218Y-100860347D01*
X177338446Y-100881971D01*
X177346504Y-100904493D01*
X177352316Y-100927697D01*
X177355826Y-100951358D01*
X177357000Y-100975250D01*
X177357000Y-101462750D01*
X177355826Y-101486642D01*
X177352316Y-101510303D01*
X177346504Y-101533507D01*
X177338446Y-101556029D01*
X177328218Y-101577653D01*
X177315921Y-101598170D01*
X177301671Y-101617383D01*
X177285607Y-101635107D01*
X177267883Y-101651171D01*
X177248670Y-101665421D01*
X177228153Y-101677718D01*
X177206529Y-101687946D01*
X177184007Y-101696004D01*
X177160803Y-101701816D01*
X177137142Y-101705326D01*
X177113250Y-101706500D01*
X176200750Y-101706500D01*
X176176858Y-101705326D01*
X176153197Y-101701816D01*
X176129993Y-101696004D01*
X176107471Y-101687946D01*
X176085847Y-101677718D01*
X176065330Y-101665421D01*
X176046117Y-101651171D01*
X176028393Y-101635107D01*
X176012329Y-101617383D01*
X175998079Y-101598170D01*
X175985782Y-101577653D01*
X175975554Y-101556029D01*
X175967496Y-101533507D01*
X175961684Y-101510303D01*
X175958174Y-101486642D01*
X175957000Y-101462750D01*
X175957000Y-100975250D01*
X175958174Y-100951358D01*
X175961684Y-100927697D01*
X175967496Y-100904493D01*
X175975554Y-100881971D01*
X175985782Y-100860347D01*
X175998079Y-100839830D01*
X176012329Y-100820617D01*
X176028393Y-100802893D01*
X176046117Y-100786829D01*
X176065330Y-100772579D01*
X176085847Y-100760282D01*
X176107471Y-100750054D01*
X176129993Y-100741996D01*
X176153197Y-100736184D01*
X176176858Y-100732674D01*
X176200750Y-100731500D01*
X177113250Y-100731500D01*
X177137142Y-100732674D01*
X177137142Y-100732674D01*
G37*
D15*
X176657000Y-101219000D03*
D14*
G36*
X177137142Y-98857674D02*
G01*
X177160803Y-98861184D01*
X177184007Y-98866996D01*
X177206529Y-98875054D01*
X177228153Y-98885282D01*
X177248670Y-98897579D01*
X177267883Y-98911829D01*
X177285607Y-98927893D01*
X177301671Y-98945617D01*
X177315921Y-98964830D01*
X177328218Y-98985347D01*
X177338446Y-99006971D01*
X177346504Y-99029493D01*
X177352316Y-99052697D01*
X177355826Y-99076358D01*
X177357000Y-99100250D01*
X177357000Y-99587750D01*
X177355826Y-99611642D01*
X177352316Y-99635303D01*
X177346504Y-99658507D01*
X177338446Y-99681029D01*
X177328218Y-99702653D01*
X177315921Y-99723170D01*
X177301671Y-99742383D01*
X177285607Y-99760107D01*
X177267883Y-99776171D01*
X177248670Y-99790421D01*
X177228153Y-99802718D01*
X177206529Y-99812946D01*
X177184007Y-99821004D01*
X177160803Y-99826816D01*
X177137142Y-99830326D01*
X177113250Y-99831500D01*
X176200750Y-99831500D01*
X176176858Y-99830326D01*
X176153197Y-99826816D01*
X176129993Y-99821004D01*
X176107471Y-99812946D01*
X176085847Y-99802718D01*
X176065330Y-99790421D01*
X176046117Y-99776171D01*
X176028393Y-99760107D01*
X176012329Y-99742383D01*
X175998079Y-99723170D01*
X175985782Y-99702653D01*
X175975554Y-99681029D01*
X175967496Y-99658507D01*
X175961684Y-99635303D01*
X175958174Y-99611642D01*
X175957000Y-99587750D01*
X175957000Y-99100250D01*
X175958174Y-99076358D01*
X175961684Y-99052697D01*
X175967496Y-99029493D01*
X175975554Y-99006971D01*
X175985782Y-98985347D01*
X175998079Y-98964830D01*
X176012329Y-98945617D01*
X176028393Y-98927893D01*
X176046117Y-98911829D01*
X176065330Y-98897579D01*
X176085847Y-98885282D01*
X176107471Y-98875054D01*
X176129993Y-98866996D01*
X176153197Y-98861184D01*
X176176858Y-98857674D01*
X176200750Y-98856500D01*
X177113250Y-98856500D01*
X177137142Y-98857674D01*
X177137142Y-98857674D01*
G37*
D15*
X176657000Y-99344000D03*
D14*
G36*
X166469142Y-107893174D02*
G01*
X166492803Y-107896684D01*
X166516007Y-107902496D01*
X166538529Y-107910554D01*
X166560153Y-107920782D01*
X166580670Y-107933079D01*
X166599883Y-107947329D01*
X166617607Y-107963393D01*
X166633671Y-107981117D01*
X166647921Y-108000330D01*
X166660218Y-108020847D01*
X166670446Y-108042471D01*
X166678504Y-108064993D01*
X166684316Y-108088197D01*
X166687826Y-108111858D01*
X166689000Y-108135750D01*
X166689000Y-108623250D01*
X166687826Y-108647142D01*
X166684316Y-108670803D01*
X166678504Y-108694007D01*
X166670446Y-108716529D01*
X166660218Y-108738153D01*
X166647921Y-108758670D01*
X166633671Y-108777883D01*
X166617607Y-108795607D01*
X166599883Y-108811671D01*
X166580670Y-108825921D01*
X166560153Y-108838218D01*
X166538529Y-108848446D01*
X166516007Y-108856504D01*
X166492803Y-108862316D01*
X166469142Y-108865826D01*
X166445250Y-108867000D01*
X165532750Y-108867000D01*
X165508858Y-108865826D01*
X165485197Y-108862316D01*
X165461993Y-108856504D01*
X165439471Y-108848446D01*
X165417847Y-108838218D01*
X165397330Y-108825921D01*
X165378117Y-108811671D01*
X165360393Y-108795607D01*
X165344329Y-108777883D01*
X165330079Y-108758670D01*
X165317782Y-108738153D01*
X165307554Y-108716529D01*
X165299496Y-108694007D01*
X165293684Y-108670803D01*
X165290174Y-108647142D01*
X165289000Y-108623250D01*
X165289000Y-108135750D01*
X165290174Y-108111858D01*
X165293684Y-108088197D01*
X165299496Y-108064993D01*
X165307554Y-108042471D01*
X165317782Y-108020847D01*
X165330079Y-108000330D01*
X165344329Y-107981117D01*
X165360393Y-107963393D01*
X165378117Y-107947329D01*
X165397330Y-107933079D01*
X165417847Y-107920782D01*
X165439471Y-107910554D01*
X165461993Y-107902496D01*
X165485197Y-107896684D01*
X165508858Y-107893174D01*
X165532750Y-107892000D01*
X166445250Y-107892000D01*
X166469142Y-107893174D01*
X166469142Y-107893174D01*
G37*
D15*
X165989000Y-108379500D03*
D14*
G36*
X166469142Y-106018174D02*
G01*
X166492803Y-106021684D01*
X166516007Y-106027496D01*
X166538529Y-106035554D01*
X166560153Y-106045782D01*
X166580670Y-106058079D01*
X166599883Y-106072329D01*
X166617607Y-106088393D01*
X166633671Y-106106117D01*
X166647921Y-106125330D01*
X166660218Y-106145847D01*
X166670446Y-106167471D01*
X166678504Y-106189993D01*
X166684316Y-106213197D01*
X166687826Y-106236858D01*
X166689000Y-106260750D01*
X166689000Y-106748250D01*
X166687826Y-106772142D01*
X166684316Y-106795803D01*
X166678504Y-106819007D01*
X166670446Y-106841529D01*
X166660218Y-106863153D01*
X166647921Y-106883670D01*
X166633671Y-106902883D01*
X166617607Y-106920607D01*
X166599883Y-106936671D01*
X166580670Y-106950921D01*
X166560153Y-106963218D01*
X166538529Y-106973446D01*
X166516007Y-106981504D01*
X166492803Y-106987316D01*
X166469142Y-106990826D01*
X166445250Y-106992000D01*
X165532750Y-106992000D01*
X165508858Y-106990826D01*
X165485197Y-106987316D01*
X165461993Y-106981504D01*
X165439471Y-106973446D01*
X165417847Y-106963218D01*
X165397330Y-106950921D01*
X165378117Y-106936671D01*
X165360393Y-106920607D01*
X165344329Y-106902883D01*
X165330079Y-106883670D01*
X165317782Y-106863153D01*
X165307554Y-106841529D01*
X165299496Y-106819007D01*
X165293684Y-106795803D01*
X165290174Y-106772142D01*
X165289000Y-106748250D01*
X165289000Y-106260750D01*
X165290174Y-106236858D01*
X165293684Y-106213197D01*
X165299496Y-106189993D01*
X165307554Y-106167471D01*
X165317782Y-106145847D01*
X165330079Y-106125330D01*
X165344329Y-106106117D01*
X165360393Y-106088393D01*
X165378117Y-106072329D01*
X165397330Y-106058079D01*
X165417847Y-106045782D01*
X165439471Y-106035554D01*
X165461993Y-106027496D01*
X165485197Y-106021684D01*
X165508858Y-106018174D01*
X165532750Y-106017000D01*
X166445250Y-106017000D01*
X166469142Y-106018174D01*
X166469142Y-106018174D01*
G37*
D15*
X165989000Y-106504500D03*
D18*
X190612000Y-98537000D03*
D19*
X171139000Y-102015000D02*
X171139000Y-103065000D01*
X172747510Y-100406490D02*
X171139000Y-102015000D01*
X177368490Y-100406490D02*
X172747510Y-100406490D01*
X181007001Y-104045001D02*
X177368490Y-100406490D01*
X184524003Y-104045001D02*
X181007001Y-104045001D01*
X185325001Y-104845999D02*
X184524003Y-104045001D01*
X184421000Y-107068000D02*
X185325001Y-106163999D01*
X185325001Y-106163999D02*
X185325001Y-104845999D01*
X178943000Y-107068000D02*
X184421000Y-107068000D01*
X180693797Y-96739573D02*
X181771427Y-96739573D01*
X175614427Y-96739573D02*
X180693797Y-96739573D01*
X170339000Y-102015000D02*
X175614427Y-96739573D01*
X170339000Y-103065000D02*
X170339000Y-102015000D01*
X183875777Y-93557593D02*
X184953407Y-93557593D01*
X178159997Y-93557593D02*
X183875777Y-93557593D01*
X169539000Y-102178590D02*
X178159997Y-93557593D01*
X169539000Y-103065000D02*
X169539000Y-102178590D01*
X199175001Y-98718001D02*
X200025000Y-99568000D01*
X196469000Y-96012000D02*
X199175001Y-98718001D01*
X195945000Y-96012000D02*
X196469000Y-96012000D01*
X197485000Y-99568000D02*
X200025000Y-102108000D01*
X195945000Y-99568000D02*
X197485000Y-99568000D01*
X198501000Y-103124000D02*
X200025000Y-104648000D01*
X195945000Y-103124000D02*
X198501000Y-103124000D01*
X199517000Y-106680000D02*
X200025000Y-107188000D01*
X195945000Y-106680000D02*
X199517000Y-106680000D01*
X199644000Y-96994000D02*
X199644000Y-97536000D01*
X195995000Y-92456000D02*
X200025000Y-96486000D01*
X195945000Y-92456000D02*
X195995000Y-92456000D01*
X171939000Y-102015000D02*
X171939000Y-103065000D01*
X172735000Y-101219000D02*
X171939000Y-102015000D01*
X176657000Y-101219000D02*
X172735000Y-101219000D01*
X183235011Y-104495011D02*
X184150000Y-105410000D01*
X180820601Y-104495011D02*
X183235011Y-104495011D01*
X176657000Y-101219000D02*
X177544590Y-101219000D01*
X177544590Y-101219000D02*
X180820601Y-104495011D01*
X176589000Y-110640000D02*
X176589000Y-110115000D01*
X177738981Y-111789981D02*
X176589000Y-110640000D01*
X184753609Y-111789981D02*
X177738981Y-111789981D01*
X189231505Y-107312085D02*
X184753609Y-111789981D01*
X184150000Y-102870000D02*
X185514999Y-101505001D01*
X185514999Y-101505001D02*
X185514999Y-99765999D01*
X185514999Y-99765999D02*
X186125999Y-99154999D01*
X187254001Y-99154999D02*
X189231505Y-101132503D01*
X186125999Y-99154999D02*
X187254001Y-99154999D01*
X189231505Y-101132503D02*
X189231505Y-107312085D01*
X168089000Y-107715000D02*
X166780500Y-107715000D01*
X166780500Y-107715000D02*
X166116000Y-108379500D01*
X194720001Y-96236999D02*
X193995000Y-96962000D01*
X194720001Y-94131001D02*
X194720001Y-96236999D01*
X193995000Y-93406000D02*
X194720001Y-94131001D01*
X194720001Y-99792999D02*
X193995000Y-100518000D01*
X194720001Y-97687001D02*
X194720001Y-99792999D01*
X193995000Y-96962000D02*
X194720001Y-97687001D01*
X193945000Y-96962000D02*
X193995000Y-96962000D01*
X194720001Y-103348999D02*
X193995000Y-104074000D01*
X194720001Y-101243001D02*
X194720001Y-103348999D01*
X193995000Y-100518000D02*
X194720001Y-101243001D01*
X193945000Y-100518000D02*
X193995000Y-100518000D01*
X193995000Y-107630000D02*
X193945000Y-107630000D01*
X194720001Y-106904999D02*
X193995000Y-107630000D01*
X194720001Y-104799001D02*
X194720001Y-106904999D01*
X193995000Y-104074000D02*
X194720001Y-104799001D01*
X193945000Y-104074000D02*
X193995000Y-104074000D01*
X199175001Y-91098001D02*
X200025000Y-91948000D01*
X195867997Y-91098001D02*
X199175001Y-91098001D01*
X194645000Y-92320998D02*
X195867997Y-91098001D01*
X194645000Y-92756000D02*
X194645000Y-92320998D01*
X193995000Y-93406000D02*
X194645000Y-92756000D01*
X193945000Y-93406000D02*
X193995000Y-93406000D01*
X193895000Y-107630000D02*
X193067000Y-108458000D01*
X193945000Y-107630000D02*
X193895000Y-107630000D01*
X193067000Y-108458000D02*
X191946910Y-108458000D01*
X185897880Y-114507030D02*
X173358209Y-114507029D01*
X191946910Y-108458000D02*
X185897880Y-114507030D01*
X173358209Y-114507029D02*
X171541181Y-112690001D01*
X166116000Y-108967000D02*
X166116000Y-108379500D01*
X166116000Y-109802002D02*
X166116000Y-108967000D01*
X169003999Y-112690001D02*
X166116000Y-109802002D01*
X171541181Y-112690001D02*
X169003999Y-112690001D01*
X179464761Y-108155001D02*
X180030001Y-107589761D01*
X178421239Y-108155001D02*
X179464761Y-108155001D01*
X177855999Y-107589761D02*
X178421239Y-108155001D01*
X177855999Y-107131999D02*
X177855999Y-107589761D01*
X176589000Y-106915000D02*
X177639000Y-106915000D01*
X177639000Y-106915000D02*
X177855999Y-107131999D01*
X185840001Y-106259999D02*
X186690000Y-105410000D01*
X185840001Y-106285409D02*
X185840001Y-106259999D01*
X184535649Y-107589761D02*
X185840001Y-106285409D01*
X180030001Y-107589761D02*
X184535649Y-107589761D01*
X168089000Y-106915000D02*
X166526500Y-106915000D01*
X166526500Y-106915000D02*
X166116000Y-106504500D01*
X170053002Y-106915000D02*
X169139000Y-106915000D01*
X169139000Y-106915000D02*
X168089000Y-106915000D01*
X176589000Y-109315000D02*
X172453002Y-109315000D01*
X172453002Y-109315000D02*
X170053002Y-106915000D01*
X200493999Y-94146001D02*
X199644000Y-94996000D01*
X188543833Y-89967167D02*
X187781834Y-90729166D01*
X199783169Y-89967167D02*
X188543833Y-89967167D01*
X201200001Y-91383999D02*
X199783169Y-89967167D01*
X201200001Y-93312999D02*
X201200001Y-91383999D01*
X200025000Y-94488000D02*
X201200001Y-93312999D01*
X186704204Y-90729166D02*
X187781834Y-90729166D01*
X180214832Y-90729166D02*
X186704204Y-90729166D01*
X166116000Y-104827998D02*
X180214832Y-90729166D01*
X166116000Y-106504500D02*
X166116000Y-104827998D01*
X187781834Y-91806796D02*
X187781834Y-90729166D01*
X187781834Y-92337928D02*
X187781834Y-91806796D01*
X181638763Y-98480999D02*
X187781834Y-92337928D01*
X177520001Y-98480999D02*
X181638763Y-98480999D01*
X176657000Y-99344000D02*
X177520001Y-98480999D01*
X187792592Y-100330000D02*
X186690000Y-100330000D01*
X188781495Y-101318903D02*
X187792592Y-100330000D01*
X188781495Y-107125685D02*
X188781495Y-101318903D01*
X176589000Y-109315000D02*
X177639000Y-109315000D01*
X177639000Y-109315000D02*
X179451000Y-111127000D01*
X179451000Y-111127000D02*
X179453000Y-111127000D01*
X179453000Y-111127000D02*
X179665971Y-111339971D01*
X179665971Y-111339971D02*
X184567209Y-111339971D01*
X184567209Y-111339971D02*
X188781495Y-107125685D01*
X174339000Y-111565000D02*
X174339000Y-112615000D01*
X174339000Y-112615000D02*
X174414001Y-112690001D01*
X190612000Y-98537000D02*
X192151000Y-96998000D01*
X190131525Y-99017475D02*
X190612000Y-98537000D01*
X190131525Y-107727745D02*
X190131525Y-99017475D01*
X185169269Y-112690001D02*
X190131525Y-107727745D01*
X175218999Y-112690001D02*
X185169269Y-112690001D01*
X175218999Y-112690001D02*
X176107999Y-112690001D01*
X174414001Y-112690001D02*
X175218999Y-112690001D01*
X184940009Y-112239991D02*
X189681515Y-107498485D01*
X189681515Y-95911485D02*
X189681515Y-95911485D01*
X189681515Y-95911485D02*
X192151000Y-93442000D01*
X175139000Y-111766000D02*
X175612991Y-112239991D01*
X175139000Y-111565000D02*
X175139000Y-111766000D01*
X175612991Y-112239991D02*
X177263991Y-112239991D01*
X177263991Y-112239991D02*
X184940009Y-112239991D01*
X189681515Y-102432515D02*
X189681515Y-95911485D01*
X189681515Y-100946103D02*
X189681515Y-103067515D01*
X187440402Y-98704990D02*
X189681515Y-100946103D01*
X184675010Y-98704990D02*
X187440402Y-98704990D01*
X184150000Y-99230000D02*
X184675010Y-98704990D01*
X184150000Y-100330000D02*
X184150000Y-99230000D01*
X189681515Y-107498485D02*
X189681515Y-103067515D01*
X189681515Y-103067515D02*
X189681515Y-102432515D01*
X191594763Y-108173737D02*
X192151000Y-107617500D01*
X171939000Y-111565000D02*
X171939000Y-112451410D01*
X185711480Y-114057020D02*
X187603250Y-112165250D01*
X173544610Y-114057020D02*
X185711480Y-114057020D01*
X173253795Y-113766205D02*
X173544610Y-114057020D01*
X171939000Y-112451410D02*
X173253795Y-113766205D01*
X173253795Y-113766205D02*
X173544609Y-114057019D01*
X185711481Y-114057019D02*
X187603250Y-112165250D01*
X187603250Y-112165250D02*
X191594763Y-108173737D01*
X191031545Y-105229455D02*
X192151000Y-104110000D01*
X191031545Y-108100545D02*
X191031545Y-105229455D01*
X185525081Y-113607009D02*
X191031545Y-108100545D01*
X185525080Y-113607010D02*
X186650045Y-112482045D01*
X173731010Y-113607010D02*
X185525080Y-113607010D01*
X172739000Y-111565000D02*
X172739000Y-112615000D01*
X172739000Y-112615000D02*
X173731010Y-113607010D01*
X185525081Y-113607009D02*
X173731009Y-113607009D01*
X186650045Y-112482045D02*
X185525081Y-113607009D01*
X190581535Y-102123465D02*
X192151000Y-100554000D01*
X173539000Y-112615000D02*
X174080999Y-113156999D01*
X173539000Y-111565000D02*
X173539000Y-112615000D01*
X174080999Y-113156999D02*
X184531000Y-113157000D01*
X190581535Y-107914145D02*
X190581535Y-102123465D01*
X184531000Y-113157000D02*
X184547989Y-113140011D01*
X184547989Y-113140011D02*
X185355669Y-113140011D01*
X185355669Y-113140011D02*
X190581535Y-107914145D01*
X193932500Y-105742500D02*
X193945000Y-105730000D01*
X192151000Y-105742500D02*
X193932500Y-105742500D01*
X193884000Y-102235000D02*
X193945000Y-102174000D01*
X192151000Y-102235000D02*
X193884000Y-102235000D01*
X193884000Y-98679000D02*
X193945000Y-98618000D01*
X192151000Y-98679000D02*
X193884000Y-98679000D01*
X193884000Y-95123000D02*
X193945000Y-95062000D01*
X192151000Y-95123000D02*
X193884000Y-95123000D01*
X193884000Y-91567000D02*
X193945000Y-91506000D01*
X192151000Y-91567000D02*
X193884000Y-91567000D01*
M02*
