G04 #@! TF.GenerationSoftware,KiCad,Pcbnew,(5.1.4)-1*
G04 #@! TF.CreationDate,2020-04-18T17:13:35+10:00*
G04 #@! TF.ProjectId,c64-nes-adapter,6336342d-6e65-4732-9d61-646170746572,rev?*
G04 #@! TF.SameCoordinates,Original*
G04 #@! TF.FileFunction,Legend,Top*
G04 #@! TF.FilePolarity,Positive*
%FSLAX46Y46*%
G04 Gerber Fmt 4.6, Leading zero omitted, Abs format (unit mm)*
G04 Created by KiCad (PCBNEW (5.1.4)-1) date 2020-04-18 17:13:35*
%MOMM*%
%LPD*%
G04 APERTURE LIST*
%ADD10C,0.150000*%
%ADD11C,0.120000*%
G04 APERTURE END LIST*
D10*
X202469761Y-91828952D02*
X202374523Y-91781333D01*
X202326904Y-91733714D01*
X202279285Y-91638476D01*
X202279285Y-91590857D01*
X202326904Y-91495619D01*
X202374523Y-91448000D01*
X202469761Y-91400380D01*
X202660238Y-91400380D01*
X202755476Y-91448000D01*
X202803095Y-91495619D01*
X202850714Y-91590857D01*
X202850714Y-91638476D01*
X202803095Y-91733714D01*
X202755476Y-91781333D01*
X202660238Y-91828952D01*
X202469761Y-91828952D01*
X202374523Y-91876571D01*
X202326904Y-91924190D01*
X202279285Y-92019428D01*
X202279285Y-92209904D01*
X202326904Y-92305142D01*
X202374523Y-92352761D01*
X202469761Y-92400380D01*
X202660238Y-92400380D01*
X202755476Y-92352761D01*
X202803095Y-92305142D01*
X202850714Y-92209904D01*
X202850714Y-92019428D01*
X202803095Y-91924190D01*
X202755476Y-91876571D01*
X202660238Y-91828952D01*
X202231666Y-93940380D02*
X202898333Y-93940380D01*
X202469761Y-94940380D01*
X202755476Y-96480380D02*
X202565000Y-96480380D01*
X202469761Y-96528000D01*
X202422142Y-96575619D01*
X202326904Y-96718476D01*
X202279285Y-96908952D01*
X202279285Y-97289904D01*
X202326904Y-97385142D01*
X202374523Y-97432761D01*
X202469761Y-97480380D01*
X202660238Y-97480380D01*
X202755476Y-97432761D01*
X202803095Y-97385142D01*
X202850714Y-97289904D01*
X202850714Y-97051809D01*
X202803095Y-96956571D01*
X202755476Y-96908952D01*
X202660238Y-96861333D01*
X202469761Y-96861333D01*
X202374523Y-96908952D01*
X202326904Y-96956571D01*
X202279285Y-97051809D01*
X202755476Y-99353714D02*
X202755476Y-100020380D01*
X202517380Y-98972761D02*
X202279285Y-99687047D01*
X202898333Y-99687047D01*
X202231666Y-101560380D02*
X202850714Y-101560380D01*
X202517380Y-101941333D01*
X202660238Y-101941333D01*
X202755476Y-101988952D01*
X202803095Y-102036571D01*
X202850714Y-102131809D01*
X202850714Y-102369904D01*
X202803095Y-102465142D01*
X202755476Y-102512761D01*
X202660238Y-102560380D01*
X202374523Y-102560380D01*
X202279285Y-102512761D01*
X202231666Y-102465142D01*
X202279285Y-104195619D02*
X202326904Y-104148000D01*
X202422142Y-104100380D01*
X202660238Y-104100380D01*
X202755476Y-104148000D01*
X202803095Y-104195619D01*
X202850714Y-104290857D01*
X202850714Y-104386095D01*
X202803095Y-104528952D01*
X202231666Y-105100380D01*
X202850714Y-105100380D01*
X202850714Y-107640380D02*
X202279285Y-107640380D01*
X202565000Y-107640380D02*
X202565000Y-106640380D01*
X202469761Y-106783238D01*
X202374523Y-106878476D01*
X202279285Y-106926095D01*
X192754809Y-114117380D02*
X192754809Y-113117380D01*
X192754809Y-113498333D02*
X192850047Y-113450714D01*
X193040523Y-113450714D01*
X193135761Y-113498333D01*
X193183380Y-113545952D01*
X193231000Y-113641190D01*
X193231000Y-113926904D01*
X193183380Y-114022142D01*
X193135761Y-114069761D01*
X193040523Y-114117380D01*
X192850047Y-114117380D01*
X192754809Y-114069761D01*
X193802428Y-114117380D02*
X193707190Y-114069761D01*
X193659571Y-114022142D01*
X193611952Y-113926904D01*
X193611952Y-113641190D01*
X193659571Y-113545952D01*
X193707190Y-113498333D01*
X193802428Y-113450714D01*
X193945285Y-113450714D01*
X194040523Y-113498333D01*
X194088142Y-113545952D01*
X194135761Y-113641190D01*
X194135761Y-113926904D01*
X194088142Y-114022142D01*
X194040523Y-114069761D01*
X193945285Y-114117380D01*
X193802428Y-114117380D01*
X194992904Y-114117380D02*
X194992904Y-113593571D01*
X194945285Y-113498333D01*
X194850047Y-113450714D01*
X194659571Y-113450714D01*
X194564333Y-113498333D01*
X194992904Y-114069761D02*
X194897666Y-114117380D01*
X194659571Y-114117380D01*
X194564333Y-114069761D01*
X194516714Y-113974523D01*
X194516714Y-113879285D01*
X194564333Y-113784047D01*
X194659571Y-113736428D01*
X194897666Y-113736428D01*
X194992904Y-113688809D01*
X195469095Y-114117380D02*
X195469095Y-113450714D01*
X195469095Y-113641190D02*
X195516714Y-113545952D01*
X195564333Y-113498333D01*
X195659571Y-113450714D01*
X195754809Y-113450714D01*
X196516714Y-114117380D02*
X196516714Y-113117380D01*
X196516714Y-114069761D02*
X196421476Y-114117380D01*
X196231000Y-114117380D01*
X196135761Y-114069761D01*
X196088142Y-114022142D01*
X196040523Y-113926904D01*
X196040523Y-113641190D01*
X196088142Y-113545952D01*
X196135761Y-113498333D01*
X196231000Y-113450714D01*
X196421476Y-113450714D01*
X196516714Y-113498333D01*
X197754809Y-114117380D02*
X197754809Y-113450714D01*
X197754809Y-113641190D02*
X197802428Y-113545952D01*
X197850047Y-113498333D01*
X197945285Y-113450714D01*
X198040523Y-113450714D01*
X198754809Y-114069761D02*
X198659571Y-114117380D01*
X198469095Y-114117380D01*
X198373857Y-114069761D01*
X198326238Y-113974523D01*
X198326238Y-113593571D01*
X198373857Y-113498333D01*
X198469095Y-113450714D01*
X198659571Y-113450714D01*
X198754809Y-113498333D01*
X198802428Y-113593571D01*
X198802428Y-113688809D01*
X198326238Y-113784047D01*
X199135761Y-113450714D02*
X199373857Y-114117380D01*
X199611952Y-113450714D01*
X199992904Y-114022142D02*
X200040523Y-114069761D01*
X199992904Y-114117380D01*
X199945285Y-114069761D01*
X199992904Y-114022142D01*
X199992904Y-114117380D01*
X201754809Y-114117380D02*
X201183380Y-114117380D01*
X201469095Y-114117380D02*
X201469095Y-113117380D01*
X201373857Y-113260238D01*
X201278619Y-113355476D01*
X201183380Y-113403095D01*
X188102357Y-110704761D02*
X188197595Y-110752380D01*
X188388071Y-110752380D01*
X188483309Y-110704761D01*
X188530928Y-110609523D01*
X188530928Y-110561904D01*
X188483309Y-110466666D01*
X188388071Y-110419047D01*
X188245214Y-110419047D01*
X188149976Y-110371428D01*
X188102357Y-110276190D01*
X188102357Y-110228571D01*
X188149976Y-110133333D01*
X188245214Y-110085714D01*
X188388071Y-110085714D01*
X188483309Y-110133333D01*
X188959500Y-110752380D02*
X188959500Y-110085714D01*
X188959500Y-109752380D02*
X188911880Y-109800000D01*
X188959500Y-109847619D01*
X189007119Y-109800000D01*
X188959500Y-109752380D01*
X188959500Y-109847619D01*
X189578547Y-110752380D02*
X189483309Y-110704761D01*
X189435690Y-110609523D01*
X189435690Y-109752380D01*
X189864261Y-110085714D02*
X190102357Y-110752380D01*
X190340452Y-110085714D01*
X191102357Y-110704761D02*
X191007119Y-110752380D01*
X190816642Y-110752380D01*
X190721404Y-110704761D01*
X190673785Y-110609523D01*
X190673785Y-110228571D01*
X190721404Y-110133333D01*
X190816642Y-110085714D01*
X191007119Y-110085714D01*
X191102357Y-110133333D01*
X191149976Y-110228571D01*
X191149976Y-110323809D01*
X190673785Y-110419047D01*
X191530928Y-110704761D02*
X191626166Y-110752380D01*
X191816642Y-110752380D01*
X191911880Y-110704761D01*
X191959500Y-110609523D01*
X191959500Y-110561904D01*
X191911880Y-110466666D01*
X191816642Y-110419047D01*
X191673785Y-110419047D01*
X191578547Y-110371428D01*
X191530928Y-110276190D01*
X191530928Y-110228571D01*
X191578547Y-110133333D01*
X191673785Y-110085714D01*
X191816642Y-110085714D01*
X191911880Y-110133333D01*
X192245214Y-110085714D02*
X192626166Y-110085714D01*
X192388071Y-109752380D02*
X192388071Y-110609523D01*
X192435690Y-110704761D01*
X192530928Y-110752380D01*
X192626166Y-110752380D01*
X192959500Y-110752380D02*
X192959500Y-110085714D01*
X192959500Y-110276190D02*
X193007119Y-110180952D01*
X193054738Y-110133333D01*
X193149976Y-110085714D01*
X193245214Y-110085714D01*
X193721404Y-110752380D02*
X193626166Y-110704761D01*
X193578547Y-110657142D01*
X193530928Y-110561904D01*
X193530928Y-110276190D01*
X193578547Y-110180952D01*
X193626166Y-110133333D01*
X193721404Y-110085714D01*
X193864261Y-110085714D01*
X193959500Y-110133333D01*
X194007119Y-110180952D01*
X194054738Y-110276190D01*
X194054738Y-110561904D01*
X194007119Y-110657142D01*
X193959500Y-110704761D01*
X193864261Y-110752380D01*
X193721404Y-110752380D01*
X194483309Y-110085714D02*
X194483309Y-110752380D01*
X194483309Y-110180952D02*
X194530928Y-110133333D01*
X194626166Y-110085714D01*
X194769023Y-110085714D01*
X194864261Y-110133333D01*
X194911880Y-110228571D01*
X194911880Y-110752380D01*
X196149976Y-110085714D02*
X196149976Y-110752380D01*
X196149976Y-110180952D02*
X196197595Y-110133333D01*
X196292833Y-110085714D01*
X196435690Y-110085714D01*
X196530928Y-110133333D01*
X196578547Y-110228571D01*
X196578547Y-110752380D01*
X197435690Y-110704761D02*
X197340452Y-110752380D01*
X197149976Y-110752380D01*
X197054738Y-110704761D01*
X197007119Y-110609523D01*
X197007119Y-110228571D01*
X197054738Y-110133333D01*
X197149976Y-110085714D01*
X197340452Y-110085714D01*
X197435690Y-110133333D01*
X197483309Y-110228571D01*
X197483309Y-110323809D01*
X197007119Y-110419047D01*
X197864261Y-110704761D02*
X197959500Y-110752380D01*
X198149976Y-110752380D01*
X198245214Y-110704761D01*
X198292833Y-110609523D01*
X198292833Y-110561904D01*
X198245214Y-110466666D01*
X198149976Y-110419047D01*
X198007119Y-110419047D01*
X197911880Y-110371428D01*
X197864261Y-110276190D01*
X197864261Y-110228571D01*
X197911880Y-110133333D01*
X198007119Y-110085714D01*
X198149976Y-110085714D01*
X198245214Y-110133333D01*
X199483309Y-110085714D02*
X199483309Y-111085714D01*
X199483309Y-110133333D02*
X199578547Y-110085714D01*
X199769023Y-110085714D01*
X199864261Y-110133333D01*
X199911880Y-110180952D01*
X199959500Y-110276190D01*
X199959500Y-110561904D01*
X199911880Y-110657142D01*
X199864261Y-110704761D01*
X199769023Y-110752380D01*
X199578547Y-110752380D01*
X199483309Y-110704761D01*
X200816642Y-110752380D02*
X200816642Y-110228571D01*
X200769023Y-110133333D01*
X200673785Y-110085714D01*
X200483309Y-110085714D01*
X200388071Y-110133333D01*
X200816642Y-110704761D02*
X200721404Y-110752380D01*
X200483309Y-110752380D01*
X200388071Y-110704761D01*
X200340452Y-110609523D01*
X200340452Y-110514285D01*
X200388071Y-110419047D01*
X200483309Y-110371428D01*
X200721404Y-110371428D01*
X200816642Y-110323809D01*
X201721404Y-110752380D02*
X201721404Y-109752380D01*
X201721404Y-110704761D02*
X201626166Y-110752380D01*
X201435690Y-110752380D01*
X201340452Y-110704761D01*
X201292833Y-110657142D01*
X201245214Y-110561904D01*
X201245214Y-110276190D01*
X201292833Y-110180952D01*
X201340452Y-110133333D01*
X201435690Y-110085714D01*
X201626166Y-110085714D01*
X201721404Y-110133333D01*
X184197595Y-111735714D02*
X184578547Y-111735714D01*
X184340452Y-111402380D02*
X184340452Y-112259523D01*
X184388071Y-112354761D01*
X184483309Y-112402380D01*
X184578547Y-112402380D01*
X185054738Y-112402380D02*
X184959500Y-112354761D01*
X184911880Y-112307142D01*
X184864261Y-112211904D01*
X184864261Y-111926190D01*
X184911880Y-111830952D01*
X184959500Y-111783333D01*
X185054738Y-111735714D01*
X185197595Y-111735714D01*
X185292833Y-111783333D01*
X185340452Y-111830952D01*
X185388071Y-111926190D01*
X185388071Y-112211904D01*
X185340452Y-112307142D01*
X185292833Y-112354761D01*
X185197595Y-112402380D01*
X185054738Y-112402380D01*
X187007119Y-112354761D02*
X186911880Y-112402380D01*
X186721404Y-112402380D01*
X186626166Y-112354761D01*
X186578547Y-112307142D01*
X186530928Y-112211904D01*
X186530928Y-111926190D01*
X186578547Y-111830952D01*
X186626166Y-111783333D01*
X186721404Y-111735714D01*
X186911880Y-111735714D01*
X187007119Y-111783333D01*
X187864261Y-111402380D02*
X187673785Y-111402380D01*
X187578547Y-111450000D01*
X187530928Y-111497619D01*
X187435690Y-111640476D01*
X187388071Y-111830952D01*
X187388071Y-112211904D01*
X187435690Y-112307142D01*
X187483309Y-112354761D01*
X187578547Y-112402380D01*
X187769023Y-112402380D01*
X187864261Y-112354761D01*
X187911880Y-112307142D01*
X187959500Y-112211904D01*
X187959500Y-111973809D01*
X187911880Y-111878571D01*
X187864261Y-111830952D01*
X187769023Y-111783333D01*
X187578547Y-111783333D01*
X187483309Y-111830952D01*
X187435690Y-111878571D01*
X187388071Y-111973809D01*
X188816642Y-111735714D02*
X188816642Y-112402380D01*
X188578547Y-111354761D02*
X188340452Y-112069047D01*
X188959500Y-112069047D01*
X190102357Y-111735714D02*
X190102357Y-112592857D01*
X190054738Y-112688095D01*
X189959500Y-112735714D01*
X189911880Y-112735714D01*
X190102357Y-111402380D02*
X190054738Y-111450000D01*
X190102357Y-111497619D01*
X190149976Y-111450000D01*
X190102357Y-111402380D01*
X190102357Y-111497619D01*
X190721404Y-112402380D02*
X190626166Y-112354761D01*
X190578547Y-112307142D01*
X190530928Y-112211904D01*
X190530928Y-111926190D01*
X190578547Y-111830952D01*
X190626166Y-111783333D01*
X190721404Y-111735714D01*
X190864261Y-111735714D01*
X190959500Y-111783333D01*
X191007119Y-111830952D01*
X191054738Y-111926190D01*
X191054738Y-112211904D01*
X191007119Y-112307142D01*
X190959500Y-112354761D01*
X190864261Y-112402380D01*
X190721404Y-112402380D01*
X191388071Y-111735714D02*
X191626166Y-112402380D01*
X191864261Y-111735714D02*
X191626166Y-112402380D01*
X191530928Y-112640476D01*
X191483309Y-112688095D01*
X191388071Y-112735714D01*
X192197595Y-112354761D02*
X192292833Y-112402380D01*
X192483309Y-112402380D01*
X192578547Y-112354761D01*
X192626166Y-112259523D01*
X192626166Y-112211904D01*
X192578547Y-112116666D01*
X192483309Y-112069047D01*
X192340452Y-112069047D01*
X192245214Y-112021428D01*
X192197595Y-111926190D01*
X192197595Y-111878571D01*
X192245214Y-111783333D01*
X192340452Y-111735714D01*
X192483309Y-111735714D01*
X192578547Y-111783333D01*
X192911880Y-111735714D02*
X193292833Y-111735714D01*
X193054738Y-111402380D02*
X193054738Y-112259523D01*
X193102357Y-112354761D01*
X193197595Y-112402380D01*
X193292833Y-112402380D01*
X193626166Y-112402380D02*
X193626166Y-111735714D01*
X193626166Y-111402380D02*
X193578547Y-111450000D01*
X193626166Y-111497619D01*
X193673785Y-111450000D01*
X193626166Y-111402380D01*
X193626166Y-111497619D01*
X194530928Y-112354761D02*
X194435690Y-112402380D01*
X194245214Y-112402380D01*
X194149976Y-112354761D01*
X194102357Y-112307142D01*
X194054738Y-112211904D01*
X194054738Y-111926190D01*
X194102357Y-111830952D01*
X194149976Y-111783333D01*
X194245214Y-111735714D01*
X194435690Y-111735714D01*
X194530928Y-111783333D01*
X194959500Y-112402380D02*
X194959500Y-111402380D01*
X195054738Y-112021428D02*
X195340452Y-112402380D01*
X195340452Y-111735714D02*
X194959500Y-112116666D01*
X196959500Y-112402380D02*
X196959500Y-111878571D01*
X196911880Y-111783333D01*
X196816642Y-111735714D01*
X196626166Y-111735714D01*
X196530928Y-111783333D01*
X196959500Y-112354761D02*
X196864261Y-112402380D01*
X196626166Y-112402380D01*
X196530928Y-112354761D01*
X196483309Y-112259523D01*
X196483309Y-112164285D01*
X196530928Y-112069047D01*
X196626166Y-112021428D01*
X196864261Y-112021428D01*
X196959500Y-111973809D01*
X197864261Y-112402380D02*
X197864261Y-111402380D01*
X197864261Y-112354761D02*
X197769023Y-112402380D01*
X197578547Y-112402380D01*
X197483309Y-112354761D01*
X197435690Y-112307142D01*
X197388071Y-112211904D01*
X197388071Y-111926190D01*
X197435690Y-111830952D01*
X197483309Y-111783333D01*
X197578547Y-111735714D01*
X197769023Y-111735714D01*
X197864261Y-111783333D01*
X198769023Y-112402380D02*
X198769023Y-111878571D01*
X198721404Y-111783333D01*
X198626166Y-111735714D01*
X198435690Y-111735714D01*
X198340452Y-111783333D01*
X198769023Y-112354761D02*
X198673785Y-112402380D01*
X198435690Y-112402380D01*
X198340452Y-112354761D01*
X198292833Y-112259523D01*
X198292833Y-112164285D01*
X198340452Y-112069047D01*
X198435690Y-112021428D01*
X198673785Y-112021428D01*
X198769023Y-111973809D01*
X199245214Y-111735714D02*
X199245214Y-112735714D01*
X199245214Y-111783333D02*
X199340452Y-111735714D01*
X199530928Y-111735714D01*
X199626166Y-111783333D01*
X199673785Y-111830952D01*
X199721404Y-111926190D01*
X199721404Y-112211904D01*
X199673785Y-112307142D01*
X199626166Y-112354761D01*
X199530928Y-112402380D01*
X199340452Y-112402380D01*
X199245214Y-112354761D01*
X200007119Y-111735714D02*
X200388071Y-111735714D01*
X200149976Y-111402380D02*
X200149976Y-112259523D01*
X200197595Y-112354761D01*
X200292833Y-112402380D01*
X200388071Y-112402380D01*
X201102357Y-112354761D02*
X201007119Y-112402380D01*
X200816642Y-112402380D01*
X200721404Y-112354761D01*
X200673785Y-112259523D01*
X200673785Y-111878571D01*
X200721404Y-111783333D01*
X200816642Y-111735714D01*
X201007119Y-111735714D01*
X201102357Y-111783333D01*
X201149976Y-111878571D01*
X201149976Y-111973809D01*
X200673785Y-112069047D01*
X201578547Y-112402380D02*
X201578547Y-111735714D01*
X201578547Y-111926190D02*
X201626166Y-111830952D01*
X201673785Y-111783333D01*
X201769023Y-111735714D01*
X201864261Y-111735714D01*
D11*
X201355000Y-90618000D02*
X198695000Y-90618000D01*
X201355000Y-105918000D02*
X201355000Y-90618000D01*
X198695000Y-105918000D02*
X198695000Y-90618000D01*
X201355000Y-105918000D02*
X198695000Y-105918000D01*
X201355000Y-107188000D02*
X201355000Y-108518000D01*
X201355000Y-108518000D02*
X200025000Y-108518000D01*
X182820000Y-99000000D02*
X184150000Y-99000000D01*
X182820000Y-100330000D02*
X182820000Y-99000000D01*
X185420000Y-99000000D02*
X188020000Y-99000000D01*
X185420000Y-101600000D02*
X185420000Y-99000000D01*
X182820000Y-101600000D02*
X185420000Y-101600000D01*
X188020000Y-99000000D02*
X188020000Y-106740000D01*
X182820000Y-101600000D02*
X182820000Y-106740000D01*
X182820000Y-106740000D02*
X188020000Y-106740000D01*
X195705000Y-94036000D02*
X195705000Y-93106000D01*
X195705000Y-90876000D02*
X195705000Y-91806000D01*
X195705000Y-90876000D02*
X193545000Y-90876000D01*
X195705000Y-94036000D02*
X194245000Y-94036000D01*
X195705000Y-97592000D02*
X195705000Y-96662000D01*
X195705000Y-94432000D02*
X195705000Y-95362000D01*
X195705000Y-94432000D02*
X193545000Y-94432000D01*
X195705000Y-97592000D02*
X194245000Y-97592000D01*
X195705000Y-101148000D02*
X195705000Y-100218000D01*
X195705000Y-97988000D02*
X195705000Y-98918000D01*
X195705000Y-97988000D02*
X193545000Y-97988000D01*
X195705000Y-101148000D02*
X194245000Y-101148000D01*
X195705000Y-104704000D02*
X195705000Y-103774000D01*
X195705000Y-101544000D02*
X195705000Y-102474000D01*
X195705000Y-101544000D02*
X193545000Y-101544000D01*
X195705000Y-104704000D02*
X194245000Y-104704000D01*
X195705000Y-108260000D02*
X195705000Y-107330000D01*
X195705000Y-105100000D02*
X195705000Y-106030000D01*
X195705000Y-105100000D02*
X193545000Y-105100000D01*
X195705000Y-108260000D02*
X194245000Y-108260000D01*
X192861000Y-106421422D02*
X192861000Y-106938578D01*
X191441000Y-106421422D02*
X191441000Y-106938578D01*
X192861000Y-95801922D02*
X192861000Y-96319078D01*
X191441000Y-95801922D02*
X191441000Y-96319078D01*
X192861000Y-92245922D02*
X192861000Y-92763078D01*
X191441000Y-92245922D02*
X191441000Y-92763078D01*
X192861000Y-99357922D02*
X192861000Y-99875078D01*
X191441000Y-99357922D02*
X191441000Y-99875078D01*
X192861000Y-102913922D02*
X192861000Y-103431078D01*
X191441000Y-102913922D02*
X191441000Y-103431078D01*
D10*
X168714000Y-103915000D02*
X167289000Y-103915000D01*
X175964000Y-103690000D02*
X175639000Y-103690000D01*
X175964000Y-110940000D02*
X175639000Y-110940000D01*
X168714000Y-110940000D02*
X169039000Y-110940000D01*
X168714000Y-103690000D02*
X169039000Y-103690000D01*
X168714000Y-110940000D02*
X168714000Y-110615000D01*
X175964000Y-110940000D02*
X175964000Y-110615000D01*
X175964000Y-103690000D02*
X175964000Y-104015000D01*
X168714000Y-103690000D02*
X168714000Y-103915000D01*
D11*
X175947000Y-100022922D02*
X175947000Y-100540078D01*
X177367000Y-100022922D02*
X177367000Y-100540078D01*
X165279000Y-107183422D02*
X165279000Y-107700578D01*
X166699000Y-107183422D02*
X166699000Y-107700578D01*
D10*
X199215476Y-89495380D02*
X199215476Y-90209666D01*
X199167857Y-90352523D01*
X199072619Y-90447761D01*
X198929761Y-90495380D01*
X198834523Y-90495380D01*
X199882142Y-89495380D02*
X200072619Y-89495380D01*
X200167857Y-89543000D01*
X200263095Y-89638238D01*
X200310714Y-89828714D01*
X200310714Y-90162047D01*
X200263095Y-90352523D01*
X200167857Y-90447761D01*
X200072619Y-90495380D01*
X199882142Y-90495380D01*
X199786904Y-90447761D01*
X199691666Y-90352523D01*
X199644047Y-90162047D01*
X199644047Y-89828714D01*
X199691666Y-89638238D01*
X199786904Y-89543000D01*
X199882142Y-89495380D01*
X200929761Y-90019190D02*
X200929761Y-90495380D01*
X200596428Y-89495380D02*
X200929761Y-90019190D01*
X201263095Y-89495380D01*
X178521725Y-97962037D02*
X177814618Y-97254931D01*
X178925786Y-97557976D01*
X178218679Y-96850870D01*
X178892114Y-96850870D02*
X179127816Y-96615167D01*
X179599221Y-96884541D02*
X179262503Y-97221259D01*
X178555397Y-96514152D01*
X178892114Y-96177435D01*
X179834923Y-96581496D02*
X179969610Y-96514152D01*
X180137969Y-96345793D01*
X180171641Y-96244778D01*
X180171641Y-96177435D01*
X180137969Y-96076419D01*
X180070625Y-96009076D01*
X179969610Y-95975404D01*
X179902267Y-95975404D01*
X179801251Y-96009076D01*
X179632893Y-96110091D01*
X179531877Y-96143763D01*
X179464534Y-96143763D01*
X179363519Y-96110091D01*
X179296175Y-96042748D01*
X179262503Y-95941732D01*
X179262503Y-95874389D01*
X179296175Y-95773374D01*
X179464534Y-95605015D01*
X179599221Y-95537671D01*
X181114450Y-95369312D02*
X180407343Y-94662206D01*
X180676717Y-94392832D01*
X180777732Y-94359160D01*
X180845076Y-94359160D01*
X180946091Y-94392832D01*
X181047106Y-94493847D01*
X181080778Y-94594862D01*
X181080778Y-94662206D01*
X181047106Y-94763221D01*
X180777732Y-95032595D01*
X181585854Y-94493847D02*
X181922572Y-94157129D01*
X181720541Y-94763221D02*
X181249137Y-93820412D01*
X182191946Y-94291816D01*
X182427648Y-94056114D02*
X181720541Y-93349007D01*
X181888900Y-93180649D01*
X182023587Y-93113305D01*
X182158274Y-93113305D01*
X182259289Y-93146977D01*
X182427648Y-93247992D01*
X182528663Y-93349007D01*
X182629679Y-93517366D01*
X182663350Y-93618381D01*
X182663350Y-93753068D01*
X182596007Y-93887755D01*
X182427648Y-94056114D01*
X183943809Y-108148380D02*
X183943809Y-107148380D01*
X184991428Y-108053142D02*
X184943809Y-108100761D01*
X184800952Y-108148380D01*
X184705714Y-108148380D01*
X184562857Y-108100761D01*
X184467619Y-108005523D01*
X184420000Y-107910285D01*
X184372380Y-107719809D01*
X184372380Y-107576952D01*
X184420000Y-107386476D01*
X184467619Y-107291238D01*
X184562857Y-107196000D01*
X184705714Y-107148380D01*
X184800952Y-107148380D01*
X184943809Y-107196000D01*
X184991428Y-107243619D01*
X185372380Y-108100761D02*
X185515238Y-108148380D01*
X185753333Y-108148380D01*
X185848571Y-108100761D01*
X185896190Y-108053142D01*
X185943809Y-107957904D01*
X185943809Y-107862666D01*
X185896190Y-107767428D01*
X185848571Y-107719809D01*
X185753333Y-107672190D01*
X185562857Y-107624571D01*
X185467619Y-107576952D01*
X185420000Y-107529333D01*
X185372380Y-107434095D01*
X185372380Y-107338857D01*
X185420000Y-107243619D01*
X185467619Y-107196000D01*
X185562857Y-107148380D01*
X185800952Y-107148380D01*
X185943809Y-107196000D01*
X186372380Y-108148380D02*
X186372380Y-107148380D01*
X186753333Y-107148380D01*
X186848571Y-107196000D01*
X186896190Y-107243619D01*
X186943809Y-107338857D01*
X186943809Y-107481714D01*
X186896190Y-107576952D01*
X186848571Y-107624571D01*
X186753333Y-107672190D01*
X186372380Y-107672190D01*
X197905619Y-92551238D02*
X197858000Y-92646476D01*
X197762761Y-92741714D01*
X197619904Y-92884571D01*
X197572285Y-92979809D01*
X197572285Y-93075047D01*
X197810380Y-93027428D02*
X197762761Y-93122666D01*
X197667523Y-93217904D01*
X197477047Y-93265523D01*
X197143714Y-93265523D01*
X196953238Y-93217904D01*
X196858000Y-93122666D01*
X196810380Y-93027428D01*
X196810380Y-92836952D01*
X196858000Y-92741714D01*
X196953238Y-92646476D01*
X197143714Y-92598857D01*
X197477047Y-92598857D01*
X197667523Y-92646476D01*
X197762761Y-92741714D01*
X197810380Y-92836952D01*
X197810380Y-93027428D01*
X196810380Y-91694095D02*
X196810380Y-92170285D01*
X197286571Y-92217904D01*
X197238952Y-92170285D01*
X197191333Y-92075047D01*
X197191333Y-91836952D01*
X197238952Y-91741714D01*
X197286571Y-91694095D01*
X197381809Y-91646476D01*
X197619904Y-91646476D01*
X197715142Y-91694095D01*
X197762761Y-91741714D01*
X197810380Y-91836952D01*
X197810380Y-92075047D01*
X197762761Y-92170285D01*
X197715142Y-92217904D01*
X197905619Y-95980238D02*
X197858000Y-96075476D01*
X197762761Y-96170714D01*
X197619904Y-96313571D01*
X197572285Y-96408809D01*
X197572285Y-96504047D01*
X197810380Y-96456428D02*
X197762761Y-96551666D01*
X197667523Y-96646904D01*
X197477047Y-96694523D01*
X197143714Y-96694523D01*
X196953238Y-96646904D01*
X196858000Y-96551666D01*
X196810380Y-96456428D01*
X196810380Y-96265952D01*
X196858000Y-96170714D01*
X196953238Y-96075476D01*
X197143714Y-96027857D01*
X197477047Y-96027857D01*
X197667523Y-96075476D01*
X197762761Y-96170714D01*
X197810380Y-96265952D01*
X197810380Y-96456428D01*
X197143714Y-95170714D02*
X197810380Y-95170714D01*
X196762761Y-95408809D02*
X197477047Y-95646904D01*
X197477047Y-95027857D01*
X197905619Y-99663238D02*
X197858000Y-99758476D01*
X197762761Y-99853714D01*
X197619904Y-99996571D01*
X197572285Y-100091809D01*
X197572285Y-100187047D01*
X197810380Y-100139428D02*
X197762761Y-100234666D01*
X197667523Y-100329904D01*
X197477047Y-100377523D01*
X197143714Y-100377523D01*
X196953238Y-100329904D01*
X196858000Y-100234666D01*
X196810380Y-100139428D01*
X196810380Y-99948952D01*
X196858000Y-99853714D01*
X196953238Y-99758476D01*
X197143714Y-99710857D01*
X197477047Y-99710857D01*
X197667523Y-99758476D01*
X197762761Y-99853714D01*
X197810380Y-99948952D01*
X197810380Y-100139428D01*
X196810380Y-99377523D02*
X196810380Y-98758476D01*
X197191333Y-99091809D01*
X197191333Y-98948952D01*
X197238952Y-98853714D01*
X197286571Y-98806095D01*
X197381809Y-98758476D01*
X197619904Y-98758476D01*
X197715142Y-98806095D01*
X197762761Y-98853714D01*
X197810380Y-98948952D01*
X197810380Y-99234666D01*
X197762761Y-99329904D01*
X197715142Y-99377523D01*
X197905619Y-103219238D02*
X197858000Y-103314476D01*
X197762761Y-103409714D01*
X197619904Y-103552571D01*
X197572285Y-103647809D01*
X197572285Y-103743047D01*
X197810380Y-103695428D02*
X197762761Y-103790666D01*
X197667523Y-103885904D01*
X197477047Y-103933523D01*
X197143714Y-103933523D01*
X196953238Y-103885904D01*
X196858000Y-103790666D01*
X196810380Y-103695428D01*
X196810380Y-103504952D01*
X196858000Y-103409714D01*
X196953238Y-103314476D01*
X197143714Y-103266857D01*
X197477047Y-103266857D01*
X197667523Y-103314476D01*
X197762761Y-103409714D01*
X197810380Y-103504952D01*
X197810380Y-103695428D01*
X196905619Y-102885904D02*
X196858000Y-102838285D01*
X196810380Y-102743047D01*
X196810380Y-102504952D01*
X196858000Y-102409714D01*
X196905619Y-102362095D01*
X197000857Y-102314476D01*
X197096095Y-102314476D01*
X197238952Y-102362095D01*
X197810380Y-102933523D01*
X197810380Y-102314476D01*
X197905619Y-106775238D02*
X197858000Y-106870476D01*
X197762761Y-106965714D01*
X197619904Y-107108571D01*
X197572285Y-107203809D01*
X197572285Y-107299047D01*
X197810380Y-107251428D02*
X197762761Y-107346666D01*
X197667523Y-107441904D01*
X197477047Y-107489523D01*
X197143714Y-107489523D01*
X196953238Y-107441904D01*
X196858000Y-107346666D01*
X196810380Y-107251428D01*
X196810380Y-107060952D01*
X196858000Y-106965714D01*
X196953238Y-106870476D01*
X197143714Y-106822857D01*
X197477047Y-106822857D01*
X197667523Y-106870476D01*
X197762761Y-106965714D01*
X197810380Y-107060952D01*
X197810380Y-107251428D01*
X197810380Y-105870476D02*
X197810380Y-106441904D01*
X197810380Y-106156190D02*
X196810380Y-106156190D01*
X196953238Y-106251428D01*
X197048476Y-106346666D01*
X197096095Y-106441904D01*
X190952380Y-106719666D02*
X190476190Y-107053000D01*
X190952380Y-107291095D02*
X189952380Y-107291095D01*
X189952380Y-106910142D01*
X190000000Y-106814904D01*
X190047619Y-106767285D01*
X190142857Y-106719666D01*
X190285714Y-106719666D01*
X190380952Y-106767285D01*
X190428571Y-106814904D01*
X190476190Y-106910142D01*
X190476190Y-107291095D01*
X190047619Y-106338714D02*
X190000000Y-106291095D01*
X189952380Y-106195857D01*
X189952380Y-105957761D01*
X190000000Y-105862523D01*
X190047619Y-105814904D01*
X190142857Y-105767285D01*
X190238095Y-105767285D01*
X190380952Y-105814904D01*
X190952380Y-106386333D01*
X190952380Y-105767285D01*
X190952380Y-96227166D02*
X190476190Y-96560500D01*
X190952380Y-96798595D02*
X189952380Y-96798595D01*
X189952380Y-96417642D01*
X190000000Y-96322404D01*
X190047619Y-96274785D01*
X190142857Y-96227166D01*
X190285714Y-96227166D01*
X190380952Y-96274785D01*
X190428571Y-96322404D01*
X190476190Y-96417642D01*
X190476190Y-96798595D01*
X189952380Y-95322404D02*
X189952380Y-95798595D01*
X190428571Y-95846214D01*
X190380952Y-95798595D01*
X190333333Y-95703357D01*
X190333333Y-95465261D01*
X190380952Y-95370023D01*
X190428571Y-95322404D01*
X190523809Y-95274785D01*
X190761904Y-95274785D01*
X190857142Y-95322404D01*
X190904761Y-95370023D01*
X190952380Y-95465261D01*
X190952380Y-95703357D01*
X190904761Y-95798595D01*
X190857142Y-95846214D01*
X190952380Y-92749666D02*
X190476190Y-93083000D01*
X190952380Y-93321095D02*
X189952380Y-93321095D01*
X189952380Y-92940142D01*
X190000000Y-92844904D01*
X190047619Y-92797285D01*
X190142857Y-92749666D01*
X190285714Y-92749666D01*
X190380952Y-92797285D01*
X190428571Y-92844904D01*
X190476190Y-92940142D01*
X190476190Y-93321095D01*
X189952380Y-91892523D02*
X189952380Y-92083000D01*
X190000000Y-92178238D01*
X190047619Y-92225857D01*
X190190476Y-92321095D01*
X190380952Y-92368714D01*
X190761904Y-92368714D01*
X190857142Y-92321095D01*
X190904761Y-92273476D01*
X190952380Y-92178238D01*
X190952380Y-91987761D01*
X190904761Y-91892523D01*
X190857142Y-91844904D01*
X190761904Y-91797285D01*
X190523809Y-91797285D01*
X190428571Y-91844904D01*
X190380952Y-91892523D01*
X190333333Y-91987761D01*
X190333333Y-92178238D01*
X190380952Y-92273476D01*
X190428571Y-92321095D01*
X190523809Y-92368714D01*
X190952380Y-99734666D02*
X190476190Y-100068000D01*
X190952380Y-100306095D02*
X189952380Y-100306095D01*
X189952380Y-99925142D01*
X190000000Y-99829904D01*
X190047619Y-99782285D01*
X190142857Y-99734666D01*
X190285714Y-99734666D01*
X190380952Y-99782285D01*
X190428571Y-99829904D01*
X190476190Y-99925142D01*
X190476190Y-100306095D01*
X190285714Y-98877523D02*
X190952380Y-98877523D01*
X189904761Y-99115619D02*
X190619047Y-99353714D01*
X190619047Y-98734666D01*
X190952380Y-103290666D02*
X190476190Y-103624000D01*
X190952380Y-103862095D02*
X189952380Y-103862095D01*
X189952380Y-103481142D01*
X190000000Y-103385904D01*
X190047619Y-103338285D01*
X190142857Y-103290666D01*
X190285714Y-103290666D01*
X190380952Y-103338285D01*
X190428571Y-103385904D01*
X190476190Y-103481142D01*
X190476190Y-103862095D01*
X189952380Y-102957333D02*
X189952380Y-102338285D01*
X190333333Y-102671619D01*
X190333333Y-102528761D01*
X190380952Y-102433523D01*
X190428571Y-102385904D01*
X190523809Y-102338285D01*
X190761904Y-102338285D01*
X190857142Y-102385904D01*
X190904761Y-102433523D01*
X190952380Y-102528761D01*
X190952380Y-102814476D01*
X190904761Y-102909714D01*
X190857142Y-102957333D01*
X171577095Y-100717380D02*
X171577095Y-101526904D01*
X171624714Y-101622142D01*
X171672333Y-101669761D01*
X171767571Y-101717380D01*
X171958047Y-101717380D01*
X172053285Y-101669761D01*
X172100904Y-101622142D01*
X172148523Y-101526904D01*
X172148523Y-100717380D01*
X173148523Y-101717380D02*
X172577095Y-101717380D01*
X172862809Y-101717380D02*
X172862809Y-100717380D01*
X172767571Y-100860238D01*
X172672333Y-100955476D01*
X172577095Y-101003095D01*
X178759380Y-100448166D02*
X178283190Y-100781500D01*
X178759380Y-101019595D02*
X177759380Y-101019595D01*
X177759380Y-100638642D01*
X177807000Y-100543404D01*
X177854619Y-100495785D01*
X177949857Y-100448166D01*
X178092714Y-100448166D01*
X178187952Y-100495785D01*
X178235571Y-100543404D01*
X178283190Y-100638642D01*
X178283190Y-101019595D01*
X178759380Y-99495785D02*
X178759380Y-100067214D01*
X178759380Y-99781500D02*
X177759380Y-99781500D01*
X177902238Y-99876738D01*
X177997476Y-99971976D01*
X178045095Y-100067214D01*
X166346142Y-110275666D02*
X166393761Y-110323285D01*
X166441380Y-110466142D01*
X166441380Y-110561380D01*
X166393761Y-110704238D01*
X166298523Y-110799476D01*
X166203285Y-110847095D01*
X166012809Y-110894714D01*
X165869952Y-110894714D01*
X165679476Y-110847095D01*
X165584238Y-110799476D01*
X165489000Y-110704238D01*
X165441380Y-110561380D01*
X165441380Y-110466142D01*
X165489000Y-110323285D01*
X165536619Y-110275666D01*
X166441380Y-109323285D02*
X166441380Y-109894714D01*
X166441380Y-109609000D02*
X165441380Y-109609000D01*
X165584238Y-109704238D01*
X165679476Y-109799476D01*
X165727095Y-109894714D01*
M02*
