G04 #@! TF.GenerationSoftware,KiCad,Pcbnew,(5.1.4)-1*
G04 #@! TF.CreationDate,2020-04-18T17:13:35+10:00*
G04 #@! TF.ProjectId,c64-nes-adapter,6336342d-6e65-4732-9d61-646170746572,rev?*
G04 #@! TF.SameCoordinates,Original*
G04 #@! TF.FileFunction,Copper,L2,Bot*
G04 #@! TF.FilePolarity,Positive*
%FSLAX46Y46*%
G04 Gerber Fmt 4.6, Leading zero omitted, Abs format (unit mm)*
G04 Created by KiCad (PCBNEW (5.1.4)-1) date 2020-04-18 17:13:35*
%MOMM*%
%LPD*%
G04 APERTURE LIST*
%ADD10R,1.700000X1.700000*%
%ADD11O,1.700000X1.700000*%
%ADD12C,1.524000*%
%ADD13C,0.800000*%
%ADD14C,0.250000*%
%ADD15C,0.254000*%
G04 APERTURE END LIST*
D10*
X200025000Y-107188000D03*
D11*
X200025000Y-104648000D03*
X200025000Y-102108000D03*
X200025000Y-99568000D03*
X200025000Y-97028000D03*
X200025000Y-94488000D03*
X200025000Y-91948000D03*
D12*
X187781834Y-90729166D03*
X184953407Y-93557593D03*
X181771427Y-96739573D03*
X178943000Y-99568000D03*
X178943000Y-107068000D03*
D11*
X186690000Y-105410000D03*
X184150000Y-105410000D03*
X186690000Y-102870000D03*
X184150000Y-102870000D03*
X186690000Y-100330000D03*
D10*
X184150000Y-100330000D03*
D13*
X190612000Y-98537000D03*
D14*
X190612000Y-98948000D02*
X190612000Y-98537000D01*
X186690000Y-102870000D02*
X190612000Y-98948000D01*
D15*
G36*
X186696714Y-89838631D02*
G01*
X186543829Y-90067439D01*
X186438520Y-90321676D01*
X186384834Y-90591574D01*
X186384834Y-90866758D01*
X186438520Y-91136656D01*
X186543829Y-91390893D01*
X186696714Y-91619701D01*
X186891299Y-91814286D01*
X187120107Y-91967171D01*
X187374344Y-92072480D01*
X187644242Y-92126166D01*
X187919426Y-92126166D01*
X188189324Y-92072480D01*
X188443561Y-91967171D01*
X188672369Y-91814286D01*
X188866954Y-91619701D01*
X188886057Y-91591110D01*
X198583524Y-91591110D01*
X198704845Y-91821000D01*
X199898000Y-91821000D01*
X199898000Y-90627186D01*
X200152000Y-90627186D01*
X200152000Y-91821000D01*
X201345155Y-91821000D01*
X201466476Y-91591110D01*
X201421825Y-91443901D01*
X201296641Y-91181080D01*
X201122588Y-90947731D01*
X200906355Y-90752822D01*
X200656252Y-90603843D01*
X200381891Y-90506519D01*
X200152000Y-90627186D01*
X199898000Y-90627186D01*
X199668109Y-90506519D01*
X199393748Y-90603843D01*
X199143645Y-90752822D01*
X198927412Y-90947731D01*
X198753359Y-91181080D01*
X198628175Y-91443901D01*
X198583524Y-91591110D01*
X188886057Y-91591110D01*
X189019839Y-91390893D01*
X189125148Y-91136656D01*
X189178834Y-90866758D01*
X189178834Y-90591574D01*
X189125148Y-90321676D01*
X189019839Y-90067439D01*
X188866954Y-89838631D01*
X188740323Y-89712000D01*
X203658000Y-89712000D01*
X203658001Y-114504000D01*
X165658000Y-114504000D01*
X165658000Y-106930408D01*
X177546000Y-106930408D01*
X177546000Y-107205592D01*
X177599686Y-107475490D01*
X177704995Y-107729727D01*
X177857880Y-107958535D01*
X178052465Y-108153120D01*
X178281273Y-108306005D01*
X178535510Y-108411314D01*
X178805408Y-108465000D01*
X179080592Y-108465000D01*
X179350490Y-108411314D01*
X179604727Y-108306005D01*
X179833535Y-108153120D01*
X180028120Y-107958535D01*
X180181005Y-107729727D01*
X180286314Y-107475490D01*
X180340000Y-107205592D01*
X180340000Y-106930408D01*
X180286314Y-106660510D01*
X180181005Y-106406273D01*
X180028120Y-106177465D01*
X179833535Y-105982880D01*
X179604727Y-105829995D01*
X179350490Y-105724686D01*
X179080592Y-105671000D01*
X178805408Y-105671000D01*
X178535510Y-105724686D01*
X178281273Y-105829995D01*
X178052465Y-105982880D01*
X177857880Y-106177465D01*
X177704995Y-106406273D01*
X177599686Y-106660510D01*
X177546000Y-106930408D01*
X165658000Y-106930408D01*
X165658000Y-102870000D01*
X182657815Y-102870000D01*
X182686487Y-103161111D01*
X182771401Y-103441034D01*
X182909294Y-103699014D01*
X183094866Y-103925134D01*
X183320986Y-104110706D01*
X183375791Y-104140000D01*
X183320986Y-104169294D01*
X183094866Y-104354866D01*
X182909294Y-104580986D01*
X182771401Y-104838966D01*
X182686487Y-105118889D01*
X182657815Y-105410000D01*
X182686487Y-105701111D01*
X182771401Y-105981034D01*
X182909294Y-106239014D01*
X183094866Y-106465134D01*
X183320986Y-106650706D01*
X183578966Y-106788599D01*
X183858889Y-106873513D01*
X184077050Y-106895000D01*
X184222950Y-106895000D01*
X184441111Y-106873513D01*
X184721034Y-106788599D01*
X184979014Y-106650706D01*
X185205134Y-106465134D01*
X185390706Y-106239014D01*
X185421584Y-106181244D01*
X185592412Y-106410269D01*
X185808645Y-106605178D01*
X186058748Y-106754157D01*
X186333109Y-106851481D01*
X186563000Y-106730814D01*
X186563000Y-105537000D01*
X186817000Y-105537000D01*
X186817000Y-106730814D01*
X187046891Y-106851481D01*
X187321252Y-106754157D01*
X187571355Y-106605178D01*
X187787588Y-106410269D01*
X187961641Y-106176920D01*
X188086825Y-105914099D01*
X188131476Y-105766890D01*
X188010155Y-105537000D01*
X186817000Y-105537000D01*
X186563000Y-105537000D01*
X186543000Y-105537000D01*
X186543000Y-105283000D01*
X186563000Y-105283000D01*
X186563000Y-105263000D01*
X186817000Y-105263000D01*
X186817000Y-105283000D01*
X188010155Y-105283000D01*
X188131476Y-105053110D01*
X188086825Y-104905901D01*
X187961641Y-104643080D01*
X187787588Y-104409731D01*
X187571355Y-104214822D01*
X187454477Y-104145201D01*
X187519014Y-104110706D01*
X187745134Y-103925134D01*
X187930706Y-103699014D01*
X188068599Y-103441034D01*
X188153513Y-103161111D01*
X188182185Y-102870000D01*
X188153513Y-102578889D01*
X188130797Y-102504004D01*
X191123004Y-99511798D01*
X191152001Y-99488001D01*
X191246974Y-99372276D01*
X191259254Y-99349303D01*
X191271774Y-99340937D01*
X191415937Y-99196774D01*
X191529205Y-99027256D01*
X191607226Y-98838898D01*
X191647000Y-98638939D01*
X191647000Y-98435061D01*
X191607226Y-98235102D01*
X191529205Y-98046744D01*
X191415937Y-97877226D01*
X191271774Y-97733063D01*
X191102256Y-97619795D01*
X190913898Y-97541774D01*
X190713939Y-97502000D01*
X190510061Y-97502000D01*
X190310102Y-97541774D01*
X190121744Y-97619795D01*
X189952226Y-97733063D01*
X189808063Y-97877226D01*
X189694795Y-98046744D01*
X189616774Y-98235102D01*
X189577000Y-98435061D01*
X189577000Y-98638939D01*
X189616774Y-98838898D01*
X189625422Y-98859776D01*
X188179765Y-100305433D01*
X188153513Y-100038889D01*
X188068599Y-99758966D01*
X187930706Y-99500986D01*
X187745134Y-99274866D01*
X187519014Y-99089294D01*
X187261034Y-98951401D01*
X186981111Y-98866487D01*
X186762950Y-98845000D01*
X186617050Y-98845000D01*
X186398889Y-98866487D01*
X186118966Y-98951401D01*
X185860986Y-99089294D01*
X185634866Y-99274866D01*
X185610393Y-99304687D01*
X185589502Y-99235820D01*
X185530537Y-99125506D01*
X185451185Y-99028815D01*
X185354494Y-98949463D01*
X185244180Y-98890498D01*
X185124482Y-98854188D01*
X185000000Y-98841928D01*
X183300000Y-98841928D01*
X183175518Y-98854188D01*
X183055820Y-98890498D01*
X182945506Y-98949463D01*
X182848815Y-99028815D01*
X182769463Y-99125506D01*
X182710498Y-99235820D01*
X182674188Y-99355518D01*
X182661928Y-99480000D01*
X182661928Y-101180000D01*
X182674188Y-101304482D01*
X182710498Y-101424180D01*
X182769463Y-101534494D01*
X182848815Y-101631185D01*
X182945506Y-101710537D01*
X183055820Y-101769502D01*
X183124687Y-101790393D01*
X183094866Y-101814866D01*
X182909294Y-102040986D01*
X182771401Y-102298966D01*
X182686487Y-102578889D01*
X182657815Y-102870000D01*
X165658000Y-102870000D01*
X165658000Y-100533565D01*
X178157040Y-100533565D01*
X178224020Y-100773656D01*
X178473048Y-100890756D01*
X178740135Y-100957023D01*
X179015017Y-100969910D01*
X179287133Y-100928922D01*
X179546023Y-100835636D01*
X179661980Y-100773656D01*
X179728960Y-100533565D01*
X178943000Y-99747605D01*
X178157040Y-100533565D01*
X165658000Y-100533565D01*
X165658000Y-99640017D01*
X177541090Y-99640017D01*
X177582078Y-99912133D01*
X177675364Y-100171023D01*
X177737344Y-100286980D01*
X177977435Y-100353960D01*
X178763395Y-99568000D01*
X179122605Y-99568000D01*
X179908565Y-100353960D01*
X180148656Y-100286980D01*
X180265756Y-100037952D01*
X180332023Y-99770865D01*
X180344910Y-99495983D01*
X180303922Y-99223867D01*
X180210636Y-98964977D01*
X180148656Y-98849020D01*
X179908565Y-98782040D01*
X179122605Y-99568000D01*
X178763395Y-99568000D01*
X177977435Y-98782040D01*
X177737344Y-98849020D01*
X177620244Y-99098048D01*
X177553977Y-99365135D01*
X177541090Y-99640017D01*
X165658000Y-99640017D01*
X165658000Y-98602435D01*
X178157040Y-98602435D01*
X178943000Y-99388395D01*
X179728960Y-98602435D01*
X179661980Y-98362344D01*
X179412952Y-98245244D01*
X179145865Y-98178977D01*
X178870983Y-98166090D01*
X178598867Y-98207078D01*
X178339977Y-98300364D01*
X178224020Y-98362344D01*
X178157040Y-98602435D01*
X165658000Y-98602435D01*
X165658000Y-98400200D01*
X170643219Y-98400200D01*
X170667288Y-98397829D01*
X171393964Y-98344466D01*
X171409344Y-98341947D01*
X171424917Y-98341458D01*
X171499701Y-98328002D01*
X172369303Y-98119229D01*
X172388979Y-98112607D01*
X172409295Y-98108289D01*
X172480515Y-98081802D01*
X173299403Y-97722335D01*
X173317596Y-97712333D01*
X173336825Y-97704486D01*
X173402229Y-97665806D01*
X174144519Y-97167008D01*
X174160653Y-97153943D01*
X174178189Y-97142814D01*
X174235709Y-97093163D01*
X174742570Y-96601981D01*
X180374427Y-96601981D01*
X180374427Y-96877165D01*
X180428113Y-97147063D01*
X180533422Y-97401300D01*
X180686307Y-97630108D01*
X180880892Y-97824693D01*
X181109700Y-97977578D01*
X181363937Y-98082887D01*
X181633835Y-98136573D01*
X181909019Y-98136573D01*
X182178917Y-98082887D01*
X182433154Y-97977578D01*
X182661962Y-97824693D01*
X182856547Y-97630108D01*
X183009432Y-97401300D01*
X183114741Y-97147063D01*
X183168427Y-96877165D01*
X183168427Y-96601981D01*
X183114741Y-96332083D01*
X183009432Y-96077846D01*
X182856547Y-95849038D01*
X182661962Y-95654453D01*
X182433154Y-95501568D01*
X182178917Y-95396259D01*
X181909019Y-95342573D01*
X181633835Y-95342573D01*
X181363937Y-95396259D01*
X181109700Y-95501568D01*
X180880892Y-95654453D01*
X180686307Y-95849038D01*
X180533422Y-96077846D01*
X180428113Y-96332083D01*
X180374427Y-96601981D01*
X174742570Y-96601981D01*
X174877939Y-96470800D01*
X174891507Y-96455081D01*
X174906793Y-96441025D01*
X174954612Y-96381973D01*
X175476480Y-95655717D01*
X175487051Y-95637843D01*
X175499605Y-95621303D01*
X175536211Y-95554717D01*
X175921222Y-94747524D01*
X175928458Y-94728068D01*
X175937888Y-94709560D01*
X175962124Y-94637543D01*
X176198109Y-93774928D01*
X176201786Y-93754491D01*
X176207788Y-93734612D01*
X176218888Y-93659442D01*
X176240257Y-93420001D01*
X183556407Y-93420001D01*
X183556407Y-93695185D01*
X183610093Y-93965083D01*
X183715402Y-94219320D01*
X183868287Y-94448128D01*
X184062872Y-94642713D01*
X184291680Y-94795598D01*
X184545917Y-94900907D01*
X184815815Y-94954593D01*
X185090999Y-94954593D01*
X185360897Y-94900907D01*
X185615134Y-94795598D01*
X185843942Y-94642713D01*
X185998655Y-94488000D01*
X198532815Y-94488000D01*
X198561487Y-94779111D01*
X198646401Y-95059034D01*
X198784294Y-95317014D01*
X198969866Y-95543134D01*
X199195986Y-95728706D01*
X199250791Y-95758000D01*
X199195986Y-95787294D01*
X198969866Y-95972866D01*
X198784294Y-96198986D01*
X198646401Y-96456966D01*
X198561487Y-96736889D01*
X198532815Y-97028000D01*
X198561487Y-97319111D01*
X198646401Y-97599034D01*
X198784294Y-97857014D01*
X198969866Y-98083134D01*
X199195986Y-98268706D01*
X199250791Y-98298000D01*
X199195986Y-98327294D01*
X198969866Y-98512866D01*
X198784294Y-98738986D01*
X198646401Y-98996966D01*
X198561487Y-99276889D01*
X198532815Y-99568000D01*
X198561487Y-99859111D01*
X198646401Y-100139034D01*
X198784294Y-100397014D01*
X198969866Y-100623134D01*
X199195986Y-100808706D01*
X199250791Y-100838000D01*
X199195986Y-100867294D01*
X198969866Y-101052866D01*
X198784294Y-101278986D01*
X198646401Y-101536966D01*
X198561487Y-101816889D01*
X198532815Y-102108000D01*
X198561487Y-102399111D01*
X198646401Y-102679034D01*
X198784294Y-102937014D01*
X198969866Y-103163134D01*
X199195986Y-103348706D01*
X199250791Y-103378000D01*
X199195986Y-103407294D01*
X198969866Y-103592866D01*
X198784294Y-103818986D01*
X198646401Y-104076966D01*
X198561487Y-104356889D01*
X198532815Y-104648000D01*
X198561487Y-104939111D01*
X198646401Y-105219034D01*
X198784294Y-105477014D01*
X198969866Y-105703134D01*
X198999687Y-105727607D01*
X198930820Y-105748498D01*
X198820506Y-105807463D01*
X198723815Y-105886815D01*
X198644463Y-105983506D01*
X198585498Y-106093820D01*
X198549188Y-106213518D01*
X198536928Y-106338000D01*
X198536928Y-108038000D01*
X198549188Y-108162482D01*
X198585498Y-108282180D01*
X198644463Y-108392494D01*
X198723815Y-108489185D01*
X198820506Y-108568537D01*
X198930820Y-108627502D01*
X199050518Y-108663812D01*
X199175000Y-108676072D01*
X200875000Y-108676072D01*
X200999482Y-108663812D01*
X201119180Y-108627502D01*
X201229494Y-108568537D01*
X201326185Y-108489185D01*
X201405537Y-108392494D01*
X201464502Y-108282180D01*
X201500812Y-108162482D01*
X201513072Y-108038000D01*
X201513072Y-106338000D01*
X201500812Y-106213518D01*
X201464502Y-106093820D01*
X201405537Y-105983506D01*
X201326185Y-105886815D01*
X201229494Y-105807463D01*
X201119180Y-105748498D01*
X201050313Y-105727607D01*
X201080134Y-105703134D01*
X201265706Y-105477014D01*
X201403599Y-105219034D01*
X201488513Y-104939111D01*
X201517185Y-104648000D01*
X201488513Y-104356889D01*
X201403599Y-104076966D01*
X201265706Y-103818986D01*
X201080134Y-103592866D01*
X200854014Y-103407294D01*
X200799209Y-103378000D01*
X200854014Y-103348706D01*
X201080134Y-103163134D01*
X201265706Y-102937014D01*
X201403599Y-102679034D01*
X201488513Y-102399111D01*
X201517185Y-102108000D01*
X201488513Y-101816889D01*
X201403599Y-101536966D01*
X201265706Y-101278986D01*
X201080134Y-101052866D01*
X200854014Y-100867294D01*
X200799209Y-100838000D01*
X200854014Y-100808706D01*
X201080134Y-100623134D01*
X201265706Y-100397014D01*
X201403599Y-100139034D01*
X201488513Y-99859111D01*
X201517185Y-99568000D01*
X201488513Y-99276889D01*
X201403599Y-98996966D01*
X201265706Y-98738986D01*
X201080134Y-98512866D01*
X200854014Y-98327294D01*
X200799209Y-98298000D01*
X200854014Y-98268706D01*
X201080134Y-98083134D01*
X201265706Y-97857014D01*
X201403599Y-97599034D01*
X201488513Y-97319111D01*
X201517185Y-97028000D01*
X201488513Y-96736889D01*
X201403599Y-96456966D01*
X201265706Y-96198986D01*
X201080134Y-95972866D01*
X200854014Y-95787294D01*
X200799209Y-95758000D01*
X200854014Y-95728706D01*
X201080134Y-95543134D01*
X201265706Y-95317014D01*
X201403599Y-95059034D01*
X201488513Y-94779111D01*
X201517185Y-94488000D01*
X201488513Y-94196889D01*
X201403599Y-93916966D01*
X201265706Y-93658986D01*
X201080134Y-93432866D01*
X200854014Y-93247294D01*
X200789477Y-93212799D01*
X200906355Y-93143178D01*
X201122588Y-92948269D01*
X201296641Y-92714920D01*
X201421825Y-92452099D01*
X201466476Y-92304890D01*
X201345155Y-92075000D01*
X200152000Y-92075000D01*
X200152000Y-92095000D01*
X199898000Y-92095000D01*
X199898000Y-92075000D01*
X198704845Y-92075000D01*
X198583524Y-92304890D01*
X198628175Y-92452099D01*
X198753359Y-92714920D01*
X198927412Y-92948269D01*
X199143645Y-93143178D01*
X199260523Y-93212799D01*
X199195986Y-93247294D01*
X198969866Y-93432866D01*
X198784294Y-93658986D01*
X198646401Y-93916966D01*
X198561487Y-94196889D01*
X198532815Y-94488000D01*
X185998655Y-94488000D01*
X186038527Y-94448128D01*
X186191412Y-94219320D01*
X186296721Y-93965083D01*
X186350407Y-93695185D01*
X186350407Y-93420001D01*
X186296721Y-93150103D01*
X186191412Y-92895866D01*
X186038527Y-92667058D01*
X185843942Y-92472473D01*
X185615134Y-92319588D01*
X185360897Y-92214279D01*
X185090999Y-92160593D01*
X184815815Y-92160593D01*
X184545917Y-92214279D01*
X184291680Y-92319588D01*
X184062872Y-92472473D01*
X183868287Y-92667058D01*
X183715402Y-92895866D01*
X183610093Y-93150103D01*
X183556407Y-93420001D01*
X176240257Y-93420001D01*
X176298122Y-92771639D01*
X176301000Y-92742419D01*
X176301000Y-89712000D01*
X186823345Y-89712000D01*
X186696714Y-89838631D01*
X186696714Y-89838631D01*
G37*
X186696714Y-89838631D02*
X186543829Y-90067439D01*
X186438520Y-90321676D01*
X186384834Y-90591574D01*
X186384834Y-90866758D01*
X186438520Y-91136656D01*
X186543829Y-91390893D01*
X186696714Y-91619701D01*
X186891299Y-91814286D01*
X187120107Y-91967171D01*
X187374344Y-92072480D01*
X187644242Y-92126166D01*
X187919426Y-92126166D01*
X188189324Y-92072480D01*
X188443561Y-91967171D01*
X188672369Y-91814286D01*
X188866954Y-91619701D01*
X188886057Y-91591110D01*
X198583524Y-91591110D01*
X198704845Y-91821000D01*
X199898000Y-91821000D01*
X199898000Y-90627186D01*
X200152000Y-90627186D01*
X200152000Y-91821000D01*
X201345155Y-91821000D01*
X201466476Y-91591110D01*
X201421825Y-91443901D01*
X201296641Y-91181080D01*
X201122588Y-90947731D01*
X200906355Y-90752822D01*
X200656252Y-90603843D01*
X200381891Y-90506519D01*
X200152000Y-90627186D01*
X199898000Y-90627186D01*
X199668109Y-90506519D01*
X199393748Y-90603843D01*
X199143645Y-90752822D01*
X198927412Y-90947731D01*
X198753359Y-91181080D01*
X198628175Y-91443901D01*
X198583524Y-91591110D01*
X188886057Y-91591110D01*
X189019839Y-91390893D01*
X189125148Y-91136656D01*
X189178834Y-90866758D01*
X189178834Y-90591574D01*
X189125148Y-90321676D01*
X189019839Y-90067439D01*
X188866954Y-89838631D01*
X188740323Y-89712000D01*
X203658000Y-89712000D01*
X203658001Y-114504000D01*
X165658000Y-114504000D01*
X165658000Y-106930408D01*
X177546000Y-106930408D01*
X177546000Y-107205592D01*
X177599686Y-107475490D01*
X177704995Y-107729727D01*
X177857880Y-107958535D01*
X178052465Y-108153120D01*
X178281273Y-108306005D01*
X178535510Y-108411314D01*
X178805408Y-108465000D01*
X179080592Y-108465000D01*
X179350490Y-108411314D01*
X179604727Y-108306005D01*
X179833535Y-108153120D01*
X180028120Y-107958535D01*
X180181005Y-107729727D01*
X180286314Y-107475490D01*
X180340000Y-107205592D01*
X180340000Y-106930408D01*
X180286314Y-106660510D01*
X180181005Y-106406273D01*
X180028120Y-106177465D01*
X179833535Y-105982880D01*
X179604727Y-105829995D01*
X179350490Y-105724686D01*
X179080592Y-105671000D01*
X178805408Y-105671000D01*
X178535510Y-105724686D01*
X178281273Y-105829995D01*
X178052465Y-105982880D01*
X177857880Y-106177465D01*
X177704995Y-106406273D01*
X177599686Y-106660510D01*
X177546000Y-106930408D01*
X165658000Y-106930408D01*
X165658000Y-102870000D01*
X182657815Y-102870000D01*
X182686487Y-103161111D01*
X182771401Y-103441034D01*
X182909294Y-103699014D01*
X183094866Y-103925134D01*
X183320986Y-104110706D01*
X183375791Y-104140000D01*
X183320986Y-104169294D01*
X183094866Y-104354866D01*
X182909294Y-104580986D01*
X182771401Y-104838966D01*
X182686487Y-105118889D01*
X182657815Y-105410000D01*
X182686487Y-105701111D01*
X182771401Y-105981034D01*
X182909294Y-106239014D01*
X183094866Y-106465134D01*
X183320986Y-106650706D01*
X183578966Y-106788599D01*
X183858889Y-106873513D01*
X184077050Y-106895000D01*
X184222950Y-106895000D01*
X184441111Y-106873513D01*
X184721034Y-106788599D01*
X184979014Y-106650706D01*
X185205134Y-106465134D01*
X185390706Y-106239014D01*
X185421584Y-106181244D01*
X185592412Y-106410269D01*
X185808645Y-106605178D01*
X186058748Y-106754157D01*
X186333109Y-106851481D01*
X186563000Y-106730814D01*
X186563000Y-105537000D01*
X186817000Y-105537000D01*
X186817000Y-106730814D01*
X187046891Y-106851481D01*
X187321252Y-106754157D01*
X187571355Y-106605178D01*
X187787588Y-106410269D01*
X187961641Y-106176920D01*
X188086825Y-105914099D01*
X188131476Y-105766890D01*
X188010155Y-105537000D01*
X186817000Y-105537000D01*
X186563000Y-105537000D01*
X186543000Y-105537000D01*
X186543000Y-105283000D01*
X186563000Y-105283000D01*
X186563000Y-105263000D01*
X186817000Y-105263000D01*
X186817000Y-105283000D01*
X188010155Y-105283000D01*
X188131476Y-105053110D01*
X188086825Y-104905901D01*
X187961641Y-104643080D01*
X187787588Y-104409731D01*
X187571355Y-104214822D01*
X187454477Y-104145201D01*
X187519014Y-104110706D01*
X187745134Y-103925134D01*
X187930706Y-103699014D01*
X188068599Y-103441034D01*
X188153513Y-103161111D01*
X188182185Y-102870000D01*
X188153513Y-102578889D01*
X188130797Y-102504004D01*
X191123004Y-99511798D01*
X191152001Y-99488001D01*
X191246974Y-99372276D01*
X191259254Y-99349303D01*
X191271774Y-99340937D01*
X191415937Y-99196774D01*
X191529205Y-99027256D01*
X191607226Y-98838898D01*
X191647000Y-98638939D01*
X191647000Y-98435061D01*
X191607226Y-98235102D01*
X191529205Y-98046744D01*
X191415937Y-97877226D01*
X191271774Y-97733063D01*
X191102256Y-97619795D01*
X190913898Y-97541774D01*
X190713939Y-97502000D01*
X190510061Y-97502000D01*
X190310102Y-97541774D01*
X190121744Y-97619795D01*
X189952226Y-97733063D01*
X189808063Y-97877226D01*
X189694795Y-98046744D01*
X189616774Y-98235102D01*
X189577000Y-98435061D01*
X189577000Y-98638939D01*
X189616774Y-98838898D01*
X189625422Y-98859776D01*
X188179765Y-100305433D01*
X188153513Y-100038889D01*
X188068599Y-99758966D01*
X187930706Y-99500986D01*
X187745134Y-99274866D01*
X187519014Y-99089294D01*
X187261034Y-98951401D01*
X186981111Y-98866487D01*
X186762950Y-98845000D01*
X186617050Y-98845000D01*
X186398889Y-98866487D01*
X186118966Y-98951401D01*
X185860986Y-99089294D01*
X185634866Y-99274866D01*
X185610393Y-99304687D01*
X185589502Y-99235820D01*
X185530537Y-99125506D01*
X185451185Y-99028815D01*
X185354494Y-98949463D01*
X185244180Y-98890498D01*
X185124482Y-98854188D01*
X185000000Y-98841928D01*
X183300000Y-98841928D01*
X183175518Y-98854188D01*
X183055820Y-98890498D01*
X182945506Y-98949463D01*
X182848815Y-99028815D01*
X182769463Y-99125506D01*
X182710498Y-99235820D01*
X182674188Y-99355518D01*
X182661928Y-99480000D01*
X182661928Y-101180000D01*
X182674188Y-101304482D01*
X182710498Y-101424180D01*
X182769463Y-101534494D01*
X182848815Y-101631185D01*
X182945506Y-101710537D01*
X183055820Y-101769502D01*
X183124687Y-101790393D01*
X183094866Y-101814866D01*
X182909294Y-102040986D01*
X182771401Y-102298966D01*
X182686487Y-102578889D01*
X182657815Y-102870000D01*
X165658000Y-102870000D01*
X165658000Y-100533565D01*
X178157040Y-100533565D01*
X178224020Y-100773656D01*
X178473048Y-100890756D01*
X178740135Y-100957023D01*
X179015017Y-100969910D01*
X179287133Y-100928922D01*
X179546023Y-100835636D01*
X179661980Y-100773656D01*
X179728960Y-100533565D01*
X178943000Y-99747605D01*
X178157040Y-100533565D01*
X165658000Y-100533565D01*
X165658000Y-99640017D01*
X177541090Y-99640017D01*
X177582078Y-99912133D01*
X177675364Y-100171023D01*
X177737344Y-100286980D01*
X177977435Y-100353960D01*
X178763395Y-99568000D01*
X179122605Y-99568000D01*
X179908565Y-100353960D01*
X180148656Y-100286980D01*
X180265756Y-100037952D01*
X180332023Y-99770865D01*
X180344910Y-99495983D01*
X180303922Y-99223867D01*
X180210636Y-98964977D01*
X180148656Y-98849020D01*
X179908565Y-98782040D01*
X179122605Y-99568000D01*
X178763395Y-99568000D01*
X177977435Y-98782040D01*
X177737344Y-98849020D01*
X177620244Y-99098048D01*
X177553977Y-99365135D01*
X177541090Y-99640017D01*
X165658000Y-99640017D01*
X165658000Y-98602435D01*
X178157040Y-98602435D01*
X178943000Y-99388395D01*
X179728960Y-98602435D01*
X179661980Y-98362344D01*
X179412952Y-98245244D01*
X179145865Y-98178977D01*
X178870983Y-98166090D01*
X178598867Y-98207078D01*
X178339977Y-98300364D01*
X178224020Y-98362344D01*
X178157040Y-98602435D01*
X165658000Y-98602435D01*
X165658000Y-98400200D01*
X170643219Y-98400200D01*
X170667288Y-98397829D01*
X171393964Y-98344466D01*
X171409344Y-98341947D01*
X171424917Y-98341458D01*
X171499701Y-98328002D01*
X172369303Y-98119229D01*
X172388979Y-98112607D01*
X172409295Y-98108289D01*
X172480515Y-98081802D01*
X173299403Y-97722335D01*
X173317596Y-97712333D01*
X173336825Y-97704486D01*
X173402229Y-97665806D01*
X174144519Y-97167008D01*
X174160653Y-97153943D01*
X174178189Y-97142814D01*
X174235709Y-97093163D01*
X174742570Y-96601981D01*
X180374427Y-96601981D01*
X180374427Y-96877165D01*
X180428113Y-97147063D01*
X180533422Y-97401300D01*
X180686307Y-97630108D01*
X180880892Y-97824693D01*
X181109700Y-97977578D01*
X181363937Y-98082887D01*
X181633835Y-98136573D01*
X181909019Y-98136573D01*
X182178917Y-98082887D01*
X182433154Y-97977578D01*
X182661962Y-97824693D01*
X182856547Y-97630108D01*
X183009432Y-97401300D01*
X183114741Y-97147063D01*
X183168427Y-96877165D01*
X183168427Y-96601981D01*
X183114741Y-96332083D01*
X183009432Y-96077846D01*
X182856547Y-95849038D01*
X182661962Y-95654453D01*
X182433154Y-95501568D01*
X182178917Y-95396259D01*
X181909019Y-95342573D01*
X181633835Y-95342573D01*
X181363937Y-95396259D01*
X181109700Y-95501568D01*
X180880892Y-95654453D01*
X180686307Y-95849038D01*
X180533422Y-96077846D01*
X180428113Y-96332083D01*
X180374427Y-96601981D01*
X174742570Y-96601981D01*
X174877939Y-96470800D01*
X174891507Y-96455081D01*
X174906793Y-96441025D01*
X174954612Y-96381973D01*
X175476480Y-95655717D01*
X175487051Y-95637843D01*
X175499605Y-95621303D01*
X175536211Y-95554717D01*
X175921222Y-94747524D01*
X175928458Y-94728068D01*
X175937888Y-94709560D01*
X175962124Y-94637543D01*
X176198109Y-93774928D01*
X176201786Y-93754491D01*
X176207788Y-93734612D01*
X176218888Y-93659442D01*
X176240257Y-93420001D01*
X183556407Y-93420001D01*
X183556407Y-93695185D01*
X183610093Y-93965083D01*
X183715402Y-94219320D01*
X183868287Y-94448128D01*
X184062872Y-94642713D01*
X184291680Y-94795598D01*
X184545917Y-94900907D01*
X184815815Y-94954593D01*
X185090999Y-94954593D01*
X185360897Y-94900907D01*
X185615134Y-94795598D01*
X185843942Y-94642713D01*
X185998655Y-94488000D01*
X198532815Y-94488000D01*
X198561487Y-94779111D01*
X198646401Y-95059034D01*
X198784294Y-95317014D01*
X198969866Y-95543134D01*
X199195986Y-95728706D01*
X199250791Y-95758000D01*
X199195986Y-95787294D01*
X198969866Y-95972866D01*
X198784294Y-96198986D01*
X198646401Y-96456966D01*
X198561487Y-96736889D01*
X198532815Y-97028000D01*
X198561487Y-97319111D01*
X198646401Y-97599034D01*
X198784294Y-97857014D01*
X198969866Y-98083134D01*
X199195986Y-98268706D01*
X199250791Y-98298000D01*
X199195986Y-98327294D01*
X198969866Y-98512866D01*
X198784294Y-98738986D01*
X198646401Y-98996966D01*
X198561487Y-99276889D01*
X198532815Y-99568000D01*
X198561487Y-99859111D01*
X198646401Y-100139034D01*
X198784294Y-100397014D01*
X198969866Y-100623134D01*
X199195986Y-100808706D01*
X199250791Y-100838000D01*
X199195986Y-100867294D01*
X198969866Y-101052866D01*
X198784294Y-101278986D01*
X198646401Y-101536966D01*
X198561487Y-101816889D01*
X198532815Y-102108000D01*
X198561487Y-102399111D01*
X198646401Y-102679034D01*
X198784294Y-102937014D01*
X198969866Y-103163134D01*
X199195986Y-103348706D01*
X199250791Y-103378000D01*
X199195986Y-103407294D01*
X198969866Y-103592866D01*
X198784294Y-103818986D01*
X198646401Y-104076966D01*
X198561487Y-104356889D01*
X198532815Y-104648000D01*
X198561487Y-104939111D01*
X198646401Y-105219034D01*
X198784294Y-105477014D01*
X198969866Y-105703134D01*
X198999687Y-105727607D01*
X198930820Y-105748498D01*
X198820506Y-105807463D01*
X198723815Y-105886815D01*
X198644463Y-105983506D01*
X198585498Y-106093820D01*
X198549188Y-106213518D01*
X198536928Y-106338000D01*
X198536928Y-108038000D01*
X198549188Y-108162482D01*
X198585498Y-108282180D01*
X198644463Y-108392494D01*
X198723815Y-108489185D01*
X198820506Y-108568537D01*
X198930820Y-108627502D01*
X199050518Y-108663812D01*
X199175000Y-108676072D01*
X200875000Y-108676072D01*
X200999482Y-108663812D01*
X201119180Y-108627502D01*
X201229494Y-108568537D01*
X201326185Y-108489185D01*
X201405537Y-108392494D01*
X201464502Y-108282180D01*
X201500812Y-108162482D01*
X201513072Y-108038000D01*
X201513072Y-106338000D01*
X201500812Y-106213518D01*
X201464502Y-106093820D01*
X201405537Y-105983506D01*
X201326185Y-105886815D01*
X201229494Y-105807463D01*
X201119180Y-105748498D01*
X201050313Y-105727607D01*
X201080134Y-105703134D01*
X201265706Y-105477014D01*
X201403599Y-105219034D01*
X201488513Y-104939111D01*
X201517185Y-104648000D01*
X201488513Y-104356889D01*
X201403599Y-104076966D01*
X201265706Y-103818986D01*
X201080134Y-103592866D01*
X200854014Y-103407294D01*
X200799209Y-103378000D01*
X200854014Y-103348706D01*
X201080134Y-103163134D01*
X201265706Y-102937014D01*
X201403599Y-102679034D01*
X201488513Y-102399111D01*
X201517185Y-102108000D01*
X201488513Y-101816889D01*
X201403599Y-101536966D01*
X201265706Y-101278986D01*
X201080134Y-101052866D01*
X200854014Y-100867294D01*
X200799209Y-100838000D01*
X200854014Y-100808706D01*
X201080134Y-100623134D01*
X201265706Y-100397014D01*
X201403599Y-100139034D01*
X201488513Y-99859111D01*
X201517185Y-99568000D01*
X201488513Y-99276889D01*
X201403599Y-98996966D01*
X201265706Y-98738986D01*
X201080134Y-98512866D01*
X200854014Y-98327294D01*
X200799209Y-98298000D01*
X200854014Y-98268706D01*
X201080134Y-98083134D01*
X201265706Y-97857014D01*
X201403599Y-97599034D01*
X201488513Y-97319111D01*
X201517185Y-97028000D01*
X201488513Y-96736889D01*
X201403599Y-96456966D01*
X201265706Y-96198986D01*
X201080134Y-95972866D01*
X200854014Y-95787294D01*
X200799209Y-95758000D01*
X200854014Y-95728706D01*
X201080134Y-95543134D01*
X201265706Y-95317014D01*
X201403599Y-95059034D01*
X201488513Y-94779111D01*
X201517185Y-94488000D01*
X201488513Y-94196889D01*
X201403599Y-93916966D01*
X201265706Y-93658986D01*
X201080134Y-93432866D01*
X200854014Y-93247294D01*
X200789477Y-93212799D01*
X200906355Y-93143178D01*
X201122588Y-92948269D01*
X201296641Y-92714920D01*
X201421825Y-92452099D01*
X201466476Y-92304890D01*
X201345155Y-92075000D01*
X200152000Y-92075000D01*
X200152000Y-92095000D01*
X199898000Y-92095000D01*
X199898000Y-92075000D01*
X198704845Y-92075000D01*
X198583524Y-92304890D01*
X198628175Y-92452099D01*
X198753359Y-92714920D01*
X198927412Y-92948269D01*
X199143645Y-93143178D01*
X199260523Y-93212799D01*
X199195986Y-93247294D01*
X198969866Y-93432866D01*
X198784294Y-93658986D01*
X198646401Y-93916966D01*
X198561487Y-94196889D01*
X198532815Y-94488000D01*
X185998655Y-94488000D01*
X186038527Y-94448128D01*
X186191412Y-94219320D01*
X186296721Y-93965083D01*
X186350407Y-93695185D01*
X186350407Y-93420001D01*
X186296721Y-93150103D01*
X186191412Y-92895866D01*
X186038527Y-92667058D01*
X185843942Y-92472473D01*
X185615134Y-92319588D01*
X185360897Y-92214279D01*
X185090999Y-92160593D01*
X184815815Y-92160593D01*
X184545917Y-92214279D01*
X184291680Y-92319588D01*
X184062872Y-92472473D01*
X183868287Y-92667058D01*
X183715402Y-92895866D01*
X183610093Y-93150103D01*
X183556407Y-93420001D01*
X176240257Y-93420001D01*
X176298122Y-92771639D01*
X176301000Y-92742419D01*
X176301000Y-89712000D01*
X186823345Y-89712000D01*
X186696714Y-89838631D01*
M02*
