G04 #@! TF.GenerationSoftware,KiCad,Pcbnew,(5.1.4)-1*
G04 #@! TF.CreationDate,2020-04-18T17:13:35+10:00*
G04 #@! TF.ProjectId,c64-nes-adapter,6336342d-6e65-4732-9d61-646170746572,rev?*
G04 #@! TF.SameCoordinates,Original*
G04 #@! TF.FileFunction,Legend,Bot*
G04 #@! TF.FilePolarity,Positive*
%FSLAX46Y46*%
G04 Gerber Fmt 4.6, Leading zero omitted, Abs format (unit mm)*
G04 Created by KiCad (PCBNEW (5.1.4)-1) date 2020-04-18 17:13:35*
%MOMM*%
%LPD*%
G04 APERTURE LIST*
%ADD10C,0.010000*%
G04 APERTURE END LIST*
D10*
G36*
X196596000Y-102690083D02*
G01*
X196606584Y-102700666D01*
X196617167Y-102690083D01*
X196606584Y-102679500D01*
X196596000Y-102690083D01*
X196596000Y-102690083D01*
G37*
X196596000Y-102690083D02*
X196606584Y-102700666D01*
X196617167Y-102690083D01*
X196606584Y-102679500D01*
X196596000Y-102690083D01*
G36*
X196687375Y-102823697D02*
G01*
X196684851Y-102856778D01*
X196689046Y-102864267D01*
X196698666Y-102857954D01*
X196700163Y-102836486D01*
X196694993Y-102813900D01*
X196687375Y-102823697D01*
X196687375Y-102823697D01*
G37*
X196687375Y-102823697D02*
X196684851Y-102856778D01*
X196689046Y-102864267D01*
X196698666Y-102857954D01*
X196700163Y-102836486D01*
X196694993Y-102813900D01*
X196687375Y-102823697D01*
G36*
X196535222Y-102737811D02*
G01*
X196533262Y-102748291D01*
X196543659Y-102775298D01*
X196568021Y-102813587D01*
X196597625Y-102852039D01*
X196623749Y-102879537D01*
X196637670Y-102884963D01*
X196638229Y-102882086D01*
X196629671Y-102836261D01*
X196608722Y-102783782D01*
X196583070Y-102740394D01*
X196560400Y-102721842D01*
X196559998Y-102721833D01*
X196535222Y-102737811D01*
X196535222Y-102737811D01*
G37*
X196535222Y-102737811D02*
X196533262Y-102748291D01*
X196543659Y-102775298D01*
X196568021Y-102813587D01*
X196597625Y-102852039D01*
X196623749Y-102879537D01*
X196637670Y-102884963D01*
X196638229Y-102882086D01*
X196629671Y-102836261D01*
X196608722Y-102783782D01*
X196583070Y-102740394D01*
X196560400Y-102721842D01*
X196559998Y-102721833D01*
X196535222Y-102737811D01*
G36*
X196484091Y-103055717D02*
G01*
X196474307Y-103098986D01*
X196479644Y-103124189D01*
X196501518Y-103161449D01*
X196531236Y-103157189D01*
X196551441Y-103137266D01*
X196565179Y-103097330D01*
X196553839Y-103058351D01*
X196523372Y-103039415D01*
X196520902Y-103039333D01*
X196484091Y-103055717D01*
X196484091Y-103055717D01*
G37*
X196484091Y-103055717D02*
X196474307Y-103098986D01*
X196479644Y-103124189D01*
X196501518Y-103161449D01*
X196531236Y-103157189D01*
X196551441Y-103137266D01*
X196565179Y-103097330D01*
X196553839Y-103058351D01*
X196523372Y-103039415D01*
X196520902Y-103039333D01*
X196484091Y-103055717D01*
G36*
X196932099Y-103065442D02*
G01*
X196921918Y-103094789D01*
X196907977Y-103151888D01*
X196909340Y-103188182D01*
X196923534Y-103196800D01*
X196948082Y-103170869D01*
X196948867Y-103169623D01*
X196962811Y-103120953D01*
X196961273Y-103072435D01*
X196953400Y-103036787D01*
X196945511Y-103033414D01*
X196932099Y-103065442D01*
X196932099Y-103065442D01*
G37*
X196932099Y-103065442D02*
X196921918Y-103094789D01*
X196907977Y-103151888D01*
X196909340Y-103188182D01*
X196923534Y-103196800D01*
X196948082Y-103170869D01*
X196948867Y-103169623D01*
X196962811Y-103120953D01*
X196961273Y-103072435D01*
X196953400Y-103036787D01*
X196945511Y-103033414D01*
X196932099Y-103065442D01*
G36*
X196412556Y-103300388D02*
G01*
X196415462Y-103312972D01*
X196426667Y-103314500D01*
X196444090Y-103306755D01*
X196440778Y-103300388D01*
X196415658Y-103297855D01*
X196412556Y-103300388D01*
X196412556Y-103300388D01*
G37*
X196412556Y-103300388D02*
X196415462Y-103312972D01*
X196426667Y-103314500D01*
X196444090Y-103306755D01*
X196440778Y-103300388D01*
X196415658Y-103297855D01*
X196412556Y-103300388D01*
G36*
X196718246Y-103201827D02*
G01*
X196702049Y-103226955D01*
X196701834Y-103232111D01*
X196690494Y-103271789D01*
X196651525Y-103292283D01*
X196596447Y-103297957D01*
X196555771Y-103303901D01*
X196543910Y-103315800D01*
X196544158Y-103316237D01*
X196540080Y-103340693D01*
X196535245Y-103344553D01*
X196518728Y-103371649D01*
X196503876Y-103422041D01*
X196502628Y-103428350D01*
X196479735Y-103487996D01*
X196442945Y-103512411D01*
X196411251Y-103525638D01*
X196407489Y-103535210D01*
X196433266Y-103537759D01*
X196480295Y-103528885D01*
X196480648Y-103528789D01*
X196524921Y-103509650D01*
X196538119Y-103477387D01*
X196536991Y-103455405D01*
X196541418Y-103410282D01*
X196561768Y-103399166D01*
X196588283Y-103417864D01*
X196606109Y-103464748D01*
X196611847Y-103526002D01*
X196605374Y-103576366D01*
X196600634Y-103620051D01*
X196615458Y-103628761D01*
X196647103Y-103603500D01*
X196692825Y-103545272D01*
X196693663Y-103544067D01*
X196736696Y-103468372D01*
X196770946Y-103384633D01*
X196778352Y-103358859D01*
X196795577Y-103293122D01*
X196811391Y-103241203D01*
X196816304Y-103228069D01*
X196817683Y-103204248D01*
X196788364Y-103195208D01*
X196766245Y-103194555D01*
X196718246Y-103201827D01*
X196718246Y-103201827D01*
G37*
X196718246Y-103201827D02*
X196702049Y-103226955D01*
X196701834Y-103232111D01*
X196690494Y-103271789D01*
X196651525Y-103292283D01*
X196596447Y-103297957D01*
X196555771Y-103303901D01*
X196543910Y-103315800D01*
X196544158Y-103316237D01*
X196540080Y-103340693D01*
X196535245Y-103344553D01*
X196518728Y-103371649D01*
X196503876Y-103422041D01*
X196502628Y-103428350D01*
X196479735Y-103487996D01*
X196442945Y-103512411D01*
X196411251Y-103525638D01*
X196407489Y-103535210D01*
X196433266Y-103537759D01*
X196480295Y-103528885D01*
X196480648Y-103528789D01*
X196524921Y-103509650D01*
X196538119Y-103477387D01*
X196536991Y-103455405D01*
X196541418Y-103410282D01*
X196561768Y-103399166D01*
X196588283Y-103417864D01*
X196606109Y-103464748D01*
X196611847Y-103526002D01*
X196605374Y-103576366D01*
X196600634Y-103620051D01*
X196615458Y-103628761D01*
X196647103Y-103603500D01*
X196692825Y-103545272D01*
X196693663Y-103544067D01*
X196736696Y-103468372D01*
X196770946Y-103384633D01*
X196778352Y-103358859D01*
X196795577Y-103293122D01*
X196811391Y-103241203D01*
X196816304Y-103228069D01*
X196817683Y-103204248D01*
X196788364Y-103195208D01*
X196766245Y-103194555D01*
X196718246Y-103201827D01*
G36*
X192187055Y-101142550D02*
G01*
X192113200Y-101175441D01*
X192018274Y-101206903D01*
X191925583Y-101229525D01*
X191827920Y-101253512D01*
X191728421Y-101289903D01*
X191619960Y-101342233D01*
X191495408Y-101414040D01*
X191347640Y-101508862D01*
X191304334Y-101537860D01*
X191207834Y-101608345D01*
X191117650Y-101686959D01*
X191029053Y-101779196D01*
X190937318Y-101890551D01*
X190837716Y-102026519D01*
X190725521Y-102192595D01*
X190677306Y-102266750D01*
X190515290Y-102524028D01*
X190377318Y-102757088D01*
X190259548Y-102973563D01*
X190158136Y-103181085D01*
X190069238Y-103387285D01*
X189989013Y-103599795D01*
X189952523Y-103706083D01*
X189909156Y-103831922D01*
X189862887Y-103959156D01*
X189818430Y-104075252D01*
X189780497Y-104167676D01*
X189770190Y-104190900D01*
X189737655Y-104267797D01*
X189716131Y-104330088D01*
X189708773Y-104368059D01*
X189710584Y-104374341D01*
X189740544Y-104379652D01*
X189800790Y-104375123D01*
X189880949Y-104362699D01*
X189970649Y-104344328D01*
X190059516Y-104321956D01*
X190137178Y-104297528D01*
X190154206Y-104291100D01*
X190268511Y-104256547D01*
X190410341Y-104229787D01*
X190565316Y-104212619D01*
X190719053Y-104206843D01*
X190805219Y-104209627D01*
X190927552Y-104219883D01*
X191016691Y-104234975D01*
X191081767Y-104258930D01*
X191131910Y-104295774D01*
X191176254Y-104349535D01*
X191198500Y-104383068D01*
X191272584Y-104499614D01*
X191452500Y-104498106D01*
X191589628Y-104489887D01*
X191717777Y-104469440D01*
X191766294Y-104457099D01*
X191886208Y-104408771D01*
X191997502Y-104333645D01*
X192018818Y-104315842D01*
X192126945Y-104224294D01*
X192211159Y-104157095D01*
X192278854Y-104110098D01*
X192337423Y-104079156D01*
X192394261Y-104060123D01*
X192456761Y-104048852D01*
X192504034Y-104043714D01*
X192618758Y-104025615D01*
X192742018Y-103994781D01*
X192816622Y-103969768D01*
X192907867Y-103938151D01*
X193000087Y-103911866D01*
X193073401Y-103896576D01*
X193073734Y-103896530D01*
X193132781Y-103887857D01*
X193222614Y-103873948D01*
X193332261Y-103856531D01*
X193450751Y-103837335D01*
X193484500Y-103831798D01*
X193772994Y-103788826D01*
X194033861Y-103760138D01*
X194279005Y-103744861D01*
X194520328Y-103742124D01*
X194659250Y-103745783D01*
X194808365Y-103751522D01*
X194980834Y-103758093D01*
X195157706Y-103764778D01*
X195320029Y-103770859D01*
X195357750Y-103772261D01*
X195478233Y-103777864D01*
X195584759Y-103784954D01*
X195669769Y-103792859D01*
X195725702Y-103800907D01*
X195744042Y-103806646D01*
X195762992Y-103811683D01*
X195770147Y-103781945D01*
X195770500Y-103765281D01*
X195789674Y-103695090D01*
X195840293Y-103641122D01*
X195912007Y-103612884D01*
X195938659Y-103610833D01*
X196008839Y-103610833D01*
X195998066Y-103515248D01*
X195995955Y-103457613D01*
X196002011Y-103416070D01*
X196013587Y-103399379D01*
X196027984Y-103416157D01*
X196048772Y-103434645D01*
X196096383Y-103466435D01*
X196159606Y-103504119D01*
X196284129Y-103574827D01*
X196323177Y-103524038D01*
X196349596Y-103475905D01*
X196361842Y-103426369D01*
X196358126Y-103389320D01*
X196342000Y-103378000D01*
X196326423Y-103396278D01*
X196320161Y-103436208D01*
X196317500Y-103474754D01*
X196306712Y-103475834D01*
X196291862Y-103458049D01*
X196274831Y-103406111D01*
X196275758Y-103329786D01*
X196291421Y-103241340D01*
X196318598Y-103153040D01*
X196354066Y-103077151D01*
X196394603Y-103025939D01*
X196407738Y-103016969D01*
X196437154Y-102992624D01*
X196429229Y-102969928D01*
X196419609Y-102940937D01*
X196439572Y-102909768D01*
X196473506Y-102885125D01*
X196514557Y-102891861D01*
X196523949Y-102895943D01*
X196561868Y-102919172D01*
X196574834Y-102936897D01*
X196591038Y-102954170D01*
X196596000Y-102954666D01*
X196615998Y-102942745D01*
X196602377Y-102908728D01*
X196572321Y-102872179D01*
X196520781Y-102836662D01*
X196485102Y-102835124D01*
X196460894Y-102838315D01*
X196450492Y-102824969D01*
X196451276Y-102785795D01*
X196457290Y-102736438D01*
X196471022Y-102670866D01*
X196490204Y-102623330D01*
X196502176Y-102609700D01*
X196528840Y-102586115D01*
X196532500Y-102576233D01*
X196513347Y-102553794D01*
X196462618Y-102527421D01*
X196390410Y-102500625D01*
X196306822Y-102476919D01*
X196221950Y-102459817D01*
X196184082Y-102455020D01*
X196098682Y-102443878D01*
X196021179Y-102428850D01*
X195972416Y-102414598D01*
X195929835Y-102397163D01*
X195857193Y-102367307D01*
X195763559Y-102328763D01*
X195658002Y-102285262D01*
X195622334Y-102270553D01*
X195507791Y-102224230D01*
X195415277Y-102190110D01*
X195332170Y-102164890D01*
X195245848Y-102145269D01*
X195143690Y-102127943D01*
X195013074Y-102109611D01*
X195001063Y-102108008D01*
X194844288Y-102084528D01*
X194710659Y-102057251D01*
X194590898Y-102022433D01*
X194475727Y-101976332D01*
X194355871Y-101915204D01*
X194222051Y-101835305D01*
X194064991Y-101732894D01*
X194055275Y-101726387D01*
X193882334Y-101615425D01*
X193732243Y-101530930D01*
X193597631Y-101469728D01*
X193471123Y-101428644D01*
X193345347Y-101404503D01*
X193294898Y-101398996D01*
X193121003Y-101374757D01*
X192936678Y-101330898D01*
X192733972Y-101265206D01*
X192532000Y-101186725D01*
X192288584Y-101086176D01*
X192187055Y-101142550D01*
X192187055Y-101142550D01*
G37*
X192187055Y-101142550D02*
X192113200Y-101175441D01*
X192018274Y-101206903D01*
X191925583Y-101229525D01*
X191827920Y-101253512D01*
X191728421Y-101289903D01*
X191619960Y-101342233D01*
X191495408Y-101414040D01*
X191347640Y-101508862D01*
X191304334Y-101537860D01*
X191207834Y-101608345D01*
X191117650Y-101686959D01*
X191029053Y-101779196D01*
X190937318Y-101890551D01*
X190837716Y-102026519D01*
X190725521Y-102192595D01*
X190677306Y-102266750D01*
X190515290Y-102524028D01*
X190377318Y-102757088D01*
X190259548Y-102973563D01*
X190158136Y-103181085D01*
X190069238Y-103387285D01*
X189989013Y-103599795D01*
X189952523Y-103706083D01*
X189909156Y-103831922D01*
X189862887Y-103959156D01*
X189818430Y-104075252D01*
X189780497Y-104167676D01*
X189770190Y-104190900D01*
X189737655Y-104267797D01*
X189716131Y-104330088D01*
X189708773Y-104368059D01*
X189710584Y-104374341D01*
X189740544Y-104379652D01*
X189800790Y-104375123D01*
X189880949Y-104362699D01*
X189970649Y-104344328D01*
X190059516Y-104321956D01*
X190137178Y-104297528D01*
X190154206Y-104291100D01*
X190268511Y-104256547D01*
X190410341Y-104229787D01*
X190565316Y-104212619D01*
X190719053Y-104206843D01*
X190805219Y-104209627D01*
X190927552Y-104219883D01*
X191016691Y-104234975D01*
X191081767Y-104258930D01*
X191131910Y-104295774D01*
X191176254Y-104349535D01*
X191198500Y-104383068D01*
X191272584Y-104499614D01*
X191452500Y-104498106D01*
X191589628Y-104489887D01*
X191717777Y-104469440D01*
X191766294Y-104457099D01*
X191886208Y-104408771D01*
X191997502Y-104333645D01*
X192018818Y-104315842D01*
X192126945Y-104224294D01*
X192211159Y-104157095D01*
X192278854Y-104110098D01*
X192337423Y-104079156D01*
X192394261Y-104060123D01*
X192456761Y-104048852D01*
X192504034Y-104043714D01*
X192618758Y-104025615D01*
X192742018Y-103994781D01*
X192816622Y-103969768D01*
X192907867Y-103938151D01*
X193000087Y-103911866D01*
X193073401Y-103896576D01*
X193073734Y-103896530D01*
X193132781Y-103887857D01*
X193222614Y-103873948D01*
X193332261Y-103856531D01*
X193450751Y-103837335D01*
X193484500Y-103831798D01*
X193772994Y-103788826D01*
X194033861Y-103760138D01*
X194279005Y-103744861D01*
X194520328Y-103742124D01*
X194659250Y-103745783D01*
X194808365Y-103751522D01*
X194980834Y-103758093D01*
X195157706Y-103764778D01*
X195320029Y-103770859D01*
X195357750Y-103772261D01*
X195478233Y-103777864D01*
X195584759Y-103784954D01*
X195669769Y-103792859D01*
X195725702Y-103800907D01*
X195744042Y-103806646D01*
X195762992Y-103811683D01*
X195770147Y-103781945D01*
X195770500Y-103765281D01*
X195789674Y-103695090D01*
X195840293Y-103641122D01*
X195912007Y-103612884D01*
X195938659Y-103610833D01*
X196008839Y-103610833D01*
X195998066Y-103515248D01*
X195995955Y-103457613D01*
X196002011Y-103416070D01*
X196013587Y-103399379D01*
X196027984Y-103416157D01*
X196048772Y-103434645D01*
X196096383Y-103466435D01*
X196159606Y-103504119D01*
X196284129Y-103574827D01*
X196323177Y-103524038D01*
X196349596Y-103475905D01*
X196361842Y-103426369D01*
X196358126Y-103389320D01*
X196342000Y-103378000D01*
X196326423Y-103396278D01*
X196320161Y-103436208D01*
X196317500Y-103474754D01*
X196306712Y-103475834D01*
X196291862Y-103458049D01*
X196274831Y-103406111D01*
X196275758Y-103329786D01*
X196291421Y-103241340D01*
X196318598Y-103153040D01*
X196354066Y-103077151D01*
X196394603Y-103025939D01*
X196407738Y-103016969D01*
X196437154Y-102992624D01*
X196429229Y-102969928D01*
X196419609Y-102940937D01*
X196439572Y-102909768D01*
X196473506Y-102885125D01*
X196514557Y-102891861D01*
X196523949Y-102895943D01*
X196561868Y-102919172D01*
X196574834Y-102936897D01*
X196591038Y-102954170D01*
X196596000Y-102954666D01*
X196615998Y-102942745D01*
X196602377Y-102908728D01*
X196572321Y-102872179D01*
X196520781Y-102836662D01*
X196485102Y-102835124D01*
X196460894Y-102838315D01*
X196450492Y-102824969D01*
X196451276Y-102785795D01*
X196457290Y-102736438D01*
X196471022Y-102670866D01*
X196490204Y-102623330D01*
X196502176Y-102609700D01*
X196528840Y-102586115D01*
X196532500Y-102576233D01*
X196513347Y-102553794D01*
X196462618Y-102527421D01*
X196390410Y-102500625D01*
X196306822Y-102476919D01*
X196221950Y-102459817D01*
X196184082Y-102455020D01*
X196098682Y-102443878D01*
X196021179Y-102428850D01*
X195972416Y-102414598D01*
X195929835Y-102397163D01*
X195857193Y-102367307D01*
X195763559Y-102328763D01*
X195658002Y-102285262D01*
X195622334Y-102270553D01*
X195507791Y-102224230D01*
X195415277Y-102190110D01*
X195332170Y-102164890D01*
X195245848Y-102145269D01*
X195143690Y-102127943D01*
X195013074Y-102109611D01*
X195001063Y-102108008D01*
X194844288Y-102084528D01*
X194710659Y-102057251D01*
X194590898Y-102022433D01*
X194475727Y-101976332D01*
X194355871Y-101915204D01*
X194222051Y-101835305D01*
X194064991Y-101732894D01*
X194055275Y-101726387D01*
X193882334Y-101615425D01*
X193732243Y-101530930D01*
X193597631Y-101469728D01*
X193471123Y-101428644D01*
X193345347Y-101404503D01*
X193294898Y-101398996D01*
X193121003Y-101374757D01*
X192936678Y-101330898D01*
X192733972Y-101265206D01*
X192532000Y-101186725D01*
X192288584Y-101086176D01*
X192187055Y-101142550D01*
G36*
X194209800Y-104411028D02*
G01*
X194160625Y-104423551D01*
X194084348Y-104436064D01*
X193996136Y-104446151D01*
X193981917Y-104447378D01*
X193890968Y-104456881D01*
X193830129Y-104469778D01*
X193787178Y-104489772D01*
X193754375Y-104516267D01*
X193715866Y-104563059D01*
X193696657Y-104606806D01*
X193696167Y-104612628D01*
X193698277Y-104629099D01*
X193709000Y-104640118D01*
X193734928Y-104646379D01*
X193782650Y-104648576D01*
X193858758Y-104647404D01*
X193969842Y-104643558D01*
X193984452Y-104643002D01*
X194135269Y-104639507D01*
X194250987Y-104642244D01*
X194338424Y-104651514D01*
X194380541Y-104660440D01*
X194452087Y-104674664D01*
X194513998Y-104679153D01*
X194536756Y-104676727D01*
X194567447Y-104672943D01*
X194581396Y-104688966D01*
X194585087Y-104734815D01*
X194585167Y-104751538D01*
X194593819Y-104814113D01*
X194616928Y-104839370D01*
X194650227Y-104825494D01*
X194677725Y-104790875D01*
X194707113Y-104734432D01*
X194721973Y-104695625D01*
X194745062Y-104658532D01*
X194768274Y-104648000D01*
X194795256Y-104640119D01*
X194789084Y-104620087D01*
X194755122Y-104593319D01*
X194698731Y-104565231D01*
X194678656Y-104557506D01*
X194605541Y-104529685D01*
X194513493Y-104492736D01*
X194422316Y-104454610D01*
X194421467Y-104454246D01*
X194339015Y-104420832D01*
X194282994Y-104404337D01*
X194242121Y-104402455D01*
X194209800Y-104411028D01*
X194209800Y-104411028D01*
G37*
X194209800Y-104411028D02*
X194160625Y-104423551D01*
X194084348Y-104436064D01*
X193996136Y-104446151D01*
X193981917Y-104447378D01*
X193890968Y-104456881D01*
X193830129Y-104469778D01*
X193787178Y-104489772D01*
X193754375Y-104516267D01*
X193715866Y-104563059D01*
X193696657Y-104606806D01*
X193696167Y-104612628D01*
X193698277Y-104629099D01*
X193709000Y-104640118D01*
X193734928Y-104646379D01*
X193782650Y-104648576D01*
X193858758Y-104647404D01*
X193969842Y-104643558D01*
X193984452Y-104643002D01*
X194135269Y-104639507D01*
X194250987Y-104642244D01*
X194338424Y-104651514D01*
X194380541Y-104660440D01*
X194452087Y-104674664D01*
X194513998Y-104679153D01*
X194536756Y-104676727D01*
X194567447Y-104672943D01*
X194581396Y-104688966D01*
X194585087Y-104734815D01*
X194585167Y-104751538D01*
X194593819Y-104814113D01*
X194616928Y-104839370D01*
X194650227Y-104825494D01*
X194677725Y-104790875D01*
X194707113Y-104734432D01*
X194721973Y-104695625D01*
X194745062Y-104658532D01*
X194768274Y-104648000D01*
X194795256Y-104640119D01*
X194789084Y-104620087D01*
X194755122Y-104593319D01*
X194698731Y-104565231D01*
X194678656Y-104557506D01*
X194605541Y-104529685D01*
X194513493Y-104492736D01*
X194422316Y-104454610D01*
X194421467Y-104454246D01*
X194339015Y-104420832D01*
X194282994Y-104404337D01*
X194242121Y-104402455D01*
X194209800Y-104411028D01*
G36*
X192365321Y-104751673D02*
G01*
X192354270Y-104800529D01*
X192342540Y-104866987D01*
X192332031Y-104938800D01*
X192324640Y-105003720D01*
X192322266Y-105049502D01*
X192323120Y-105059580D01*
X192331438Y-105087100D01*
X192347926Y-105082109D01*
X192367959Y-105063018D01*
X192395880Y-105010615D01*
X192405000Y-104944552D01*
X192410730Y-104860505D01*
X192428260Y-104816000D01*
X192458102Y-104809779D01*
X192459669Y-104810351D01*
X192485753Y-104808200D01*
X192489667Y-104797907D01*
X192472614Y-104776665D01*
X192433610Y-104752372D01*
X192390887Y-104735293D01*
X192373795Y-104732666D01*
X192365321Y-104751673D01*
X192365321Y-104751673D01*
G37*
X192365321Y-104751673D02*
X192354270Y-104800529D01*
X192342540Y-104866987D01*
X192332031Y-104938800D01*
X192324640Y-105003720D01*
X192322266Y-105049502D01*
X192323120Y-105059580D01*
X192331438Y-105087100D01*
X192347926Y-105082109D01*
X192367959Y-105063018D01*
X192395880Y-105010615D01*
X192405000Y-104944552D01*
X192410730Y-104860505D01*
X192428260Y-104816000D01*
X192458102Y-104809779D01*
X192459669Y-104810351D01*
X192485753Y-104808200D01*
X192489667Y-104797907D01*
X192472614Y-104776665D01*
X192433610Y-104752372D01*
X192390887Y-104735293D01*
X192373795Y-104732666D01*
X192365321Y-104751673D01*
G36*
X188969529Y-104806132D02*
G01*
X188912912Y-104830638D01*
X188854013Y-104861601D01*
X188808699Y-104890936D01*
X188794140Y-104905145D01*
X188799960Y-104930603D01*
X188826971Y-104978478D01*
X188869385Y-105038564D01*
X188870903Y-105040536D01*
X188926396Y-105106828D01*
X188969536Y-105142975D01*
X189008807Y-105155681D01*
X189016967Y-105156000D01*
X189047908Y-105154234D01*
X189064265Y-105142437D01*
X189069672Y-105110860D01*
X189067761Y-105049755D01*
X189066275Y-105023708D01*
X189058572Y-104919463D01*
X189048810Y-104851199D01*
X189035363Y-104812567D01*
X189016605Y-104797217D01*
X189007999Y-104796166D01*
X188969529Y-104806132D01*
X188969529Y-104806132D01*
G37*
X188969529Y-104806132D02*
X188912912Y-104830638D01*
X188854013Y-104861601D01*
X188808699Y-104890936D01*
X188794140Y-104905145D01*
X188799960Y-104930603D01*
X188826971Y-104978478D01*
X188869385Y-105038564D01*
X188870903Y-105040536D01*
X188926396Y-105106828D01*
X188969536Y-105142975D01*
X189008807Y-105155681D01*
X189016967Y-105156000D01*
X189047908Y-105154234D01*
X189064265Y-105142437D01*
X189069672Y-105110860D01*
X189067761Y-105049755D01*
X189066275Y-105023708D01*
X189058572Y-104919463D01*
X189048810Y-104851199D01*
X189035363Y-104812567D01*
X189016605Y-104797217D01*
X189007999Y-104796166D01*
X188969529Y-104806132D01*
G36*
X189834927Y-104836111D02*
G01*
X189793529Y-104847413D01*
X189684561Y-104879091D01*
X189615832Y-105065170D01*
X189578287Y-105170180D01*
X189556281Y-105241144D01*
X189548730Y-105282949D01*
X189554547Y-105300482D01*
X189563375Y-105301497D01*
X189591415Y-105293682D01*
X189644335Y-105276924D01*
X189674500Y-105266962D01*
X189745796Y-105235529D01*
X189826970Y-105188897D01*
X189875584Y-105155458D01*
X189969728Y-105096408D01*
X190062900Y-105065795D01*
X190091477Y-105061154D01*
X190168964Y-105046470D01*
X190215771Y-105023015D01*
X190243540Y-104983023D01*
X190254550Y-104952363D01*
X190257801Y-104930115D01*
X190246744Y-104913045D01*
X190214148Y-104897276D01*
X190152781Y-104878928D01*
X190085389Y-104861606D01*
X189994969Y-104839911D01*
X189931990Y-104828862D01*
X189883095Y-104827812D01*
X189834927Y-104836111D01*
X189834927Y-104836111D01*
G37*
X189834927Y-104836111D02*
X189793529Y-104847413D01*
X189684561Y-104879091D01*
X189615832Y-105065170D01*
X189578287Y-105170180D01*
X189556281Y-105241144D01*
X189548730Y-105282949D01*
X189554547Y-105300482D01*
X189563375Y-105301497D01*
X189591415Y-105293682D01*
X189644335Y-105276924D01*
X189674500Y-105266962D01*
X189745796Y-105235529D01*
X189826970Y-105188897D01*
X189875584Y-105155458D01*
X189969728Y-105096408D01*
X190062900Y-105065795D01*
X190091477Y-105061154D01*
X190168964Y-105046470D01*
X190215771Y-105023015D01*
X190243540Y-104983023D01*
X190254550Y-104952363D01*
X190257801Y-104930115D01*
X190246744Y-104913045D01*
X190214148Y-104897276D01*
X190152781Y-104878928D01*
X190085389Y-104861606D01*
X189994969Y-104839911D01*
X189931990Y-104828862D01*
X189883095Y-104827812D01*
X189834927Y-104836111D01*
G36*
X194350999Y-105593891D02*
G01*
X194342167Y-105600154D01*
X194307210Y-105618898D01*
X194245535Y-105643314D01*
X194178944Y-105665446D01*
X194105108Y-105685663D01*
X194042899Y-105695028D01*
X193975415Y-105694490D01*
X193885757Y-105685003D01*
X193869433Y-105682878D01*
X193771389Y-105671707D01*
X193709890Y-105670050D01*
X193679990Y-105679007D01*
X193676747Y-105699677D01*
X193688566Y-105723107D01*
X193702006Y-105738558D01*
X193724571Y-105751392D01*
X193762102Y-105762807D01*
X193820440Y-105774004D01*
X193905427Y-105786183D01*
X194022902Y-105800543D01*
X194119500Y-105811621D01*
X194215478Y-105823035D01*
X194298321Y-105833912D01*
X194357324Y-105842790D01*
X194378792Y-105847055D01*
X194404074Y-105846291D01*
X194414470Y-105818612D01*
X194415834Y-105784137D01*
X194421557Y-105731627D01*
X194444730Y-105705877D01*
X194468750Y-105697641D01*
X194512155Y-105675916D01*
X194517035Y-105646752D01*
X194484849Y-105616616D01*
X194446765Y-105600229D01*
X194387990Y-105586341D01*
X194350999Y-105593891D01*
X194350999Y-105593891D01*
G37*
X194350999Y-105593891D02*
X194342167Y-105600154D01*
X194307210Y-105618898D01*
X194245535Y-105643314D01*
X194178944Y-105665446D01*
X194105108Y-105685663D01*
X194042899Y-105695028D01*
X193975415Y-105694490D01*
X193885757Y-105685003D01*
X193869433Y-105682878D01*
X193771389Y-105671707D01*
X193709890Y-105670050D01*
X193679990Y-105679007D01*
X193676747Y-105699677D01*
X193688566Y-105723107D01*
X193702006Y-105738558D01*
X193724571Y-105751392D01*
X193762102Y-105762807D01*
X193820440Y-105774004D01*
X193905427Y-105786183D01*
X194022902Y-105800543D01*
X194119500Y-105811621D01*
X194215478Y-105823035D01*
X194298321Y-105833912D01*
X194357324Y-105842790D01*
X194378792Y-105847055D01*
X194404074Y-105846291D01*
X194414470Y-105818612D01*
X194415834Y-105784137D01*
X194421557Y-105731627D01*
X194444730Y-105705877D01*
X194468750Y-105697641D01*
X194512155Y-105675916D01*
X194517035Y-105646752D01*
X194484849Y-105616616D01*
X194446765Y-105600229D01*
X194387990Y-105586341D01*
X194350999Y-105593891D01*
G36*
X196031208Y-106146864D02*
G01*
X196028685Y-106179945D01*
X196032879Y-106187434D01*
X196042499Y-106181121D01*
X196043996Y-106159652D01*
X196038827Y-106137067D01*
X196031208Y-106146864D01*
X196031208Y-106146864D01*
G37*
X196031208Y-106146864D02*
X196028685Y-106179945D01*
X196032879Y-106187434D01*
X196042499Y-106181121D01*
X196043996Y-106159652D01*
X196038827Y-106137067D01*
X196031208Y-106146864D01*
G36*
X193672711Y-106176742D02*
G01*
X193671825Y-106182583D01*
X193688304Y-106207401D01*
X193694580Y-106210276D01*
X193713880Y-106200058D01*
X193717334Y-106182583D01*
X193706594Y-106156239D01*
X193694580Y-106154890D01*
X193672711Y-106176742D01*
X193672711Y-106176742D01*
G37*
X193672711Y-106176742D02*
X193671825Y-106182583D01*
X193688304Y-106207401D01*
X193694580Y-106210276D01*
X193713880Y-106200058D01*
X193717334Y-106182583D01*
X193706594Y-106156239D01*
X193694580Y-106154890D01*
X193672711Y-106176742D01*
G36*
X200220824Y-105905508D02*
G01*
X200182448Y-105913966D01*
X200115745Y-105925527D01*
X200034369Y-105937844D01*
X200025000Y-105939160D01*
X199866250Y-105961263D01*
X199733959Y-106103241D01*
X199676058Y-106165963D01*
X199631026Y-106215849D01*
X199605292Y-106245724D01*
X199601667Y-106250943D01*
X199619124Y-106256949D01*
X199659154Y-106254777D01*
X199703250Y-106246465D01*
X199728667Y-106236967D01*
X199773262Y-106219107D01*
X199849883Y-106196370D01*
X199948814Y-106170929D01*
X200060338Y-106144957D01*
X200174739Y-106120627D01*
X200282301Y-106100114D01*
X200373309Y-106085589D01*
X200432933Y-106079439D01*
X200518081Y-106073928D01*
X200568198Y-106065591D01*
X200590579Y-106050960D01*
X200592522Y-106026567D01*
X200587041Y-106006206D01*
X200568834Y-105980830D01*
X200527087Y-105959251D01*
X200454024Y-105937968D01*
X200415807Y-105929091D01*
X200334701Y-105913537D01*
X200266309Y-105904896D01*
X200223888Y-105904770D01*
X200220824Y-105905508D01*
X200220824Y-105905508D01*
G37*
X200220824Y-105905508D02*
X200182448Y-105913966D01*
X200115745Y-105925527D01*
X200034369Y-105937844D01*
X200025000Y-105939160D01*
X199866250Y-105961263D01*
X199733959Y-106103241D01*
X199676058Y-106165963D01*
X199631026Y-106215849D01*
X199605292Y-106245724D01*
X199601667Y-106250943D01*
X199619124Y-106256949D01*
X199659154Y-106254777D01*
X199703250Y-106246465D01*
X199728667Y-106236967D01*
X199773262Y-106219107D01*
X199849883Y-106196370D01*
X199948814Y-106170929D01*
X200060338Y-106144957D01*
X200174739Y-106120627D01*
X200282301Y-106100114D01*
X200373309Y-106085589D01*
X200432933Y-106079439D01*
X200518081Y-106073928D01*
X200568198Y-106065591D01*
X200590579Y-106050960D01*
X200592522Y-106026567D01*
X200587041Y-106006206D01*
X200568834Y-105980830D01*
X200527087Y-105959251D01*
X200454024Y-105937968D01*
X200415807Y-105929091D01*
X200334701Y-105913537D01*
X200266309Y-105904896D01*
X200223888Y-105904770D01*
X200220824Y-105905508D01*
G36*
X196072000Y-106228386D02*
G01*
X196097911Y-106268496D01*
X196122937Y-106315950D01*
X196129661Y-106346625D01*
X196139220Y-106379345D01*
X196158964Y-106377359D01*
X196178260Y-106342821D01*
X196180089Y-106336406D01*
X196193918Y-106304887D01*
X196213993Y-106310922D01*
X196218541Y-106315240D01*
X196253243Y-106338818D01*
X196275652Y-106334808D01*
X196278500Y-106323530D01*
X196261400Y-106304550D01*
X196217216Y-106274036D01*
X196172667Y-106248126D01*
X196106459Y-106215750D01*
X196073191Y-106209091D01*
X196072000Y-106228386D01*
X196072000Y-106228386D01*
G37*
X196072000Y-106228386D02*
X196097911Y-106268496D01*
X196122937Y-106315950D01*
X196129661Y-106346625D01*
X196139220Y-106379345D01*
X196158964Y-106377359D01*
X196178260Y-106342821D01*
X196180089Y-106336406D01*
X196193918Y-106304887D01*
X196213993Y-106310922D01*
X196218541Y-106315240D01*
X196253243Y-106338818D01*
X196275652Y-106334808D01*
X196278500Y-106323530D01*
X196261400Y-106304550D01*
X196217216Y-106274036D01*
X196172667Y-106248126D01*
X196106459Y-106215750D01*
X196073191Y-106209091D01*
X196072000Y-106228386D01*
G36*
X193021040Y-106074636D02*
G01*
X192973986Y-106111056D01*
X192932820Y-106129208D01*
X192927717Y-106129666D01*
X192895936Y-106140277D01*
X192897365Y-106168455D01*
X192929704Y-106208714D01*
X192976500Y-106246083D01*
X193039364Y-106301288D01*
X193061155Y-106351029D01*
X193061167Y-106352149D01*
X193071897Y-106388624D01*
X193111106Y-106409084D01*
X193129959Y-106413496D01*
X193194249Y-106422243D01*
X193286747Y-106429653D01*
X193393335Y-106435153D01*
X193499895Y-106438168D01*
X193592308Y-106438125D01*
X193653834Y-106434766D01*
X193975071Y-106384912D01*
X194263106Y-106312213D01*
X194520842Y-106215927D01*
X194535864Y-106209176D01*
X194624351Y-106164023D01*
X194680588Y-106124284D01*
X194699067Y-106098841D01*
X194703776Y-106056158D01*
X194686215Y-106048222D01*
X194663492Y-106062646D01*
X194629464Y-106074638D01*
X194612496Y-106063861D01*
X194580293Y-106054560D01*
X194525969Y-106074526D01*
X194525150Y-106074948D01*
X194462059Y-106095319D01*
X194367214Y-106106167D01*
X194272606Y-106108500D01*
X194121188Y-106113521D01*
X193989338Y-106127810D01*
X193883622Y-106150207D01*
X193810606Y-106179552D01*
X193791417Y-106193534D01*
X193725420Y-106240700D01*
X193663503Y-106260663D01*
X193615661Y-106250614D01*
X193608745Y-106244839D01*
X193571905Y-106224254D01*
X193509713Y-106203722D01*
X193464808Y-106193446D01*
X193385584Y-106171060D01*
X193292369Y-106134190D01*
X193214543Y-106095697D01*
X193078479Y-106019605D01*
X193021040Y-106074636D01*
X193021040Y-106074636D01*
G37*
X193021040Y-106074636D02*
X192973986Y-106111056D01*
X192932820Y-106129208D01*
X192927717Y-106129666D01*
X192895936Y-106140277D01*
X192897365Y-106168455D01*
X192929704Y-106208714D01*
X192976500Y-106246083D01*
X193039364Y-106301288D01*
X193061155Y-106351029D01*
X193061167Y-106352149D01*
X193071897Y-106388624D01*
X193111106Y-106409084D01*
X193129959Y-106413496D01*
X193194249Y-106422243D01*
X193286747Y-106429653D01*
X193393335Y-106435153D01*
X193499895Y-106438168D01*
X193592308Y-106438125D01*
X193653834Y-106434766D01*
X193975071Y-106384912D01*
X194263106Y-106312213D01*
X194520842Y-106215927D01*
X194535864Y-106209176D01*
X194624351Y-106164023D01*
X194680588Y-106124284D01*
X194699067Y-106098841D01*
X194703776Y-106056158D01*
X194686215Y-106048222D01*
X194663492Y-106062646D01*
X194629464Y-106074638D01*
X194612496Y-106063861D01*
X194580293Y-106054560D01*
X194525969Y-106074526D01*
X194525150Y-106074948D01*
X194462059Y-106095319D01*
X194367214Y-106106167D01*
X194272606Y-106108500D01*
X194121188Y-106113521D01*
X193989338Y-106127810D01*
X193883622Y-106150207D01*
X193810606Y-106179552D01*
X193791417Y-106193534D01*
X193725420Y-106240700D01*
X193663503Y-106260663D01*
X193615661Y-106250614D01*
X193608745Y-106244839D01*
X193571905Y-106224254D01*
X193509713Y-106203722D01*
X193464808Y-106193446D01*
X193385584Y-106171060D01*
X193292369Y-106134190D01*
X193214543Y-106095697D01*
X193078479Y-106019605D01*
X193021040Y-106074636D01*
G36*
X192616667Y-106627083D02*
G01*
X192627250Y-106637666D01*
X192637834Y-106627083D01*
X192627250Y-106616500D01*
X192616667Y-106627083D01*
X192616667Y-106627083D01*
G37*
X192616667Y-106627083D02*
X192627250Y-106637666D01*
X192637834Y-106627083D01*
X192627250Y-106616500D01*
X192616667Y-106627083D01*
G36*
X196617782Y-106823107D02*
G01*
X196617167Y-106828166D01*
X196633274Y-106848718D01*
X196638334Y-106849333D01*
X196658885Y-106833226D01*
X196659500Y-106828166D01*
X196643393Y-106807615D01*
X196638334Y-106807000D01*
X196617782Y-106823107D01*
X196617782Y-106823107D01*
G37*
X196617782Y-106823107D02*
X196617167Y-106828166D01*
X196633274Y-106848718D01*
X196638334Y-106849333D01*
X196658885Y-106833226D01*
X196659500Y-106828166D01*
X196643393Y-106807615D01*
X196638334Y-106807000D01*
X196617782Y-106823107D01*
G36*
X196687723Y-107533722D02*
G01*
X196685189Y-107558842D01*
X196687723Y-107561944D01*
X196700306Y-107559038D01*
X196701834Y-107547833D01*
X196694089Y-107530410D01*
X196687723Y-107533722D01*
X196687723Y-107533722D01*
G37*
X196687723Y-107533722D02*
X196685189Y-107558842D01*
X196687723Y-107561944D01*
X196700306Y-107559038D01*
X196701834Y-107547833D01*
X196694089Y-107530410D01*
X196687723Y-107533722D01*
G36*
X193696167Y-107960583D02*
G01*
X193706750Y-107971166D01*
X193717334Y-107960583D01*
X193706750Y-107950000D01*
X193696167Y-107960583D01*
X193696167Y-107960583D01*
G37*
X193696167Y-107960583D02*
X193706750Y-107971166D01*
X193717334Y-107960583D01*
X193706750Y-107950000D01*
X193696167Y-107960583D01*
G36*
X193174993Y-107446909D02*
G01*
X193124999Y-107463236D01*
X193104686Y-107493381D01*
X193103500Y-107506515D01*
X193093241Y-107546088D01*
X193082334Y-107558416D01*
X193061893Y-107585536D01*
X193074844Y-107607680D01*
X193092917Y-107611333D01*
X193121054Y-107598044D01*
X193124667Y-107586638D01*
X193132903Y-107572122D01*
X193138118Y-107575394D01*
X193137423Y-107600493D01*
X193116951Y-107641678D01*
X193088937Y-107688773D01*
X193086424Y-107711030D01*
X193109034Y-107717112D01*
X193113681Y-107717166D01*
X193141336Y-107699045D01*
X193158976Y-107661590D01*
X193170926Y-107625306D01*
X193183301Y-107626583D01*
X193193039Y-107641957D01*
X193205107Y-107701728D01*
X193174935Y-107762523D01*
X193102487Y-107824406D01*
X193088295Y-107833583D01*
X193030404Y-107867410D01*
X192986941Y-107888241D01*
X192971209Y-107891791D01*
X192956224Y-107899693D01*
X192960101Y-107931886D01*
X192980627Y-107975946D01*
X192988284Y-107987623D01*
X193037451Y-108026745D01*
X193096517Y-108029738D01*
X193152743Y-107996244D01*
X193156417Y-107992333D01*
X193195809Y-107956632D01*
X193220707Y-107958426D01*
X193238099Y-107998731D01*
X193239571Y-108004426D01*
X193253515Y-108040660D01*
X193279413Y-108050008D01*
X193321241Y-108042362D01*
X193406937Y-108028600D01*
X193497175Y-108031000D01*
X193582384Y-108044012D01*
X193649937Y-108050542D01*
X193683518Y-108037717D01*
X193685045Y-108035538D01*
X193689787Y-108004180D01*
X193684806Y-107996216D01*
X193665347Y-107998183D01*
X193659812Y-108008039D01*
X193638436Y-108020261D01*
X193604587Y-108010870D01*
X193576200Y-107987708D01*
X193569167Y-107968409D01*
X193561136Y-107941478D01*
X193539185Y-107883894D01*
X193506522Y-107803718D01*
X193466358Y-107709008D01*
X193459860Y-107693987D01*
X193350552Y-107442000D01*
X193260508Y-107442000D01*
X193174993Y-107446909D01*
X193174993Y-107446909D01*
G37*
X193174993Y-107446909D02*
X193124999Y-107463236D01*
X193104686Y-107493381D01*
X193103500Y-107506515D01*
X193093241Y-107546088D01*
X193082334Y-107558416D01*
X193061893Y-107585536D01*
X193074844Y-107607680D01*
X193092917Y-107611333D01*
X193121054Y-107598044D01*
X193124667Y-107586638D01*
X193132903Y-107572122D01*
X193138118Y-107575394D01*
X193137423Y-107600493D01*
X193116951Y-107641678D01*
X193088937Y-107688773D01*
X193086424Y-107711030D01*
X193109034Y-107717112D01*
X193113681Y-107717166D01*
X193141336Y-107699045D01*
X193158976Y-107661590D01*
X193170926Y-107625306D01*
X193183301Y-107626583D01*
X193193039Y-107641957D01*
X193205107Y-107701728D01*
X193174935Y-107762523D01*
X193102487Y-107824406D01*
X193088295Y-107833583D01*
X193030404Y-107867410D01*
X192986941Y-107888241D01*
X192971209Y-107891791D01*
X192956224Y-107899693D01*
X192960101Y-107931886D01*
X192980627Y-107975946D01*
X192988284Y-107987623D01*
X193037451Y-108026745D01*
X193096517Y-108029738D01*
X193152743Y-107996244D01*
X193156417Y-107992333D01*
X193195809Y-107956632D01*
X193220707Y-107958426D01*
X193238099Y-107998731D01*
X193239571Y-108004426D01*
X193253515Y-108040660D01*
X193279413Y-108050008D01*
X193321241Y-108042362D01*
X193406937Y-108028600D01*
X193497175Y-108031000D01*
X193582384Y-108044012D01*
X193649937Y-108050542D01*
X193683518Y-108037717D01*
X193685045Y-108035538D01*
X193689787Y-108004180D01*
X193684806Y-107996216D01*
X193665347Y-107998183D01*
X193659812Y-108008039D01*
X193638436Y-108020261D01*
X193604587Y-108010870D01*
X193576200Y-107987708D01*
X193569167Y-107968409D01*
X193561136Y-107941478D01*
X193539185Y-107883894D01*
X193506522Y-107803718D01*
X193466358Y-107709008D01*
X193459860Y-107693987D01*
X193350552Y-107442000D01*
X193260508Y-107442000D01*
X193174993Y-107446909D01*
G36*
X196469000Y-108045250D02*
G01*
X196479584Y-108055833D01*
X196490167Y-108045250D01*
X196479584Y-108034666D01*
X196469000Y-108045250D01*
X196469000Y-108045250D01*
G37*
X196469000Y-108045250D02*
X196479584Y-108055833D01*
X196490167Y-108045250D01*
X196479584Y-108034666D01*
X196469000Y-108045250D01*
G36*
X201040139Y-106564300D02*
G01*
X201035725Y-106623663D01*
X201036768Y-106650995D01*
X201036691Y-106724280D01*
X201029113Y-106788039D01*
X201023888Y-106807237D01*
X201004658Y-106859221D01*
X200989653Y-106811944D01*
X200969801Y-106772467D01*
X200943064Y-106771260D01*
X200904790Y-106805483D01*
X200879249Y-106856090D01*
X200880936Y-106887525D01*
X200879848Y-106924513D01*
X200853905Y-106939242D01*
X200824626Y-106961110D01*
X200805364Y-107013433D01*
X200798837Y-107049435D01*
X200784251Y-107107637D01*
X200755542Y-107192669D01*
X200716843Y-107293168D01*
X200672288Y-107397767D01*
X200671710Y-107399055D01*
X200593060Y-107592298D01*
X200539777Y-107767156D01*
X200521219Y-107852403D01*
X200503299Y-107938803D01*
X200486026Y-108006978D01*
X200471845Y-108047981D01*
X200465619Y-108055833D01*
X200448814Y-108072050D01*
X200448334Y-108077000D01*
X200460120Y-108097084D01*
X200489575Y-108086248D01*
X200516180Y-108061125D01*
X200541298Y-108026115D01*
X200580009Y-107965440D01*
X200625205Y-107890361D01*
X200639761Y-107865333D01*
X200683740Y-107791495D01*
X200744518Y-107692833D01*
X200815537Y-107579827D01*
X200890238Y-107462959D01*
X200928467Y-107403977D01*
X201125667Y-107101371D01*
X201125667Y-106883260D01*
X201121883Y-106752062D01*
X201111073Y-106648627D01*
X201094049Y-106576892D01*
X201071623Y-106540791D01*
X201054470Y-106538322D01*
X201040139Y-106564300D01*
X201040139Y-106564300D01*
G37*
X201040139Y-106564300D02*
X201035725Y-106623663D01*
X201036768Y-106650995D01*
X201036691Y-106724280D01*
X201029113Y-106788039D01*
X201023888Y-106807237D01*
X201004658Y-106859221D01*
X200989653Y-106811944D01*
X200969801Y-106772467D01*
X200943064Y-106771260D01*
X200904790Y-106805483D01*
X200879249Y-106856090D01*
X200880936Y-106887525D01*
X200879848Y-106924513D01*
X200853905Y-106939242D01*
X200824626Y-106961110D01*
X200805364Y-107013433D01*
X200798837Y-107049435D01*
X200784251Y-107107637D01*
X200755542Y-107192669D01*
X200716843Y-107293168D01*
X200672288Y-107397767D01*
X200671710Y-107399055D01*
X200593060Y-107592298D01*
X200539777Y-107767156D01*
X200521219Y-107852403D01*
X200503299Y-107938803D01*
X200486026Y-108006978D01*
X200471845Y-108047981D01*
X200465619Y-108055833D01*
X200448814Y-108072050D01*
X200448334Y-108077000D01*
X200460120Y-108097084D01*
X200489575Y-108086248D01*
X200516180Y-108061125D01*
X200541298Y-108026115D01*
X200580009Y-107965440D01*
X200625205Y-107890361D01*
X200639761Y-107865333D01*
X200683740Y-107791495D01*
X200744518Y-107692833D01*
X200815537Y-107579827D01*
X200890238Y-107462959D01*
X200928467Y-107403977D01*
X201125667Y-107101371D01*
X201125667Y-106883260D01*
X201121883Y-106752062D01*
X201111073Y-106648627D01*
X201094049Y-106576892D01*
X201071623Y-106540791D01*
X201054470Y-106538322D01*
X201040139Y-106564300D01*
G36*
X195766077Y-108051790D02*
G01*
X195728964Y-108065152D01*
X195715005Y-108062498D01*
X195690797Y-108068445D01*
X195685834Y-108092640D01*
X195692228Y-108118541D01*
X195718609Y-108130147D01*
X195775778Y-108132012D01*
X195778991Y-108131946D01*
X195835619Y-108128581D01*
X195858305Y-108118966D01*
X195855396Y-108098825D01*
X195852961Y-108094053D01*
X195817397Y-108049428D01*
X195781327Y-108041827D01*
X195766077Y-108051790D01*
X195766077Y-108051790D01*
G37*
X195766077Y-108051790D02*
X195728964Y-108065152D01*
X195715005Y-108062498D01*
X195690797Y-108068445D01*
X195685834Y-108092640D01*
X195692228Y-108118541D01*
X195718609Y-108130147D01*
X195775778Y-108132012D01*
X195778991Y-108131946D01*
X195835619Y-108128581D01*
X195858305Y-108118966D01*
X195855396Y-108098825D01*
X195852961Y-108094053D01*
X195817397Y-108049428D01*
X195781327Y-108041827D01*
X195766077Y-108051790D01*
G36*
X195749334Y-108193416D02*
G01*
X195759917Y-108204000D01*
X195770500Y-108193416D01*
X195759917Y-108182833D01*
X195749334Y-108193416D01*
X195749334Y-108193416D01*
G37*
X195749334Y-108193416D02*
X195759917Y-108204000D01*
X195770500Y-108193416D01*
X195759917Y-108182833D01*
X195749334Y-108193416D01*
G36*
X190524444Y-107782150D02*
G01*
X190518825Y-107793163D01*
X190505993Y-107814703D01*
X190501488Y-107807125D01*
X190489609Y-107782465D01*
X190483566Y-107780666D01*
X190475034Y-107799289D01*
X190473752Y-107845792D01*
X190475110Y-107864329D01*
X190473551Y-107928303D01*
X190452719Y-107994515D01*
X190417461Y-108062698D01*
X190372517Y-108151705D01*
X190353720Y-108220294D01*
X190358639Y-108279278D01*
X190364682Y-108297518D01*
X190379343Y-108323514D01*
X190403787Y-108326442D01*
X190447084Y-108311103D01*
X190476343Y-108284443D01*
X190514843Y-108229694D01*
X190555137Y-108157673D01*
X190561411Y-108144945D01*
X190633405Y-107995999D01*
X190584040Y-107874371D01*
X190555980Y-107809757D01*
X190537384Y-107780598D01*
X190524444Y-107782150D01*
X190524444Y-107782150D01*
G37*
X190524444Y-107782150D02*
X190518825Y-107793163D01*
X190505993Y-107814703D01*
X190501488Y-107807125D01*
X190489609Y-107782465D01*
X190483566Y-107780666D01*
X190475034Y-107799289D01*
X190473752Y-107845792D01*
X190475110Y-107864329D01*
X190473551Y-107928303D01*
X190452719Y-107994515D01*
X190417461Y-108062698D01*
X190372517Y-108151705D01*
X190353720Y-108220294D01*
X190358639Y-108279278D01*
X190364682Y-108297518D01*
X190379343Y-108323514D01*
X190403787Y-108326442D01*
X190447084Y-108311103D01*
X190476343Y-108284443D01*
X190514843Y-108229694D01*
X190555137Y-108157673D01*
X190561411Y-108144945D01*
X190633405Y-107995999D01*
X190584040Y-107874371D01*
X190555980Y-107809757D01*
X190537384Y-107780598D01*
X190524444Y-107782150D01*
G36*
X199933157Y-106588203D02*
G01*
X199910803Y-106598747D01*
X199836866Y-106648965D01*
X199767371Y-106728641D01*
X199741283Y-106766913D01*
X199685544Y-106842777D01*
X199635721Y-106891259D01*
X199609780Y-106904761D01*
X199564868Y-106928873D01*
X199557181Y-106967057D01*
X199585218Y-107016292D01*
X199647473Y-107073559D01*
X199717444Y-107121021D01*
X199822637Y-107185283D01*
X199869728Y-107403599D01*
X199911657Y-107598116D01*
X199945379Y-107755533D01*
X199971597Y-107880133D01*
X199991011Y-107976202D01*
X200004324Y-108048024D01*
X200012239Y-108099884D01*
X200015456Y-108136067D01*
X200014678Y-108160856D01*
X200010607Y-108178537D01*
X200003944Y-108193395D01*
X200000260Y-108200354D01*
X199983525Y-108240822D01*
X199992063Y-108259391D01*
X199998542Y-108262144D01*
X200022751Y-108288192D01*
X200025000Y-108301013D01*
X200035789Y-108328268D01*
X200064572Y-108320777D01*
X200093615Y-108293958D01*
X200114577Y-108256675D01*
X200140785Y-108190932D01*
X200167339Y-108109365D01*
X200173319Y-108088479D01*
X200188375Y-108031976D01*
X200199565Y-107980778D01*
X200207243Y-107927858D01*
X200211767Y-107866191D01*
X200213492Y-107788752D01*
X200212774Y-107688514D01*
X200209969Y-107558452D01*
X200206577Y-107432312D01*
X200201809Y-107272508D01*
X200197017Y-107147725D01*
X200191428Y-107050659D01*
X200184270Y-106974005D01*
X200174771Y-106910457D01*
X200162158Y-106852710D01*
X200145660Y-106793459D01*
X200135557Y-106760488D01*
X200101858Y-106661207D01*
X200070983Y-106598810D01*
X200036718Y-106568825D01*
X199992848Y-106566780D01*
X199933157Y-106588203D01*
X199933157Y-106588203D01*
G37*
X199933157Y-106588203D02*
X199910803Y-106598747D01*
X199836866Y-106648965D01*
X199767371Y-106728641D01*
X199741283Y-106766913D01*
X199685544Y-106842777D01*
X199635721Y-106891259D01*
X199609780Y-106904761D01*
X199564868Y-106928873D01*
X199557181Y-106967057D01*
X199585218Y-107016292D01*
X199647473Y-107073559D01*
X199717444Y-107121021D01*
X199822637Y-107185283D01*
X199869728Y-107403599D01*
X199911657Y-107598116D01*
X199945379Y-107755533D01*
X199971597Y-107880133D01*
X199991011Y-107976202D01*
X200004324Y-108048024D01*
X200012239Y-108099884D01*
X200015456Y-108136067D01*
X200014678Y-108160856D01*
X200010607Y-108178537D01*
X200003944Y-108193395D01*
X200000260Y-108200354D01*
X199983525Y-108240822D01*
X199992063Y-108259391D01*
X199998542Y-108262144D01*
X200022751Y-108288192D01*
X200025000Y-108301013D01*
X200035789Y-108328268D01*
X200064572Y-108320777D01*
X200093615Y-108293958D01*
X200114577Y-108256675D01*
X200140785Y-108190932D01*
X200167339Y-108109365D01*
X200173319Y-108088479D01*
X200188375Y-108031976D01*
X200199565Y-107980778D01*
X200207243Y-107927858D01*
X200211767Y-107866191D01*
X200213492Y-107788752D01*
X200212774Y-107688514D01*
X200209969Y-107558452D01*
X200206577Y-107432312D01*
X200201809Y-107272508D01*
X200197017Y-107147725D01*
X200191428Y-107050659D01*
X200184270Y-106974005D01*
X200174771Y-106910457D01*
X200162158Y-106852710D01*
X200145660Y-106793459D01*
X200135557Y-106760488D01*
X200101858Y-106661207D01*
X200070983Y-106598810D01*
X200036718Y-106568825D01*
X199992848Y-106566780D01*
X199933157Y-106588203D01*
G36*
X198942620Y-107393379D02*
G01*
X198924499Y-107426449D01*
X198924334Y-107431172D01*
X198913577Y-107467669D01*
X198886318Y-107522624D01*
X198869391Y-107551043D01*
X198842791Y-107596405D01*
X198827550Y-107636645D01*
X198821703Y-107684501D01*
X198823287Y-107752709D01*
X198827847Y-107820497D01*
X198832967Y-107925361D01*
X198829184Y-108006750D01*
X198814811Y-108082899D01*
X198798285Y-108140500D01*
X198768716Y-108249558D01*
X198757935Y-108325402D01*
X198765508Y-108366766D01*
X198790998Y-108372385D01*
X198833972Y-108340994D01*
X198858314Y-108315123D01*
X198901652Y-108252712D01*
X198950171Y-108162639D01*
X198997922Y-108058084D01*
X199038959Y-107952229D01*
X199067333Y-107858257D01*
X199070258Y-107845403D01*
X199082890Y-107763470D01*
X199091390Y-107664248D01*
X199093667Y-107591559D01*
X199092209Y-107513206D01*
X199085429Y-107465226D01*
X199069716Y-107435690D01*
X199041461Y-107412672D01*
X199039040Y-107411075D01*
X198983987Y-107387696D01*
X198942620Y-107393379D01*
X198942620Y-107393379D01*
G37*
X198942620Y-107393379D02*
X198924499Y-107426449D01*
X198924334Y-107431172D01*
X198913577Y-107467669D01*
X198886318Y-107522624D01*
X198869391Y-107551043D01*
X198842791Y-107596405D01*
X198827550Y-107636645D01*
X198821703Y-107684501D01*
X198823287Y-107752709D01*
X198827847Y-107820497D01*
X198832967Y-107925361D01*
X198829184Y-108006750D01*
X198814811Y-108082899D01*
X198798285Y-108140500D01*
X198768716Y-108249558D01*
X198757935Y-108325402D01*
X198765508Y-108366766D01*
X198790998Y-108372385D01*
X198833972Y-108340994D01*
X198858314Y-108315123D01*
X198901652Y-108252712D01*
X198950171Y-108162639D01*
X198997922Y-108058084D01*
X199038959Y-107952229D01*
X199067333Y-107858257D01*
X199070258Y-107845403D01*
X199082890Y-107763470D01*
X199091390Y-107664248D01*
X199093667Y-107591559D01*
X199092209Y-107513206D01*
X199085429Y-107465226D01*
X199069716Y-107435690D01*
X199041461Y-107412672D01*
X199039040Y-107411075D01*
X198983987Y-107387696D01*
X198942620Y-107393379D01*
G36*
X199591269Y-107682580D02*
G01*
X199558537Y-107715938D01*
X199518966Y-107769647D01*
X199479241Y-107835281D01*
X199466624Y-107859338D01*
X199423726Y-107972305D01*
X199411167Y-108085264D01*
X199415096Y-108164287D01*
X199425436Y-108247290D01*
X199440020Y-108323599D01*
X199456677Y-108382541D01*
X199473240Y-108413442D01*
X199478303Y-108415666D01*
X199495428Y-108399545D01*
X199495834Y-108395164D01*
X199511282Y-108383353D01*
X199526722Y-108386514D01*
X199559957Y-108381568D01*
X199612476Y-108356209D01*
X199652146Y-108330477D01*
X199701292Y-108293493D01*
X199730609Y-108261671D01*
X199746667Y-108221751D01*
X199756034Y-108160470D01*
X199760894Y-108110929D01*
X199767148Y-108031303D01*
X199765199Y-107975346D01*
X199751261Y-107926282D01*
X199721552Y-107867334D01*
X199695799Y-107822344D01*
X199656857Y-107755476D01*
X199626764Y-107704493D01*
X199611222Y-107679039D01*
X199610479Y-107677996D01*
X199591269Y-107682580D01*
X199591269Y-107682580D01*
G37*
X199591269Y-107682580D02*
X199558537Y-107715938D01*
X199518966Y-107769647D01*
X199479241Y-107835281D01*
X199466624Y-107859338D01*
X199423726Y-107972305D01*
X199411167Y-108085264D01*
X199415096Y-108164287D01*
X199425436Y-108247290D01*
X199440020Y-108323599D01*
X199456677Y-108382541D01*
X199473240Y-108413442D01*
X199478303Y-108415666D01*
X199495428Y-108399545D01*
X199495834Y-108395164D01*
X199511282Y-108383353D01*
X199526722Y-108386514D01*
X199559957Y-108381568D01*
X199612476Y-108356209D01*
X199652146Y-108330477D01*
X199701292Y-108293493D01*
X199730609Y-108261671D01*
X199746667Y-108221751D01*
X199756034Y-108160470D01*
X199760894Y-108110929D01*
X199767148Y-108031303D01*
X199765199Y-107975346D01*
X199751261Y-107926282D01*
X199721552Y-107867334D01*
X199695799Y-107822344D01*
X199656857Y-107755476D01*
X199626764Y-107704493D01*
X199611222Y-107679039D01*
X199610479Y-107677996D01*
X199591269Y-107682580D01*
G36*
X199956209Y-108383654D02*
G01*
X199900344Y-108398004D01*
X199839265Y-108409667D01*
X199773392Y-108435142D01*
X199741101Y-108483223D01*
X199742806Y-108539244D01*
X199755432Y-108569521D01*
X199777661Y-108579457D01*
X199817555Y-108568299D01*
X199883175Y-108535295D01*
X199903231Y-108524271D01*
X199966826Y-108483542D01*
X199997626Y-108447500D01*
X200003773Y-108418489D01*
X199997628Y-108382765D01*
X199970791Y-108379471D01*
X199956209Y-108383654D01*
X199956209Y-108383654D01*
G37*
X199956209Y-108383654D02*
X199900344Y-108398004D01*
X199839265Y-108409667D01*
X199773392Y-108435142D01*
X199741101Y-108483223D01*
X199742806Y-108539244D01*
X199755432Y-108569521D01*
X199777661Y-108579457D01*
X199817555Y-108568299D01*
X199883175Y-108535295D01*
X199903231Y-108524271D01*
X199966826Y-108483542D01*
X199997626Y-108447500D01*
X200003773Y-108418489D01*
X199997628Y-108382765D01*
X199970791Y-108379471D01*
X199956209Y-108383654D01*
G36*
X199382650Y-108472988D02*
G01*
X199333304Y-108492734D01*
X199269194Y-108531669D01*
X199199787Y-108582201D01*
X199134548Y-108636740D01*
X199082941Y-108687696D01*
X199054432Y-108727477D01*
X199051617Y-108738458D01*
X199059706Y-108770100D01*
X199087325Y-108767616D01*
X199119317Y-108746625D01*
X199159997Y-108726538D01*
X199224842Y-108704987D01*
X199269910Y-108693505D01*
X199369408Y-108660046D01*
X199435557Y-108613190D01*
X199465097Y-108555956D01*
X199463121Y-108514618D01*
X199448270Y-108477584D01*
X199420083Y-108467742D01*
X199382650Y-108472988D01*
X199382650Y-108472988D01*
G37*
X199382650Y-108472988D02*
X199333304Y-108492734D01*
X199269194Y-108531669D01*
X199199787Y-108582201D01*
X199134548Y-108636740D01*
X199082941Y-108687696D01*
X199054432Y-108727477D01*
X199051617Y-108738458D01*
X199059706Y-108770100D01*
X199087325Y-108767616D01*
X199119317Y-108746625D01*
X199159997Y-108726538D01*
X199224842Y-108704987D01*
X199269910Y-108693505D01*
X199369408Y-108660046D01*
X199435557Y-108613190D01*
X199465097Y-108555956D01*
X199463121Y-108514618D01*
X199448270Y-108477584D01*
X199420083Y-108467742D01*
X199382650Y-108472988D01*
G36*
X191349259Y-108852349D02*
G01*
X191281410Y-108861616D01*
X191260510Y-108866954D01*
X191198532Y-108882235D01*
X191151539Y-108887866D01*
X191140077Y-108886553D01*
X191117905Y-108891095D01*
X191115491Y-108915354D01*
X191131019Y-108942622D01*
X191147315Y-108953152D01*
X191208119Y-108962649D01*
X191296579Y-108958320D01*
X191346667Y-108951126D01*
X191432392Y-108933494D01*
X191502346Y-108913764D01*
X191547059Y-108894972D01*
X191558334Y-108883244D01*
X191539296Y-108866632D01*
X191490143Y-108855509D01*
X191422817Y-108850531D01*
X191349259Y-108852349D01*
X191349259Y-108852349D01*
G37*
X191349259Y-108852349D02*
X191281410Y-108861616D01*
X191260510Y-108866954D01*
X191198532Y-108882235D01*
X191151539Y-108887866D01*
X191140077Y-108886553D01*
X191117905Y-108891095D01*
X191115491Y-108915354D01*
X191131019Y-108942622D01*
X191147315Y-108953152D01*
X191208119Y-108962649D01*
X191296579Y-108958320D01*
X191346667Y-108951126D01*
X191432392Y-108933494D01*
X191502346Y-108913764D01*
X191547059Y-108894972D01*
X191558334Y-108883244D01*
X191539296Y-108866632D01*
X191490143Y-108855509D01*
X191422817Y-108850531D01*
X191349259Y-108852349D01*
G36*
X200091031Y-108713415D02*
G01*
X200055504Y-108742597D01*
X200000368Y-108795299D01*
X199932510Y-108862736D01*
X199862048Y-108934984D01*
X199804206Y-108997832D01*
X199764850Y-109044652D01*
X199749846Y-109068818D01*
X199749834Y-109069111D01*
X199762854Y-109092418D01*
X199801286Y-109083083D01*
X199864185Y-109041589D01*
X199950605Y-108968423D01*
X199956743Y-108962831D01*
X200023193Y-108902073D01*
X200079819Y-108850313D01*
X200117818Y-108815600D01*
X200126269Y-108807889D01*
X200142740Y-108769996D01*
X200134320Y-108731683D01*
X200125003Y-108711489D01*
X200112385Y-108704223D01*
X200091031Y-108713415D01*
X200091031Y-108713415D01*
G37*
X200091031Y-108713415D02*
X200055504Y-108742597D01*
X200000368Y-108795299D01*
X199932510Y-108862736D01*
X199862048Y-108934984D01*
X199804206Y-108997832D01*
X199764850Y-109044652D01*
X199749846Y-109068818D01*
X199749834Y-109069111D01*
X199762854Y-109092418D01*
X199801286Y-109083083D01*
X199864185Y-109041589D01*
X199950605Y-108968423D01*
X199956743Y-108962831D01*
X200023193Y-108902073D01*
X200079819Y-108850313D01*
X200117818Y-108815600D01*
X200126269Y-108807889D01*
X200142740Y-108769996D01*
X200134320Y-108731683D01*
X200125003Y-108711489D01*
X200112385Y-108704223D01*
X200091031Y-108713415D01*
G36*
X192351753Y-109199570D02*
G01*
X192337349Y-109205365D01*
X192295023Y-109226900D01*
X192268756Y-109255554D01*
X192250518Y-109303880D01*
X192236903Y-109362344D01*
X192223673Y-109436840D01*
X192217100Y-109499268D01*
X192217776Y-109528897D01*
X192242144Y-109560766D01*
X192300383Y-109572976D01*
X192393952Y-109565660D01*
X192468338Y-109551808D01*
X192538245Y-109533033D01*
X192578033Y-109508089D01*
X192590607Y-109468850D01*
X192578870Y-109407190D01*
X192549486Y-109324683D01*
X192510733Y-109240915D01*
X192469841Y-109194942D01*
X192419337Y-109182560D01*
X192351753Y-109199570D01*
X192351753Y-109199570D01*
G37*
X192351753Y-109199570D02*
X192337349Y-109205365D01*
X192295023Y-109226900D01*
X192268756Y-109255554D01*
X192250518Y-109303880D01*
X192236903Y-109362344D01*
X192223673Y-109436840D01*
X192217100Y-109499268D01*
X192217776Y-109528897D01*
X192242144Y-109560766D01*
X192300383Y-109572976D01*
X192393952Y-109565660D01*
X192468338Y-109551808D01*
X192538245Y-109533033D01*
X192578033Y-109508089D01*
X192590607Y-109468850D01*
X192578870Y-109407190D01*
X192549486Y-109324683D01*
X192510733Y-109240915D01*
X192469841Y-109194942D01*
X192419337Y-109182560D01*
X192351753Y-109199570D01*
G36*
X193338163Y-109318806D02*
G01*
X193310919Y-109364277D01*
X193292924Y-109445655D01*
X193288932Y-109478217D01*
X193285250Y-109542621D01*
X193295787Y-109583890D01*
X193326527Y-109620415D01*
X193338872Y-109631675D01*
X193382173Y-109669353D01*
X193407013Y-109681760D01*
X193427369Y-109670827D01*
X193449470Y-109646958D01*
X193477349Y-109592719D01*
X193486227Y-109522056D01*
X193478534Y-109446450D01*
X193456703Y-109377380D01*
X193423165Y-109326328D01*
X193380351Y-109304774D01*
X193376978Y-109304666D01*
X193338163Y-109318806D01*
X193338163Y-109318806D01*
G37*
X193338163Y-109318806D02*
X193310919Y-109364277D01*
X193292924Y-109445655D01*
X193288932Y-109478217D01*
X193285250Y-109542621D01*
X193295787Y-109583890D01*
X193326527Y-109620415D01*
X193338872Y-109631675D01*
X193382173Y-109669353D01*
X193407013Y-109681760D01*
X193427369Y-109670827D01*
X193449470Y-109646958D01*
X193477349Y-109592719D01*
X193486227Y-109522056D01*
X193478534Y-109446450D01*
X193456703Y-109377380D01*
X193423165Y-109326328D01*
X193380351Y-109304774D01*
X193376978Y-109304666D01*
X193338163Y-109318806D01*
G36*
X192860739Y-109182829D02*
G01*
X192833936Y-109203540D01*
X192804681Y-109247634D01*
X192766232Y-109322944D01*
X192765508Y-109324440D01*
X192694503Y-109471214D01*
X192763536Y-109549839D01*
X192828238Y-109618739D01*
X192889384Y-109675510D01*
X192939035Y-109713361D01*
X192968973Y-109725544D01*
X193003915Y-109718351D01*
X193021825Y-109713852D01*
X193046267Y-109691171D01*
X193063779Y-109634757D01*
X193071500Y-109585091D01*
X193077468Y-109518379D01*
X193073482Y-109464860D01*
X193056199Y-109408430D01*
X193022275Y-109332986D01*
X193016794Y-109321617D01*
X192978474Y-109246576D01*
X192949237Y-109202842D01*
X192922220Y-109182510D01*
X192891834Y-109177666D01*
X192860739Y-109182829D01*
X192860739Y-109182829D01*
G37*
X192860739Y-109182829D02*
X192833936Y-109203540D01*
X192804681Y-109247634D01*
X192766232Y-109322944D01*
X192765508Y-109324440D01*
X192694503Y-109471214D01*
X192763536Y-109549839D01*
X192828238Y-109618739D01*
X192889384Y-109675510D01*
X192939035Y-109713361D01*
X192968973Y-109725544D01*
X193003915Y-109718351D01*
X193021825Y-109713852D01*
X193046267Y-109691171D01*
X193063779Y-109634757D01*
X193071500Y-109585091D01*
X193077468Y-109518379D01*
X193073482Y-109464860D01*
X193056199Y-109408430D01*
X193022275Y-109332986D01*
X193016794Y-109321617D01*
X192978474Y-109246576D01*
X192949237Y-109202842D01*
X192922220Y-109182510D01*
X192891834Y-109177666D01*
X192860739Y-109182829D01*
G36*
X191898415Y-109189052D02*
G01*
X191842456Y-109205346D01*
X191765998Y-109235337D01*
X191686748Y-109271974D01*
X191547750Y-109341742D01*
X191382399Y-109278584D01*
X191217047Y-109215426D01*
X191060232Y-109283798D01*
X190939183Y-109346223D01*
X190840811Y-109421346D01*
X190796959Y-109464735D01*
X190690500Y-109577299D01*
X190690500Y-109743666D01*
X190693835Y-109837242D01*
X190703117Y-109904283D01*
X190715900Y-109935433D01*
X190766477Y-109960663D01*
X190821124Y-109950634D01*
X190865807Y-109908349D01*
X190869099Y-109902625D01*
X190897739Y-109851845D01*
X190919304Y-109816685D01*
X190958807Y-109789005D01*
X191037113Y-109762569D01*
X191150694Y-109738014D01*
X191296023Y-109715977D01*
X191469574Y-109697094D01*
X191664167Y-109682228D01*
X191813513Y-109672248D01*
X191925668Y-109663052D01*
X192005750Y-109653952D01*
X192058878Y-109644263D01*
X192090168Y-109633300D01*
X192102702Y-109623427D01*
X192127569Y-109557504D01*
X192117223Y-109468398D01*
X192071645Y-109356001D01*
X192050459Y-109316588D01*
X192009490Y-109245596D01*
X191980689Y-109204620D01*
X191955699Y-109186653D01*
X191926165Y-109184683D01*
X191898415Y-109189052D01*
X191898415Y-109189052D01*
G37*
X191898415Y-109189052D02*
X191842456Y-109205346D01*
X191765998Y-109235337D01*
X191686748Y-109271974D01*
X191547750Y-109341742D01*
X191382399Y-109278584D01*
X191217047Y-109215426D01*
X191060232Y-109283798D01*
X190939183Y-109346223D01*
X190840811Y-109421346D01*
X190796959Y-109464735D01*
X190690500Y-109577299D01*
X190690500Y-109743666D01*
X190693835Y-109837242D01*
X190703117Y-109904283D01*
X190715900Y-109935433D01*
X190766477Y-109960663D01*
X190821124Y-109950634D01*
X190865807Y-109908349D01*
X190869099Y-109902625D01*
X190897739Y-109851845D01*
X190919304Y-109816685D01*
X190958807Y-109789005D01*
X191037113Y-109762569D01*
X191150694Y-109738014D01*
X191296023Y-109715977D01*
X191469574Y-109697094D01*
X191664167Y-109682228D01*
X191813513Y-109672248D01*
X191925668Y-109663052D01*
X192005750Y-109653952D01*
X192058878Y-109644263D01*
X192090168Y-109633300D01*
X192102702Y-109623427D01*
X192127569Y-109557504D01*
X192117223Y-109468398D01*
X192071645Y-109356001D01*
X192050459Y-109316588D01*
X192009490Y-109245596D01*
X191980689Y-109204620D01*
X191955699Y-109186653D01*
X191926165Y-109184683D01*
X191898415Y-109189052D01*
G36*
X195167774Y-105987412D02*
G01*
X195138112Y-106005002D01*
X195148994Y-106034048D01*
X195200376Y-106074331D01*
X195262500Y-106110207D01*
X195331340Y-106150614D01*
X195374900Y-106183592D01*
X195390116Y-106205427D01*
X195373921Y-106212405D01*
X195341875Y-106206358D01*
X195295984Y-106195844D01*
X195225297Y-106181683D01*
X195160558Y-106169722D01*
X195087095Y-106157763D01*
X195040065Y-106156293D01*
X195004277Y-106168081D01*
X194964538Y-106195900D01*
X194948891Y-106208332D01*
X194846960Y-106288640D01*
X194767125Y-106347240D01*
X194699164Y-106389770D01*
X194632857Y-106421868D01*
X194557983Y-106449171D01*
X194464321Y-106477316D01*
X194457871Y-106479157D01*
X194359653Y-106509350D01*
X194302529Y-106531643D01*
X194285876Y-106545332D01*
X194309070Y-106549713D01*
X194371488Y-106544082D01*
X194472506Y-106527735D01*
X194496867Y-106523198D01*
X194585606Y-106507655D01*
X194647328Y-106501646D01*
X194696272Y-106505211D01*
X194746678Y-106518392D01*
X194763433Y-106523962D01*
X194860205Y-106556935D01*
X194846472Y-106644926D01*
X194829619Y-106715604D01*
X194805656Y-106746632D01*
X194771722Y-106740479D01*
X194752348Y-106726162D01*
X194727645Y-106696117D01*
X194738461Y-106676831D01*
X194752679Y-106654340D01*
X194748512Y-106645789D01*
X194724541Y-106648025D01*
X194686796Y-106674086D01*
X194683095Y-106677484D01*
X194646583Y-106705408D01*
X194606273Y-106716014D01*
X194545477Y-106712775D01*
X194525612Y-106710275D01*
X194424238Y-106707293D01*
X194306563Y-106725324D01*
X194263559Y-106735638D01*
X194204817Y-106749082D01*
X194143306Y-106759094D01*
X194071892Y-106766096D01*
X193983445Y-106770509D01*
X193870832Y-106772756D01*
X193726923Y-106773257D01*
X193632667Y-106772945D01*
X193470716Y-106771820D01*
X193342051Y-106769335D01*
X193237623Y-106764191D01*
X193148386Y-106755088D01*
X193065291Y-106740729D01*
X192979290Y-106719812D01*
X192881337Y-106691040D01*
X192762383Y-106653112D01*
X192733997Y-106643898D01*
X192715194Y-106637640D01*
X192705402Y-106636783D01*
X192707906Y-106646551D01*
X192725993Y-106672166D01*
X192762949Y-106718852D01*
X192822061Y-106791832D01*
X192844469Y-106819464D01*
X192890937Y-106865279D01*
X192965941Y-106925861D01*
X193061266Y-106994971D01*
X193168697Y-107066367D01*
X193173471Y-107069398D01*
X193275500Y-107135489D01*
X193358340Y-107193686D01*
X193431267Y-107251964D01*
X193503561Y-107318302D01*
X193584499Y-107400676D01*
X193683359Y-107507064D01*
X193686502Y-107510495D01*
X193782344Y-107614412D01*
X193881318Y-107720441D01*
X193974591Y-107819207D01*
X194053333Y-107901333D01*
X194088442Y-107937221D01*
X194169513Y-108026929D01*
X194260730Y-108140713D01*
X194356232Y-108269947D01*
X194450157Y-108406001D01*
X194536644Y-108540248D01*
X194609833Y-108664059D01*
X194663862Y-108768807D01*
X194681407Y-108810141D01*
X194703725Y-108871063D01*
X194718569Y-108922208D01*
X194726928Y-108973897D01*
X194729791Y-109036448D01*
X194728146Y-109120181D01*
X194722982Y-109235416D01*
X194722700Y-109241166D01*
X194716856Y-109370561D01*
X194711551Y-109507161D01*
X194707398Y-109634046D01*
X194705114Y-109728000D01*
X194701824Y-109818316D01*
X194695925Y-109893874D01*
X194688419Y-109943764D01*
X194684154Y-109956036D01*
X194679632Y-109993905D01*
X194693618Y-110043748D01*
X194714927Y-110084104D01*
X194736448Y-110090835D01*
X194767631Y-110073634D01*
X194824265Y-110050087D01*
X194879875Y-110040909D01*
X194925195Y-110034532D01*
X194944969Y-110021671D01*
X194945000Y-110021112D01*
X194961200Y-110003668D01*
X194966167Y-110003166D01*
X194979534Y-110021919D01*
X194986859Y-110068655D01*
X194987334Y-110086102D01*
X194993359Y-110172097D01*
X195012333Y-110220891D01*
X195044831Y-110236000D01*
X195064551Y-110227261D01*
X195067682Y-110194444D01*
X195062043Y-110156625D01*
X195054983Y-110103535D01*
X195046990Y-110020238D01*
X195039118Y-109918815D01*
X195033268Y-109826669D01*
X195027814Y-109707241D01*
X195028410Y-109624704D01*
X195036786Y-109573838D01*
X195054669Y-109549420D01*
X195083790Y-109546230D01*
X195122343Y-109557687D01*
X195164497Y-109568401D01*
X195179166Y-109555523D01*
X195179437Y-109552851D01*
X195181319Y-109519307D01*
X195184636Y-109457545D01*
X195188231Y-109389333D01*
X195192882Y-109302719D01*
X195198914Y-109193625D01*
X195205228Y-109081830D01*
X195207017Y-109050666D01*
X195218611Y-108849583D01*
X195288181Y-108825769D01*
X195336632Y-108802457D01*
X195358234Y-108766309D01*
X195364320Y-108725228D01*
X195365051Y-108673708D01*
X195351674Y-108652064D01*
X195329053Y-108648500D01*
X195290803Y-108635707D01*
X195242010Y-108603280D01*
X195192107Y-108560142D01*
X195150526Y-108515217D01*
X195126698Y-108477429D01*
X195127363Y-108457670D01*
X195154790Y-108455558D01*
X195197510Y-108490768D01*
X195205902Y-108499944D01*
X195253281Y-108545340D01*
X195288184Y-108563865D01*
X195304384Y-108552565D01*
X195304834Y-108546900D01*
X195291651Y-108518336D01*
X195282223Y-108507355D01*
X195269185Y-108473004D01*
X195265543Y-108416638D01*
X195266348Y-108402667D01*
X195272123Y-108354955D01*
X195286744Y-108328587D01*
X195321293Y-108314241D01*
X195384959Y-108302894D01*
X195483810Y-108295736D01*
X195572034Y-108311212D01*
X195591423Y-108317428D01*
X195686011Y-108349657D01*
X195672305Y-108292703D01*
X195656476Y-108239180D01*
X195631845Y-108167924D01*
X195618330Y-108131965D01*
X195592298Y-108033121D01*
X195595192Y-107950796D01*
X195626601Y-107892147D01*
X195632349Y-107886971D01*
X195658811Y-107878737D01*
X195700742Y-107891699D01*
X195766779Y-107928555D01*
X195768244Y-107929456D01*
X195842719Y-107968542D01*
X195938620Y-108009796D01*
X196036367Y-108044865D01*
X196045229Y-108047630D01*
X196129778Y-108077422D01*
X196202567Y-108109930D01*
X196250616Y-108139176D01*
X196257224Y-108145257D01*
X196299667Y-108190815D01*
X196299667Y-108133454D01*
X196314950Y-108079784D01*
X196352584Y-108051981D01*
X196395719Y-108026830D01*
X196401553Y-108002480D01*
X196382071Y-107977370D01*
X196375306Y-107953357D01*
X196404579Y-107924054D01*
X196413821Y-107917786D01*
X196449564Y-107886607D01*
X196465632Y-107844785D01*
X196469000Y-107785901D01*
X196469000Y-107690171D01*
X196586605Y-107703993D01*
X196661997Y-107709548D01*
X196708662Y-107703103D01*
X196737291Y-107684733D01*
X196760004Y-107651160D01*
X196748400Y-107637761D01*
X196707996Y-107650383D01*
X196705914Y-107651482D01*
X196677079Y-107661561D01*
X196661151Y-107645331D01*
X196650226Y-107600281D01*
X196632296Y-107547931D01*
X196606961Y-107526718D01*
X196605625Y-107526666D01*
X196579810Y-107509270D01*
X196574834Y-107488566D01*
X196561843Y-107442061D01*
X196550128Y-107425760D01*
X196541965Y-107401221D01*
X196566973Y-107385117D01*
X196616314Y-107380638D01*
X196660154Y-107386038D01*
X196702132Y-107391301D01*
X196719454Y-107376805D01*
X196722987Y-107331888D01*
X196723000Y-107324374D01*
X196714280Y-107252533D01*
X196693104Y-107178713D01*
X196691250Y-107174151D01*
X196670020Y-107110277D01*
X196659692Y-107053558D01*
X196659500Y-107047547D01*
X196657079Y-107015366D01*
X196642085Y-107007479D01*
X196602925Y-107020619D01*
X196587144Y-107027164D01*
X196537038Y-107043865D01*
X196505331Y-107046652D01*
X196502477Y-107045087D01*
X196488944Y-107006221D01*
X196505196Y-106961900D01*
X196543084Y-106930148D01*
X196581824Y-106908497D01*
X196596000Y-106893560D01*
X196578069Y-106884417D01*
X196536334Y-106881117D01*
X196488886Y-106883413D01*
X196453813Y-106891058D01*
X196447275Y-106895593D01*
X196422719Y-106899315D01*
X196406072Y-106892020D01*
X196391074Y-106873998D01*
X196406851Y-106849269D01*
X196427798Y-106830904D01*
X196482525Y-106793345D01*
X196549191Y-106756727D01*
X196558959Y-106752135D01*
X196617932Y-106715936D01*
X196635506Y-106680832D01*
X196611386Y-106648092D01*
X196586262Y-106634200D01*
X196548105Y-106604579D01*
X196526467Y-106551562D01*
X196520573Y-106519661D01*
X196505123Y-106456341D01*
X196475565Y-106419497D01*
X196421343Y-106400465D01*
X196366819Y-106393444D01*
X196319689Y-106392879D01*
X196305632Y-106405816D01*
X196308610Y-106418774D01*
X196319310Y-106467686D01*
X196320834Y-106491231D01*
X196336835Y-106525634D01*
X196360698Y-106531833D01*
X196391115Y-106546639D01*
X196413027Y-106579901D01*
X196419197Y-106614887D01*
X196404960Y-106634138D01*
X196386238Y-106658414D01*
X196384334Y-106671925D01*
X196376826Y-106691456D01*
X196347555Y-106682884D01*
X196340983Y-106679455D01*
X196309071Y-106645943D01*
X196309215Y-106619763D01*
X196302940Y-106584145D01*
X196258703Y-106546930D01*
X196252024Y-106542921D01*
X196204443Y-106508634D01*
X196169932Y-106479329D01*
X195527084Y-106479329D01*
X195519830Y-106553206D01*
X195513430Y-106604058D01*
X195507219Y-106632166D01*
X195506461Y-106633396D01*
X195483538Y-106638092D01*
X195433586Y-106642205D01*
X195413173Y-106643185D01*
X195355917Y-106649410D01*
X195330443Y-106665367D01*
X195326000Y-106686261D01*
X195316017Y-106714941D01*
X195294324Y-106713671D01*
X195273308Y-106687307D01*
X195266374Y-106662879D01*
X195253368Y-106634482D01*
X195218266Y-106610082D01*
X195152764Y-106584626D01*
X195121269Y-106574579D01*
X195038252Y-106552233D01*
X194960380Y-106536763D01*
X194911021Y-106531833D01*
X194862244Y-106528024D01*
X194842632Y-106508858D01*
X194839167Y-106467669D01*
X194851836Y-106411382D01*
X194884953Y-106389076D01*
X194931183Y-106404349D01*
X194945255Y-106415647D01*
X194981681Y-106438258D01*
X195031126Y-106444329D01*
X195089754Y-106439034D01*
X195158951Y-106433632D01*
X195200251Y-106441917D01*
X195221307Y-106459123D01*
X195248448Y-106478206D01*
X195295431Y-106486900D01*
X195372411Y-106486847D01*
X195388229Y-106486135D01*
X195527084Y-106479329D01*
X196169932Y-106479329D01*
X196140092Y-106453991D01*
X196071183Y-106389493D01*
X196055932Y-106374326D01*
X195943768Y-106277363D01*
X195809453Y-106186603D01*
X195662992Y-106106852D01*
X195514390Y-106042916D01*
X195373653Y-105999600D01*
X195250787Y-105981710D01*
X195238020Y-105981500D01*
X195167774Y-105987412D01*
X195167774Y-105987412D01*
G37*
X195167774Y-105987412D02*
X195138112Y-106005002D01*
X195148994Y-106034048D01*
X195200376Y-106074331D01*
X195262500Y-106110207D01*
X195331340Y-106150614D01*
X195374900Y-106183592D01*
X195390116Y-106205427D01*
X195373921Y-106212405D01*
X195341875Y-106206358D01*
X195295984Y-106195844D01*
X195225297Y-106181683D01*
X195160558Y-106169722D01*
X195087095Y-106157763D01*
X195040065Y-106156293D01*
X195004277Y-106168081D01*
X194964538Y-106195900D01*
X194948891Y-106208332D01*
X194846960Y-106288640D01*
X194767125Y-106347240D01*
X194699164Y-106389770D01*
X194632857Y-106421868D01*
X194557983Y-106449171D01*
X194464321Y-106477316D01*
X194457871Y-106479157D01*
X194359653Y-106509350D01*
X194302529Y-106531643D01*
X194285876Y-106545332D01*
X194309070Y-106549713D01*
X194371488Y-106544082D01*
X194472506Y-106527735D01*
X194496867Y-106523198D01*
X194585606Y-106507655D01*
X194647328Y-106501646D01*
X194696272Y-106505211D01*
X194746678Y-106518392D01*
X194763433Y-106523962D01*
X194860205Y-106556935D01*
X194846472Y-106644926D01*
X194829619Y-106715604D01*
X194805656Y-106746632D01*
X194771722Y-106740479D01*
X194752348Y-106726162D01*
X194727645Y-106696117D01*
X194738461Y-106676831D01*
X194752679Y-106654340D01*
X194748512Y-106645789D01*
X194724541Y-106648025D01*
X194686796Y-106674086D01*
X194683095Y-106677484D01*
X194646583Y-106705408D01*
X194606273Y-106716014D01*
X194545477Y-106712775D01*
X194525612Y-106710275D01*
X194424238Y-106707293D01*
X194306563Y-106725324D01*
X194263559Y-106735638D01*
X194204817Y-106749082D01*
X194143306Y-106759094D01*
X194071892Y-106766096D01*
X193983445Y-106770509D01*
X193870832Y-106772756D01*
X193726923Y-106773257D01*
X193632667Y-106772945D01*
X193470716Y-106771820D01*
X193342051Y-106769335D01*
X193237623Y-106764191D01*
X193148386Y-106755088D01*
X193065291Y-106740729D01*
X192979290Y-106719812D01*
X192881337Y-106691040D01*
X192762383Y-106653112D01*
X192733997Y-106643898D01*
X192715194Y-106637640D01*
X192705402Y-106636783D01*
X192707906Y-106646551D01*
X192725993Y-106672166D01*
X192762949Y-106718852D01*
X192822061Y-106791832D01*
X192844469Y-106819464D01*
X192890937Y-106865279D01*
X192965941Y-106925861D01*
X193061266Y-106994971D01*
X193168697Y-107066367D01*
X193173471Y-107069398D01*
X193275500Y-107135489D01*
X193358340Y-107193686D01*
X193431267Y-107251964D01*
X193503561Y-107318302D01*
X193584499Y-107400676D01*
X193683359Y-107507064D01*
X193686502Y-107510495D01*
X193782344Y-107614412D01*
X193881318Y-107720441D01*
X193974591Y-107819207D01*
X194053333Y-107901333D01*
X194088442Y-107937221D01*
X194169513Y-108026929D01*
X194260730Y-108140713D01*
X194356232Y-108269947D01*
X194450157Y-108406001D01*
X194536644Y-108540248D01*
X194609833Y-108664059D01*
X194663862Y-108768807D01*
X194681407Y-108810141D01*
X194703725Y-108871063D01*
X194718569Y-108922208D01*
X194726928Y-108973897D01*
X194729791Y-109036448D01*
X194728146Y-109120181D01*
X194722982Y-109235416D01*
X194722700Y-109241166D01*
X194716856Y-109370561D01*
X194711551Y-109507161D01*
X194707398Y-109634046D01*
X194705114Y-109728000D01*
X194701824Y-109818316D01*
X194695925Y-109893874D01*
X194688419Y-109943764D01*
X194684154Y-109956036D01*
X194679632Y-109993905D01*
X194693618Y-110043748D01*
X194714927Y-110084104D01*
X194736448Y-110090835D01*
X194767631Y-110073634D01*
X194824265Y-110050087D01*
X194879875Y-110040909D01*
X194925195Y-110034532D01*
X194944969Y-110021671D01*
X194945000Y-110021112D01*
X194961200Y-110003668D01*
X194966167Y-110003166D01*
X194979534Y-110021919D01*
X194986859Y-110068655D01*
X194987334Y-110086102D01*
X194993359Y-110172097D01*
X195012333Y-110220891D01*
X195044831Y-110236000D01*
X195064551Y-110227261D01*
X195067682Y-110194444D01*
X195062043Y-110156625D01*
X195054983Y-110103535D01*
X195046990Y-110020238D01*
X195039118Y-109918815D01*
X195033268Y-109826669D01*
X195027814Y-109707241D01*
X195028410Y-109624704D01*
X195036786Y-109573838D01*
X195054669Y-109549420D01*
X195083790Y-109546230D01*
X195122343Y-109557687D01*
X195164497Y-109568401D01*
X195179166Y-109555523D01*
X195179437Y-109552851D01*
X195181319Y-109519307D01*
X195184636Y-109457545D01*
X195188231Y-109389333D01*
X195192882Y-109302719D01*
X195198914Y-109193625D01*
X195205228Y-109081830D01*
X195207017Y-109050666D01*
X195218611Y-108849583D01*
X195288181Y-108825769D01*
X195336632Y-108802457D01*
X195358234Y-108766309D01*
X195364320Y-108725228D01*
X195365051Y-108673708D01*
X195351674Y-108652064D01*
X195329053Y-108648500D01*
X195290803Y-108635707D01*
X195242010Y-108603280D01*
X195192107Y-108560142D01*
X195150526Y-108515217D01*
X195126698Y-108477429D01*
X195127363Y-108457670D01*
X195154790Y-108455558D01*
X195197510Y-108490768D01*
X195205902Y-108499944D01*
X195253281Y-108545340D01*
X195288184Y-108563865D01*
X195304384Y-108552565D01*
X195304834Y-108546900D01*
X195291651Y-108518336D01*
X195282223Y-108507355D01*
X195269185Y-108473004D01*
X195265543Y-108416638D01*
X195266348Y-108402667D01*
X195272123Y-108354955D01*
X195286744Y-108328587D01*
X195321293Y-108314241D01*
X195384959Y-108302894D01*
X195483810Y-108295736D01*
X195572034Y-108311212D01*
X195591423Y-108317428D01*
X195686011Y-108349657D01*
X195672305Y-108292703D01*
X195656476Y-108239180D01*
X195631845Y-108167924D01*
X195618330Y-108131965D01*
X195592298Y-108033121D01*
X195595192Y-107950796D01*
X195626601Y-107892147D01*
X195632349Y-107886971D01*
X195658811Y-107878737D01*
X195700742Y-107891699D01*
X195766779Y-107928555D01*
X195768244Y-107929456D01*
X195842719Y-107968542D01*
X195938620Y-108009796D01*
X196036367Y-108044865D01*
X196045229Y-108047630D01*
X196129778Y-108077422D01*
X196202567Y-108109930D01*
X196250616Y-108139176D01*
X196257224Y-108145257D01*
X196299667Y-108190815D01*
X196299667Y-108133454D01*
X196314950Y-108079784D01*
X196352584Y-108051981D01*
X196395719Y-108026830D01*
X196401553Y-108002480D01*
X196382071Y-107977370D01*
X196375306Y-107953357D01*
X196404579Y-107924054D01*
X196413821Y-107917786D01*
X196449564Y-107886607D01*
X196465632Y-107844785D01*
X196469000Y-107785901D01*
X196469000Y-107690171D01*
X196586605Y-107703993D01*
X196661997Y-107709548D01*
X196708662Y-107703103D01*
X196737291Y-107684733D01*
X196760004Y-107651160D01*
X196748400Y-107637761D01*
X196707996Y-107650383D01*
X196705914Y-107651482D01*
X196677079Y-107661561D01*
X196661151Y-107645331D01*
X196650226Y-107600281D01*
X196632296Y-107547931D01*
X196606961Y-107526718D01*
X196605625Y-107526666D01*
X196579810Y-107509270D01*
X196574834Y-107488566D01*
X196561843Y-107442061D01*
X196550128Y-107425760D01*
X196541965Y-107401221D01*
X196566973Y-107385117D01*
X196616314Y-107380638D01*
X196660154Y-107386038D01*
X196702132Y-107391301D01*
X196719454Y-107376805D01*
X196722987Y-107331888D01*
X196723000Y-107324374D01*
X196714280Y-107252533D01*
X196693104Y-107178713D01*
X196691250Y-107174151D01*
X196670020Y-107110277D01*
X196659692Y-107053558D01*
X196659500Y-107047547D01*
X196657079Y-107015366D01*
X196642085Y-107007479D01*
X196602925Y-107020619D01*
X196587144Y-107027164D01*
X196537038Y-107043865D01*
X196505331Y-107046652D01*
X196502477Y-107045087D01*
X196488944Y-107006221D01*
X196505196Y-106961900D01*
X196543084Y-106930148D01*
X196581824Y-106908497D01*
X196596000Y-106893560D01*
X196578069Y-106884417D01*
X196536334Y-106881117D01*
X196488886Y-106883413D01*
X196453813Y-106891058D01*
X196447275Y-106895593D01*
X196422719Y-106899315D01*
X196406072Y-106892020D01*
X196391074Y-106873998D01*
X196406851Y-106849269D01*
X196427798Y-106830904D01*
X196482525Y-106793345D01*
X196549191Y-106756727D01*
X196558959Y-106752135D01*
X196617932Y-106715936D01*
X196635506Y-106680832D01*
X196611386Y-106648092D01*
X196586262Y-106634200D01*
X196548105Y-106604579D01*
X196526467Y-106551562D01*
X196520573Y-106519661D01*
X196505123Y-106456341D01*
X196475565Y-106419497D01*
X196421343Y-106400465D01*
X196366819Y-106393444D01*
X196319689Y-106392879D01*
X196305632Y-106405816D01*
X196308610Y-106418774D01*
X196319310Y-106467686D01*
X196320834Y-106491231D01*
X196336835Y-106525634D01*
X196360698Y-106531833D01*
X196391115Y-106546639D01*
X196413027Y-106579901D01*
X196419197Y-106614887D01*
X196404960Y-106634138D01*
X196386238Y-106658414D01*
X196384334Y-106671925D01*
X196376826Y-106691456D01*
X196347555Y-106682884D01*
X196340983Y-106679455D01*
X196309071Y-106645943D01*
X196309215Y-106619763D01*
X196302940Y-106584145D01*
X196258703Y-106546930D01*
X196252024Y-106542921D01*
X196204443Y-106508634D01*
X196169932Y-106479329D01*
X195527084Y-106479329D01*
X195519830Y-106553206D01*
X195513430Y-106604058D01*
X195507219Y-106632166D01*
X195506461Y-106633396D01*
X195483538Y-106638092D01*
X195433586Y-106642205D01*
X195413173Y-106643185D01*
X195355917Y-106649410D01*
X195330443Y-106665367D01*
X195326000Y-106686261D01*
X195316017Y-106714941D01*
X195294324Y-106713671D01*
X195273308Y-106687307D01*
X195266374Y-106662879D01*
X195253368Y-106634482D01*
X195218266Y-106610082D01*
X195152764Y-106584626D01*
X195121269Y-106574579D01*
X195038252Y-106552233D01*
X194960380Y-106536763D01*
X194911021Y-106531833D01*
X194862244Y-106528024D01*
X194842632Y-106508858D01*
X194839167Y-106467669D01*
X194851836Y-106411382D01*
X194884953Y-106389076D01*
X194931183Y-106404349D01*
X194945255Y-106415647D01*
X194981681Y-106438258D01*
X195031126Y-106444329D01*
X195089754Y-106439034D01*
X195158951Y-106433632D01*
X195200251Y-106441917D01*
X195221307Y-106459123D01*
X195248448Y-106478206D01*
X195295431Y-106486900D01*
X195372411Y-106486847D01*
X195388229Y-106486135D01*
X195527084Y-106479329D01*
X196169932Y-106479329D01*
X196140092Y-106453991D01*
X196071183Y-106389493D01*
X196055932Y-106374326D01*
X195943768Y-106277363D01*
X195809453Y-106186603D01*
X195662992Y-106106852D01*
X195514390Y-106042916D01*
X195373653Y-105999600D01*
X195250787Y-105981710D01*
X195238020Y-105981500D01*
X195167774Y-105987412D01*
G36*
X194290626Y-111151743D02*
G01*
X194268160Y-111165662D01*
X194267667Y-111168582D01*
X194254700Y-111181224D01*
X194246500Y-111177916D01*
X194226949Y-111178517D01*
X194225334Y-111185362D01*
X194242781Y-111205614D01*
X194287308Y-111234591D01*
X194320584Y-111252000D01*
X194375341Y-111282035D01*
X194409780Y-111307711D01*
X194415834Y-111317388D01*
X194429996Y-111335696D01*
X194463245Y-111330343D01*
X194501729Y-111304253D01*
X194507803Y-111297958D01*
X194539020Y-111250040D01*
X194530844Y-111216958D01*
X194482681Y-111196605D01*
X194478893Y-111195820D01*
X194430160Y-111181279D01*
X194403561Y-111164599D01*
X194376960Y-111150665D01*
X194333104Y-111146562D01*
X194290626Y-111151743D01*
X194290626Y-111151743D01*
G37*
X194290626Y-111151743D02*
X194268160Y-111165662D01*
X194267667Y-111168582D01*
X194254700Y-111181224D01*
X194246500Y-111177916D01*
X194226949Y-111178517D01*
X194225334Y-111185362D01*
X194242781Y-111205614D01*
X194287308Y-111234591D01*
X194320584Y-111252000D01*
X194375341Y-111282035D01*
X194409780Y-111307711D01*
X194415834Y-111317388D01*
X194429996Y-111335696D01*
X194463245Y-111330343D01*
X194501729Y-111304253D01*
X194507803Y-111297958D01*
X194539020Y-111250040D01*
X194530844Y-111216958D01*
X194482681Y-111196605D01*
X194478893Y-111195820D01*
X194430160Y-111181279D01*
X194403561Y-111164599D01*
X194376960Y-111150665D01*
X194333104Y-111146562D01*
X194290626Y-111151743D01*
G36*
X194207223Y-111305388D02*
G01*
X194212489Y-111326093D01*
X194237761Y-111359870D01*
X194287686Y-111403102D01*
X194348183Y-111439090D01*
X194409352Y-111464306D01*
X194461293Y-111475222D01*
X194494106Y-111468312D01*
X194500500Y-111453486D01*
X194500500Y-111410750D01*
X194482294Y-111398062D01*
X194435865Y-111377487D01*
X194373498Y-111353437D01*
X194307475Y-111330326D01*
X194250081Y-111312566D01*
X194213600Y-111304571D01*
X194207223Y-111305388D01*
X194207223Y-111305388D01*
G37*
X194207223Y-111305388D02*
X194212489Y-111326093D01*
X194237761Y-111359870D01*
X194287686Y-111403102D01*
X194348183Y-111439090D01*
X194409352Y-111464306D01*
X194461293Y-111475222D01*
X194494106Y-111468312D01*
X194500500Y-111453486D01*
X194500500Y-111410750D01*
X194482294Y-111398062D01*
X194435865Y-111377487D01*
X194373498Y-111353437D01*
X194307475Y-111330326D01*
X194250081Y-111312566D01*
X194213600Y-111304571D01*
X194207223Y-111305388D01*
G36*
X191150221Y-114203657D02*
G01*
X191149347Y-114204230D01*
X191102603Y-114253836D01*
X191093418Y-114297142D01*
X191098281Y-114368799D01*
X191109820Y-114458632D01*
X191125823Y-114554645D01*
X191144077Y-114644842D01*
X191162370Y-114717227D01*
X191178489Y-114759804D01*
X191178840Y-114760375D01*
X191210384Y-114798954D01*
X191233255Y-114805709D01*
X191240834Y-114783208D01*
X191253930Y-114749561D01*
X191276426Y-114719087D01*
X191296525Y-114690433D01*
X191301422Y-114656500D01*
X191291996Y-114602539D01*
X191285034Y-114574469D01*
X191269146Y-114466614D01*
X191272030Y-114367524D01*
X191277402Y-114297068D01*
X191267373Y-114249706D01*
X191246019Y-114216480D01*
X191216039Y-114183961D01*
X191190617Y-114180512D01*
X191150221Y-114203657D01*
X191150221Y-114203657D01*
G37*
X191150221Y-114203657D02*
X191149347Y-114204230D01*
X191102603Y-114253836D01*
X191093418Y-114297142D01*
X191098281Y-114368799D01*
X191109820Y-114458632D01*
X191125823Y-114554645D01*
X191144077Y-114644842D01*
X191162370Y-114717227D01*
X191178489Y-114759804D01*
X191178840Y-114760375D01*
X191210384Y-114798954D01*
X191233255Y-114805709D01*
X191240834Y-114783208D01*
X191253930Y-114749561D01*
X191276426Y-114719087D01*
X191296525Y-114690433D01*
X191301422Y-114656500D01*
X191291996Y-114602539D01*
X191285034Y-114574469D01*
X191269146Y-114466614D01*
X191272030Y-114367524D01*
X191277402Y-114297068D01*
X191267373Y-114249706D01*
X191246019Y-114216480D01*
X191216039Y-114183961D01*
X191190617Y-114180512D01*
X191150221Y-114203657D01*
G36*
X194510446Y-115038582D02*
G01*
X194486340Y-115089021D01*
X194485114Y-115092943D01*
X194462130Y-115167833D01*
X194532983Y-115167833D01*
X194584240Y-115163102D01*
X194613697Y-115151587D01*
X194614647Y-115150339D01*
X194618753Y-115118133D01*
X194609733Y-115076207D01*
X194593358Y-115045471D01*
X194584430Y-115040833D01*
X194550948Y-115033959D01*
X194537781Y-115029443D01*
X194510446Y-115038582D01*
X194510446Y-115038582D01*
G37*
X194510446Y-115038582D02*
X194486340Y-115089021D01*
X194485114Y-115092943D01*
X194462130Y-115167833D01*
X194532983Y-115167833D01*
X194584240Y-115163102D01*
X194613697Y-115151587D01*
X194614647Y-115150339D01*
X194618753Y-115118133D01*
X194609733Y-115076207D01*
X194593358Y-115045471D01*
X194584430Y-115040833D01*
X194550948Y-115033959D01*
X194537781Y-115029443D01*
X194510446Y-115038582D01*
G36*
X191094098Y-115080624D02*
G01*
X191089021Y-115087021D01*
X191056011Y-115139060D01*
X191056843Y-115170549D01*
X191094216Y-115185735D01*
X191153903Y-115189000D01*
X191223943Y-115184386D01*
X191261091Y-115168853D01*
X191270684Y-115154567D01*
X191269358Y-115107834D01*
X191230517Y-115070206D01*
X191182932Y-115052056D01*
X191133116Y-115050189D01*
X191094098Y-115080624D01*
X191094098Y-115080624D01*
G37*
X191094098Y-115080624D02*
X191089021Y-115087021D01*
X191056011Y-115139060D01*
X191056843Y-115170549D01*
X191094216Y-115185735D01*
X191153903Y-115189000D01*
X191223943Y-115184386D01*
X191261091Y-115168853D01*
X191270684Y-115154567D01*
X191269358Y-115107834D01*
X191230517Y-115070206D01*
X191182932Y-115052056D01*
X191133116Y-115050189D01*
X191094098Y-115080624D01*
G36*
X192008176Y-114359574D02*
G01*
X192002834Y-114377611D01*
X191990180Y-114403436D01*
X191981667Y-114405833D01*
X191958008Y-114413544D01*
X191966354Y-114432082D01*
X192000265Y-114454552D01*
X192042597Y-114471064D01*
X192089048Y-114488052D01*
X192118707Y-114512024D01*
X192140791Y-114554547D01*
X192163010Y-114622210D01*
X192201298Y-114719067D01*
X192245238Y-114776954D01*
X192252744Y-114782451D01*
X192298152Y-114830261D01*
X192342372Y-114907742D01*
X192379456Y-115002499D01*
X192402070Y-115093750D01*
X192416748Y-115178416D01*
X193331624Y-115183933D01*
X193564312Y-115184873D01*
X193766236Y-115184732D01*
X193935455Y-115183541D01*
X194070027Y-115181331D01*
X194168013Y-115178134D01*
X194227470Y-115173980D01*
X194246500Y-115169148D01*
X194233280Y-115141351D01*
X194200859Y-115099735D01*
X194194892Y-115093161D01*
X194163503Y-115048450D01*
X194153814Y-115011391D01*
X194154824Y-115007404D01*
X194149599Y-114982749D01*
X194121765Y-114977333D01*
X194091844Y-114984352D01*
X194079232Y-115013120D01*
X194077167Y-115055568D01*
X194077167Y-115133804D01*
X194004438Y-115063312D01*
X193931708Y-114992820D01*
X193841617Y-115028867D01*
X193771239Y-115061130D01*
X193707482Y-115096849D01*
X193694120Y-115105790D01*
X193642589Y-115132199D01*
X193588628Y-115145167D01*
X193545606Y-115143272D01*
X193526892Y-115125093D01*
X193526834Y-115123584D01*
X193513924Y-115096952D01*
X193480024Y-115048998D01*
X193432378Y-114989942D01*
X193430744Y-114988027D01*
X193376074Y-114927182D01*
X193331747Y-114890712D01*
X193282276Y-114869454D01*
X193212174Y-114854243D01*
X193201469Y-114852359D01*
X193106553Y-114839336D01*
X193006589Y-114830921D01*
X192952421Y-114829166D01*
X192868273Y-114823333D01*
X192805309Y-114802070D01*
X192764834Y-114776250D01*
X192707862Y-114737461D01*
X192675814Y-114727628D01*
X192661793Y-114747784D01*
X192658889Y-114792125D01*
X192658778Y-114860916D01*
X192621847Y-114803821D01*
X192587505Y-114763345D01*
X192527410Y-114704593D01*
X192449724Y-114634627D01*
X192362606Y-114560512D01*
X192274216Y-114489310D01*
X192192714Y-114428084D01*
X192166992Y-114410092D01*
X192094183Y-114367712D01*
X192039477Y-114350523D01*
X192008176Y-114359574D01*
X192008176Y-114359574D01*
G37*
X192008176Y-114359574D02*
X192002834Y-114377611D01*
X191990180Y-114403436D01*
X191981667Y-114405833D01*
X191958008Y-114413544D01*
X191966354Y-114432082D01*
X192000265Y-114454552D01*
X192042597Y-114471064D01*
X192089048Y-114488052D01*
X192118707Y-114512024D01*
X192140791Y-114554547D01*
X192163010Y-114622210D01*
X192201298Y-114719067D01*
X192245238Y-114776954D01*
X192252744Y-114782451D01*
X192298152Y-114830261D01*
X192342372Y-114907742D01*
X192379456Y-115002499D01*
X192402070Y-115093750D01*
X192416748Y-115178416D01*
X193331624Y-115183933D01*
X193564312Y-115184873D01*
X193766236Y-115184732D01*
X193935455Y-115183541D01*
X194070027Y-115181331D01*
X194168013Y-115178134D01*
X194227470Y-115173980D01*
X194246500Y-115169148D01*
X194233280Y-115141351D01*
X194200859Y-115099735D01*
X194194892Y-115093161D01*
X194163503Y-115048450D01*
X194153814Y-115011391D01*
X194154824Y-115007404D01*
X194149599Y-114982749D01*
X194121765Y-114977333D01*
X194091844Y-114984352D01*
X194079232Y-115013120D01*
X194077167Y-115055568D01*
X194077167Y-115133804D01*
X194004438Y-115063312D01*
X193931708Y-114992820D01*
X193841617Y-115028867D01*
X193771239Y-115061130D01*
X193707482Y-115096849D01*
X193694120Y-115105790D01*
X193642589Y-115132199D01*
X193588628Y-115145167D01*
X193545606Y-115143272D01*
X193526892Y-115125093D01*
X193526834Y-115123584D01*
X193513924Y-115096952D01*
X193480024Y-115048998D01*
X193432378Y-114989942D01*
X193430744Y-114988027D01*
X193376074Y-114927182D01*
X193331747Y-114890712D01*
X193282276Y-114869454D01*
X193212174Y-114854243D01*
X193201469Y-114852359D01*
X193106553Y-114839336D01*
X193006589Y-114830921D01*
X192952421Y-114829166D01*
X192868273Y-114823333D01*
X192805309Y-114802070D01*
X192764834Y-114776250D01*
X192707862Y-114737461D01*
X192675814Y-114727628D01*
X192661793Y-114747784D01*
X192658889Y-114792125D01*
X192658778Y-114860916D01*
X192621847Y-114803821D01*
X192587505Y-114763345D01*
X192527410Y-114704593D01*
X192449724Y-114634627D01*
X192362606Y-114560512D01*
X192274216Y-114489310D01*
X192192714Y-114428084D01*
X192166992Y-114410092D01*
X192094183Y-114367712D01*
X192039477Y-114350523D01*
X192008176Y-114359574D01*
G36*
X194374116Y-115162773D02*
G01*
X194373500Y-115167833D01*
X194389608Y-115188384D01*
X194394667Y-115189000D01*
X194415219Y-115172892D01*
X194415834Y-115167833D01*
X194399727Y-115147281D01*
X194394667Y-115146666D01*
X194374116Y-115162773D01*
X194374116Y-115162773D01*
G37*
X194374116Y-115162773D02*
X194373500Y-115167833D01*
X194389608Y-115188384D01*
X194394667Y-115189000D01*
X194415219Y-115172892D01*
X194415834Y-115167833D01*
X194399727Y-115147281D01*
X194394667Y-115146666D01*
X194374116Y-115162773D01*
G36*
X195220217Y-114685840D02*
G01*
X195166428Y-114699941D01*
X195079655Y-114727310D01*
X195059369Y-114733916D01*
X194974161Y-114759285D01*
X194896973Y-114778016D01*
X194842475Y-114786626D01*
X194836465Y-114786833D01*
X194799449Y-114789706D01*
X194781657Y-114805867D01*
X194776075Y-114846631D01*
X194775667Y-114884876D01*
X194759670Y-114991568D01*
X194731583Y-115054249D01*
X194705256Y-115105620D01*
X194694895Y-115144161D01*
X194695638Y-115149997D01*
X194721343Y-115168101D01*
X194772677Y-115175736D01*
X194834084Y-115172213D01*
X194886311Y-115158438D01*
X194970031Y-115109830D01*
X195055066Y-115037882D01*
X195128995Y-114955076D01*
X195179403Y-114873896D01*
X195186337Y-114856842D01*
X195211552Y-114789940D01*
X195234421Y-114735280D01*
X195242773Y-114718041D01*
X195252480Y-114695402D01*
X195246931Y-114684498D01*
X195220217Y-114685840D01*
X195220217Y-114685840D01*
G37*
X195220217Y-114685840D02*
X195166428Y-114699941D01*
X195079655Y-114727310D01*
X195059369Y-114733916D01*
X194974161Y-114759285D01*
X194896973Y-114778016D01*
X194842475Y-114786626D01*
X194836465Y-114786833D01*
X194799449Y-114789706D01*
X194781657Y-114805867D01*
X194776075Y-114846631D01*
X194775667Y-114884876D01*
X194759670Y-114991568D01*
X194731583Y-115054249D01*
X194705256Y-115105620D01*
X194694895Y-115144161D01*
X194695638Y-115149997D01*
X194721343Y-115168101D01*
X194772677Y-115175736D01*
X194834084Y-115172213D01*
X194886311Y-115158438D01*
X194970031Y-115109830D01*
X195055066Y-115037882D01*
X195128995Y-114955076D01*
X195179403Y-114873896D01*
X195186337Y-114856842D01*
X195211552Y-114789940D01*
X195234421Y-114735280D01*
X195242773Y-114718041D01*
X195252480Y-114695402D01*
X195246931Y-114684498D01*
X195220217Y-114685840D01*
G36*
X189775000Y-112075000D02*
G01*
X189995000Y-112525000D01*
X190115000Y-112755000D01*
X190265000Y-112875000D01*
X190445000Y-113005000D01*
X190565000Y-113055000D01*
X190635000Y-113105000D01*
X190675000Y-113175000D01*
X190715000Y-113245000D01*
X190715000Y-113315000D01*
X190655000Y-113485000D01*
X190565000Y-113745000D01*
X190335000Y-114275000D01*
X190165000Y-114805000D01*
X189939084Y-115188891D01*
X190058028Y-115117165D01*
X190126482Y-115077664D01*
X190185740Y-115046559D01*
X190218811Y-115032161D01*
X190253993Y-115002680D01*
X190284720Y-114945187D01*
X190288563Y-114934304D01*
X190312435Y-114875602D01*
X190337501Y-114833594D01*
X190343701Y-114827132D01*
X190363124Y-114793630D01*
X190380318Y-114735522D01*
X190385490Y-114707419D01*
X190395771Y-114650740D01*
X190406277Y-114630085D01*
X190421025Y-114639314D01*
X190425902Y-114645649D01*
X190466505Y-114679139D01*
X190511401Y-114672769D01*
X190561952Y-114625917D01*
X190604054Y-114564404D01*
X190674718Y-114447808D01*
X190597943Y-114349264D01*
X190556537Y-114292261D01*
X190528662Y-114246502D01*
X190521167Y-114226456D01*
X190530425Y-114184561D01*
X190555725Y-114113907D01*
X190593353Y-114023178D01*
X190639599Y-113921055D01*
X190690750Y-113816222D01*
X190723218Y-113753826D01*
X190791395Y-113616474D01*
X190845798Y-113486806D01*
X190883396Y-113373129D01*
X190901159Y-113283751D01*
X190902167Y-113263356D01*
X190886703Y-113205444D01*
X190858838Y-113166681D01*
X190820487Y-113122725D01*
X190779424Y-113062606D01*
X190770273Y-113046984D01*
X190739475Y-112997963D01*
X190715274Y-112969445D01*
X190709446Y-112966500D01*
X190685619Y-112956109D01*
X190634841Y-112928271D01*
X190566051Y-112887990D01*
X190528462Y-112865216D01*
X190399658Y-112774962D01*
X190302055Y-112682347D01*
X190282895Y-112658841D01*
X190254262Y-112614412D01*
X190210357Y-112537470D01*
X190154058Y-112433746D01*
X190088246Y-112308971D01*
X190015801Y-112168877D01*
X189939601Y-112019194D01*
X189862528Y-111865654D01*
X189787461Y-111713987D01*
X189717279Y-111569924D01*
X189654862Y-111439198D01*
X189603090Y-111327537D01*
X189564844Y-111240674D01*
X189545092Y-111190541D01*
X189520193Y-111112139D01*
X189491973Y-111012784D01*
X189466198Y-110912867D01*
X189464255Y-110904791D01*
X189438228Y-110806202D01*
X189403301Y-110687648D01*
X189365383Y-110568820D01*
X189349037Y-110520845D01*
X189234144Y-110158074D01*
X189148006Y-109810937D01*
X189091356Y-109483195D01*
X189064930Y-109178609D01*
X189063040Y-109055948D01*
X189064082Y-108940628D01*
X189065404Y-108864167D01*
X189067629Y-108823092D01*
X189071379Y-108813932D01*
X189077277Y-108833213D01*
X189085943Y-108877463D01*
X189090529Y-108902500D01*
X189131334Y-109042745D01*
X189196500Y-109177666D01*
X189238021Y-109251054D01*
X189261066Y-109304491D01*
X189269672Y-109353876D01*
X189267880Y-109415109D01*
X189265058Y-109447541D01*
X189260223Y-109527088D01*
X189265292Y-109568809D01*
X189281826Y-109576379D01*
X189310434Y-109554433D01*
X189342287Y-109537605D01*
X189362756Y-109555254D01*
X189368490Y-109600295D01*
X189358768Y-109656670D01*
X189346597Y-109713175D01*
X189352056Y-109745468D01*
X189369765Y-109763625D01*
X189390273Y-109786668D01*
X189391000Y-109820411D01*
X189378166Y-109865585D01*
X189362452Y-109926469D01*
X189368727Y-109953480D01*
X189398947Y-109950038D01*
X189420500Y-109939666D01*
X189458818Y-109924283D01*
X189475909Y-109924520D01*
X189486218Y-109948220D01*
X189504027Y-110001076D01*
X189524725Y-110069110D01*
X189555034Y-110160817D01*
X189595063Y-110266055D01*
X189631879Y-110352416D01*
X189674637Y-110450151D01*
X189721207Y-110563150D01*
X189760939Y-110665450D01*
X189802681Y-110764162D01*
X189853967Y-110866435D01*
X189903917Y-110950624D01*
X189905378Y-110952786D01*
X189948380Y-111019680D01*
X189974200Y-111074340D01*
X189988051Y-111133337D01*
X189995150Y-111213242D01*
X189996705Y-111243002D01*
X190007200Y-111361924D01*
X190025697Y-111476162D01*
X190050025Y-111577725D01*
X190078013Y-111658621D01*
X190107491Y-111710859D01*
X190127965Y-111726127D01*
X190167856Y-111730688D01*
X190194184Y-111713295D01*
X190214735Y-111666043D01*
X190225784Y-111626814D01*
X190257141Y-111544075D01*
X190295803Y-111502023D01*
X190339334Y-111501098D01*
X190385298Y-111541741D01*
X190416235Y-111592434D01*
X190433898Y-111633434D01*
X190445834Y-111680609D01*
X190453082Y-111742953D01*
X190456681Y-111829463D01*
X190457667Y-111949131D01*
X190457667Y-111951474D01*
X190460932Y-112114364D01*
X190471191Y-112243347D01*
X190489139Y-112346381D01*
X190493844Y-112365067D01*
X190530020Y-112500833D01*
X190713717Y-112500833D01*
X190814026Y-112503049D01*
X190889347Y-112511899D01*
X190956896Y-112530685D01*
X191032082Y-112561887D01*
X191105458Y-112594538D01*
X191167371Y-112620998D01*
X191203792Y-112635306D01*
X191229945Y-112658282D01*
X191240286Y-112709897D01*
X191240834Y-112733002D01*
X191244331Y-112786276D01*
X191253075Y-112816052D01*
X191256709Y-112818320D01*
X191280074Y-112806123D01*
X191326598Y-112774048D01*
X191386530Y-112728844D01*
X191390903Y-112725420D01*
X191509222Y-112632534D01*
X191650043Y-112664124D01*
X191790865Y-112695714D01*
X191919003Y-112600493D01*
X192007253Y-112524952D01*
X192090109Y-112430978D01*
X192172335Y-112315235D01*
X192239157Y-112218842D01*
X192292973Y-112154690D01*
X192339843Y-112117228D01*
X192385828Y-112100898D01*
X192408278Y-112098955D01*
X192415137Y-112116762D01*
X192413651Y-112160824D01*
X192405916Y-112216374D01*
X192394029Y-112268642D01*
X192380086Y-112302860D01*
X192379153Y-112304114D01*
X192369750Y-112341492D01*
X192392870Y-112369135D01*
X192415184Y-112373833D01*
X192444376Y-112358796D01*
X192487805Y-112320279D01*
X192516917Y-112288687D01*
X192589798Y-112203542D01*
X192601453Y-112290435D01*
X192614809Y-112361595D01*
X192631190Y-112393163D01*
X192652029Y-112387851D01*
X192652612Y-112387277D01*
X192656256Y-112359604D01*
X192647481Y-112308283D01*
X192642029Y-112288499D01*
X192618238Y-112209819D01*
X192594259Y-112130680D01*
X192592298Y-112124218D01*
X192579745Y-112071216D01*
X192584241Y-112030078D01*
X192609514Y-111981559D01*
X192624367Y-111958653D01*
X192674917Y-111898454D01*
X192733974Y-111849787D01*
X192753425Y-111838739D01*
X192801246Y-111817784D01*
X192824519Y-111816903D01*
X192836362Y-111836843D01*
X192838578Y-111843599D01*
X192863826Y-111882710D01*
X192882056Y-111894963D01*
X192898405Y-111912128D01*
X192908134Y-111953068D01*
X192912470Y-112025054D01*
X192913000Y-112078599D01*
X192914779Y-112167813D01*
X192920697Y-112220180D01*
X192931625Y-112241058D01*
X192939459Y-112241290D01*
X192957313Y-112215578D01*
X192963596Y-112165557D01*
X192957564Y-112107842D01*
X192946926Y-112074606D01*
X192942376Y-112052356D01*
X192963242Y-112047852D01*
X193000827Y-112054146D01*
X193058072Y-112077769D01*
X193081632Y-112116862D01*
X193093089Y-112165394D01*
X193138050Y-112116155D01*
X193169222Y-112066939D01*
X193198673Y-111996249D01*
X193210995Y-111954865D01*
X193238277Y-111867636D01*
X193267575Y-111820592D01*
X193301010Y-111811582D01*
X193333106Y-111831162D01*
X193385821Y-111862392D01*
X193428441Y-111856050D01*
X193454584Y-111813132D01*
X193454827Y-111812177D01*
X193482847Y-111764091D01*
X193527940Y-111727677D01*
X193569989Y-111708873D01*
X193590087Y-111713808D01*
X193600970Y-111739000D01*
X193620215Y-111771480D01*
X193642328Y-111781384D01*
X193653781Y-111763128D01*
X193653834Y-111760815D01*
X193672252Y-111743281D01*
X193718429Y-111723694D01*
X193739430Y-111717416D01*
X193806862Y-111689273D01*
X193843028Y-111646326D01*
X193846093Y-111638957D01*
X193853936Y-111565815D01*
X193832135Y-111485184D01*
X193790307Y-111420106D01*
X193770193Y-111391877D01*
X193784956Y-111377863D01*
X193802409Y-111372760D01*
X193827876Y-111373379D01*
X193858398Y-111391623D01*
X193899694Y-111432579D01*
X193957483Y-111501332D01*
X193983172Y-111533547D01*
X194040201Y-111609137D01*
X194085512Y-111675799D01*
X194113400Y-111724742D01*
X194119500Y-111743560D01*
X194129059Y-111776636D01*
X194159644Y-111774019D01*
X194175936Y-111764814D01*
X194189328Y-111732225D01*
X194184688Y-111666530D01*
X194162971Y-111572458D01*
X194125133Y-111454737D01*
X194099286Y-111385444D01*
X194064415Y-111293470D01*
X194044585Y-111228421D01*
X194039114Y-111177913D01*
X194047322Y-111129566D01*
X194068527Y-111070998D01*
X194080409Y-111042146D01*
X194106669Y-110970392D01*
X194114403Y-110917917D01*
X194105840Y-110867103D01*
X194103542Y-110859358D01*
X194095558Y-110796281D01*
X194116916Y-110762733D01*
X194164594Y-110760953D01*
X194211366Y-110779472D01*
X194262674Y-110798492D01*
X194317889Y-110798005D01*
X194364758Y-110788077D01*
X194421376Y-110776882D01*
X194467835Y-110779170D01*
X194521621Y-110797748D01*
X194571533Y-110821226D01*
X194640988Y-110859657D01*
X194687096Y-110900660D01*
X194724728Y-110959465D01*
X194743665Y-110997472D01*
X194781015Y-111065726D01*
X194819287Y-111120154D01*
X194844315Y-111144469D01*
X194874897Y-111160700D01*
X194878628Y-111149507D01*
X194873269Y-111134079D01*
X194871970Y-111096272D01*
X194882675Y-111081940D01*
X194889696Y-111054991D01*
X194882128Y-111000077D01*
X194862750Y-110927841D01*
X194834341Y-110848925D01*
X194804897Y-110784011D01*
X194788218Y-110741185D01*
X194788034Y-110717522D01*
X194817462Y-110711917D01*
X194855904Y-110724154D01*
X194880512Y-110745891D01*
X194881825Y-110751760D01*
X194892680Y-110790203D01*
X194900306Y-110804403D01*
X194919330Y-110818496D01*
X194949313Y-110804836D01*
X194974065Y-110784711D01*
X195020569Y-110728511D01*
X195028829Y-110671108D01*
X194998120Y-110608745D01*
X194927717Y-110537664D01*
X194926088Y-110536287D01*
X194853627Y-110465436D01*
X194813245Y-110399537D01*
X194803620Y-110369076D01*
X194783909Y-110320456D01*
X194756460Y-110287489D01*
X194730156Y-110276122D01*
X194713880Y-110292299D01*
X194712167Y-110307866D01*
X194698662Y-110330659D01*
X194680417Y-110328321D01*
X194662139Y-110328704D01*
X194652389Y-110352975D01*
X194648860Y-110408978D01*
X194648667Y-110436330D01*
X194643926Y-110511520D01*
X194631406Y-110566478D01*
X194621620Y-110583571D01*
X194577588Y-110604962D01*
X194524904Y-110601583D01*
X194475303Y-110579483D01*
X194440521Y-110544715D01*
X194432293Y-110503328D01*
X194437682Y-110488727D01*
X194449852Y-110445381D01*
X194457191Y-110379484D01*
X194458167Y-110345806D01*
X194453847Y-110275704D01*
X194437516Y-110232529D01*
X194410542Y-110206016D01*
X194381908Y-110183500D01*
X194383810Y-110175998D01*
X194421091Y-110179948D01*
X194441677Y-110183111D01*
X194494352Y-110188076D01*
X194520245Y-110176659D01*
X194533719Y-110142435D01*
X194533861Y-110141870D01*
X194534586Y-110086728D01*
X194518892Y-110012142D01*
X194509439Y-109983141D01*
X194480321Y-109917750D01*
X194440216Y-109864729D01*
X194377947Y-109810644D01*
X194346473Y-109787254D01*
X194282020Y-109737720D01*
X194230742Y-109693103D01*
X194203208Y-109662639D01*
X194202564Y-109661505D01*
X194166898Y-109634892D01*
X194108659Y-109626921D01*
X194043108Y-109637235D01*
X193985504Y-109665477D01*
X193984034Y-109666616D01*
X193936735Y-109695625D01*
X193899204Y-109706833D01*
X193872053Y-109713179D01*
X193870652Y-109737391D01*
X193894820Y-109787226D01*
X193897250Y-109791500D01*
X193924355Y-109851294D01*
X193923449Y-109884773D01*
X193894738Y-109889181D01*
X193890080Y-109887833D01*
X193848867Y-109893800D01*
X193790624Y-109925794D01*
X193724810Y-109976822D01*
X193660887Y-110039890D01*
X193625055Y-110083727D01*
X193591862Y-110121140D01*
X193569194Y-110132707D01*
X193565098Y-110128543D01*
X193542876Y-110111538D01*
X193505384Y-110122208D01*
X193463734Y-110155121D01*
X193436164Y-110191613D01*
X193409997Y-110255709D01*
X193399834Y-110317391D01*
X193393507Y-110367025D01*
X193378667Y-110394750D01*
X193359162Y-110393071D01*
X193357500Y-110385415D01*
X193339394Y-110368568D01*
X193304584Y-110363000D01*
X193264805Y-110370245D01*
X193251667Y-110384166D01*
X193234523Y-110402945D01*
X193219917Y-110405333D01*
X193189025Y-110411544D01*
X193190802Y-110425040D01*
X193218325Y-110438118D01*
X193253841Y-110443091D01*
X193313554Y-110450111D01*
X193335270Y-110468890D01*
X193322491Y-110502824D01*
X193319660Y-110506890D01*
X193290492Y-110555647D01*
X193272432Y-110592842D01*
X193251231Y-110626296D01*
X193227398Y-110622940D01*
X193222666Y-110619281D01*
X193185881Y-110604225D01*
X193138481Y-110601017D01*
X193098110Y-110608861D01*
X193082334Y-110625598D01*
X193093555Y-110656163D01*
X193120575Y-110701623D01*
X193153428Y-110747576D01*
X193182148Y-110779621D01*
X193193459Y-110786188D01*
X193207868Y-110803108D01*
X193208765Y-110812791D01*
X193189546Y-110836595D01*
X193139440Y-110866853D01*
X193068531Y-110899379D01*
X192986905Y-110929982D01*
X192904648Y-110954477D01*
X192833997Y-110968412D01*
X192754096Y-110973324D01*
X192698664Y-110962548D01*
X192671064Y-110947999D01*
X192624242Y-110928932D01*
X192580394Y-110927831D01*
X192555079Y-110944081D01*
X192553429Y-110952639D01*
X192569697Y-110971533D01*
X192610102Y-111002411D01*
X192627513Y-111014069D01*
X192673903Y-111051754D01*
X192699548Y-111087420D01*
X192701334Y-111096036D01*
X192695316Y-111118265D01*
X192671310Y-111105264D01*
X192670905Y-111104929D01*
X192636031Y-111092697D01*
X192583316Y-111090360D01*
X192526399Y-111096157D01*
X192478917Y-111108329D01*
X192454510Y-111125114D01*
X192454325Y-111132885D01*
X192467612Y-111165926D01*
X192489971Y-111221338D01*
X192500578Y-111247586D01*
X192521069Y-111310960D01*
X192523058Y-111349141D01*
X192507392Y-111357041D01*
X192485081Y-111340547D01*
X192444958Y-111323711D01*
X192375327Y-111316532D01*
X192286082Y-111317785D01*
X192187118Y-111326245D01*
X192088327Y-111340689D01*
X191999605Y-111359892D01*
X191930845Y-111382630D01*
X191891941Y-111407680D01*
X191887934Y-111414430D01*
X191890102Y-111452698D01*
X191911540Y-111505231D01*
X191917916Y-111516176D01*
X191950120Y-111573826D01*
X191955991Y-111610053D01*
X191934086Y-111637674D01*
X191901909Y-111658483D01*
X191845258Y-111680589D01*
X191806659Y-111672578D01*
X191775219Y-111644517D01*
X191774805Y-111620376D01*
X191800501Y-111611833D01*
X191838544Y-111598747D01*
X191845002Y-111567003D01*
X191818232Y-111527873D01*
X191813357Y-111523738D01*
X191768814Y-111492559D01*
X191742711Y-111493065D01*
X191727108Y-111529293D01*
X191719202Y-111571604D01*
X191708097Y-111624728D01*
X191694767Y-111642671D01*
X191674948Y-111633163D01*
X191656419Y-111609753D01*
X191663927Y-111580015D01*
X191678402Y-111556314D01*
X191700061Y-111517110D01*
X191704076Y-111496641D01*
X191677953Y-111487205D01*
X191620050Y-111473643D01*
X191540494Y-111457809D01*
X191449413Y-111441560D01*
X191356936Y-111426751D01*
X191273190Y-111415238D01*
X191238931Y-111411414D01*
X191099444Y-111397522D01*
X191000407Y-111268196D01*
X190942791Y-111198988D01*
X190884658Y-111138933D01*
X190838038Y-111100395D01*
X190835757Y-111098969D01*
X190794386Y-111069674D01*
X190778725Y-111038829D01*
X190781505Y-110988646D01*
X190784013Y-110972344D01*
X190797389Y-110902756D01*
X190813318Y-110867078D01*
X190838332Y-110857075D01*
X190871161Y-110862494D01*
X190920906Y-110860901D01*
X190989023Y-110832848D01*
X191033906Y-110807124D01*
X191093865Y-110770122D01*
X191137702Y-110742335D01*
X191154274Y-110731015D01*
X191148421Y-110711650D01*
X191125248Y-110681418D01*
X191101010Y-110639472D01*
X191099499Y-110608560D01*
X191129178Y-110581972D01*
X191194879Y-110553429D01*
X191290447Y-110524588D01*
X191409726Y-110497109D01*
X191546559Y-110472651D01*
X191664167Y-110456417D01*
X191875492Y-110427347D01*
X192063690Y-110392934D01*
X192247933Y-110349588D01*
X192279843Y-110341178D01*
X192351107Y-110305365D01*
X192381202Y-110265073D01*
X192406634Y-110209255D01*
X192125359Y-110219428D01*
X192000633Y-110225087D01*
X191905243Y-110233074D01*
X191826191Y-110245503D01*
X191750482Y-110264489D01*
X191665117Y-110292145D01*
X191653584Y-110296154D01*
X191560967Y-110327378D01*
X191494551Y-110345358D01*
X191441008Y-110352010D01*
X191387014Y-110349251D01*
X191336084Y-110341809D01*
X191251325Y-110331629D01*
X191145522Y-110324155D01*
X191039945Y-110320838D01*
X191028225Y-110320789D01*
X190847366Y-110320666D01*
X190770439Y-110220125D01*
X190685687Y-110116703D01*
X190612948Y-110042885D01*
X190555023Y-110001139D01*
X190514713Y-109993935D01*
X190514144Y-109994146D01*
X190483831Y-110021502D01*
X190478834Y-110039867D01*
X190469065Y-110072519D01*
X190443111Y-110130792D01*
X190405995Y-110203674D01*
X190394167Y-110225416D01*
X190350773Y-110307922D01*
X190325310Y-110371116D01*
X190313130Y-110431492D01*
X190309584Y-110505545D01*
X190309500Y-110525805D01*
X190296715Y-110695783D01*
X190257808Y-110834266D01*
X190191952Y-110943700D01*
X190155481Y-110982125D01*
X190107842Y-111025620D01*
X190075133Y-111054451D01*
X190066035Y-111061500D01*
X190065451Y-111041800D01*
X190066648Y-110988473D01*
X190069380Y-110910176D01*
X190072499Y-110835479D01*
X190074184Y-110709955D01*
X190070015Y-110569806D01*
X190060877Y-110438873D01*
X190056257Y-110396271D01*
X190041689Y-110291320D01*
X190025643Y-110214814D01*
X190003804Y-110152961D01*
X189971860Y-110091966D01*
X189949869Y-110056083D01*
X189894958Y-109956039D01*
X189843163Y-109833401D01*
X189792653Y-109682883D01*
X189741599Y-109499199D01*
X189704308Y-109347000D01*
X189677890Y-109240732D01*
X189650357Y-109140523D01*
X189625294Y-109058891D01*
X189609090Y-109014572D01*
X189564458Y-108864775D01*
X189556795Y-108733166D01*
X189060667Y-108733166D01*
X189052923Y-108750589D01*
X189046556Y-108747277D01*
X189044023Y-108722157D01*
X189046556Y-108719055D01*
X189059140Y-108721961D01*
X189060667Y-108733166D01*
X189556795Y-108733166D01*
X189555668Y-108713825D01*
X189583256Y-108572293D01*
X189586262Y-108563833D01*
X189614140Y-108473024D01*
X189636658Y-108374335D01*
X189643616Y-108331000D01*
X189656524Y-108251504D01*
X189676123Y-108178154D01*
X189706106Y-108103016D01*
X189750169Y-108018150D01*
X189812007Y-107915623D01*
X189895317Y-107787496D01*
X189899852Y-107780666D01*
X189977378Y-107664250D01*
X189081834Y-107664250D01*
X189071250Y-107674833D01*
X189060667Y-107664250D01*
X189071250Y-107653666D01*
X189081834Y-107664250D01*
X189977378Y-107664250D01*
X189986770Y-107650147D01*
X190053411Y-107550888D01*
X190102728Y-107478756D01*
X190137671Y-107429620D01*
X190161192Y-107399347D01*
X190176242Y-107383804D01*
X190185771Y-107378859D01*
X190186859Y-107378777D01*
X190203799Y-107395625D01*
X190235351Y-107440562D01*
X190275422Y-107504749D01*
X190285720Y-107522190D01*
X190333225Y-107595379D01*
X190381301Y-107656176D01*
X190420526Y-107692847D01*
X190424814Y-107695409D01*
X190466465Y-107712911D01*
X190493251Y-107702229D01*
X190515461Y-107673427D01*
X190563423Y-107613568D01*
X190628257Y-107551310D01*
X190716146Y-107481463D01*
X190833272Y-107398837D01*
X190879711Y-107367670D01*
X190975919Y-107301900D01*
X191072810Y-107232602D01*
X191156710Y-107169698D01*
X191198170Y-107136632D01*
X191276767Y-107077978D01*
X191331804Y-107052043D01*
X191351628Y-107051991D01*
X191380162Y-107051360D01*
X191388931Y-107018480D01*
X191389000Y-107012724D01*
X191377539Y-106972107D01*
X191337108Y-106939410D01*
X191309050Y-106925543D01*
X191229100Y-106889491D01*
X191236069Y-106599537D01*
X191239324Y-106482112D01*
X191243923Y-106395760D01*
X191251972Y-106329226D01*
X191265577Y-106271256D01*
X191286843Y-106210597D01*
X191317875Y-106135994D01*
X191326602Y-106115712D01*
X191362046Y-106031530D01*
X191390032Y-105961351D01*
X191406898Y-105914566D01*
X191410167Y-105901303D01*
X191426486Y-105874385D01*
X191468205Y-105834036D01*
X191524468Y-105788678D01*
X191584420Y-105746736D01*
X191637205Y-105716631D01*
X191658990Y-105708241D01*
X191700974Y-105686669D01*
X191727685Y-105644109D01*
X191742067Y-105573199D01*
X191746724Y-105488695D01*
X191755114Y-105408299D01*
X191773493Y-105330852D01*
X191780584Y-105311485D01*
X191807720Y-105222670D01*
X191807557Y-105155111D01*
X191785875Y-105118813D01*
X191752210Y-105101869D01*
X191692069Y-105079679D01*
X191634738Y-105061850D01*
X191510059Y-105026090D01*
X191412488Y-105095122D01*
X191348218Y-105140323D01*
X191290556Y-105180424D01*
X191266181Y-105197119D01*
X191221438Y-105239517D01*
X191164470Y-105310971D01*
X191101165Y-105402276D01*
X191037411Y-105504225D01*
X190979096Y-105607613D01*
X190932109Y-105703232D01*
X190913417Y-105748666D01*
X190873479Y-105845140D01*
X190821507Y-105956475D01*
X190767526Y-106061399D01*
X190757560Y-106079405D01*
X190710907Y-106160655D01*
X190673552Y-106215546D01*
X190634268Y-106254743D01*
X190581825Y-106288913D01*
X190504997Y-106328720D01*
X190484228Y-106339035D01*
X190307686Y-106412505D01*
X190113787Y-106464166D01*
X190091550Y-106468607D01*
X189978811Y-106490275D01*
X189902100Y-106503636D01*
X189855885Y-106508457D01*
X189834638Y-106504503D01*
X189832830Y-106491541D01*
X189844930Y-106469339D01*
X189851983Y-106458494D01*
X189877001Y-106411040D01*
X189886167Y-106377380D01*
X189902743Y-106355010D01*
X189947260Y-106315658D01*
X190011906Y-106265008D01*
X190088868Y-106208742D01*
X190170333Y-106152542D01*
X190248487Y-106102093D01*
X190315517Y-106063076D01*
X190325375Y-106057922D01*
X190378217Y-106021544D01*
X190393547Y-105989432D01*
X190371504Y-105967221D01*
X190322973Y-105960333D01*
X190174180Y-105972809D01*
X190048782Y-106012950D01*
X189935023Y-106084827D01*
X189914459Y-106101805D01*
X189852966Y-106156094D01*
X189819310Y-106196935D01*
X189809092Y-106238321D01*
X189817913Y-106294246D01*
X189834745Y-106355431D01*
X189840007Y-106384075D01*
X189826603Y-106393170D01*
X189784772Y-106386570D01*
X189766463Y-106382394D01*
X189689125Y-106365613D01*
X189634686Y-106361257D01*
X189595669Y-106374760D01*
X189564602Y-106411558D01*
X189534008Y-106477083D01*
X189496415Y-106576772D01*
X189495428Y-106579458D01*
X189454857Y-106684688D01*
X189411075Y-106789956D01*
X189370681Y-106879730D01*
X189351442Y-106918502D01*
X189320605Y-106982835D01*
X189302617Y-107032001D01*
X189301187Y-107054575D01*
X189329005Y-107059292D01*
X189389547Y-107057196D01*
X189473955Y-107049433D01*
X189573373Y-107037146D01*
X189678947Y-107021482D01*
X189781820Y-107003585D01*
X189873135Y-106984600D01*
X189907334Y-106976206D01*
X189986552Y-106956311D01*
X190051298Y-106941519D01*
X190089456Y-106934569D01*
X190092542Y-106934362D01*
X190107039Y-106948673D01*
X190115586Y-106995101D01*
X190118902Y-107078164D01*
X190119000Y-107100867D01*
X190119000Y-107267734D01*
X189976125Y-107282113D01*
X189883347Y-107295912D01*
X189773197Y-107318744D01*
X189668337Y-107345866D01*
X189660856Y-107348079D01*
X189581362Y-107371523D01*
X189518564Y-107389397D01*
X189482525Y-107398863D01*
X189478003Y-107399666D01*
X189467632Y-107381245D01*
X189455682Y-107335955D01*
X189453799Y-107326390D01*
X189437662Y-107274351D01*
X189405624Y-107249140D01*
X189368890Y-107239765D01*
X189300999Y-107230766D01*
X189255186Y-107238942D01*
X189222841Y-107271008D01*
X189195354Y-107333685D01*
X189177519Y-107389083D01*
X189148830Y-107476505D01*
X189122237Y-107546105D01*
X189100503Y-107591853D01*
X189086395Y-107607724D01*
X189082477Y-107596264D01*
X189088263Y-107565074D01*
X189104190Y-107505205D01*
X189127135Y-107428181D01*
X189133689Y-107407318D01*
X189156586Y-107329271D01*
X189171427Y-107266748D01*
X189175762Y-107230530D01*
X189174774Y-107226595D01*
X189147345Y-107212639D01*
X189117313Y-107209166D01*
X189064699Y-107197528D01*
X188994360Y-107167653D01*
X188922138Y-107127101D01*
X188875977Y-107093992D01*
X188843274Y-107068259D01*
X188786116Y-107024450D01*
X188713978Y-106969799D01*
X188669084Y-106936041D01*
X188591394Y-106877392D01*
X188522052Y-106824334D01*
X188471069Y-106784561D01*
X188454311Y-106770994D01*
X188403279Y-106709923D01*
X188351283Y-106615194D01*
X188301682Y-106495261D01*
X188257831Y-106358578D01*
X188223089Y-106213600D01*
X188214485Y-106167074D01*
X188192320Y-106049665D01*
X188166577Y-105932513D01*
X188140027Y-105826893D01*
X188115444Y-105744081D01*
X188101168Y-105706333D01*
X188076723Y-105665255D01*
X188033219Y-105603628D01*
X187979017Y-105533153D01*
X187965028Y-105515833D01*
X187852743Y-105378250D01*
X187858747Y-105220545D01*
X187864750Y-105062840D01*
X188203417Y-104912289D01*
X188328669Y-104855611D01*
X188453821Y-104797219D01*
X188568084Y-104742269D01*
X188660666Y-104695916D01*
X188700834Y-104674642D01*
X188891051Y-104590811D01*
X189028917Y-104553189D01*
X189118270Y-104533071D01*
X189180455Y-104511674D01*
X189230220Y-104481789D01*
X189282312Y-104436210D01*
X189296562Y-104422367D01*
X189345979Y-104371543D01*
X189377415Y-104328674D01*
X189397283Y-104279941D01*
X189411993Y-104211528D01*
X189421273Y-104153575D01*
X189446974Y-104021504D01*
X189485908Y-103879382D01*
X189539986Y-103722097D01*
X189611121Y-103544543D01*
X189701225Y-103341608D01*
X189812210Y-103108185D01*
X189813651Y-103105230D01*
X189915612Y-102898151D01*
X190003365Y-102724743D01*
X190079845Y-102579970D01*
X190147985Y-102458794D01*
X190210717Y-102356179D01*
X190270976Y-102267088D01*
X190331695Y-102186484D01*
X190389096Y-102117108D01*
X190509282Y-101957486D01*
X190597758Y-101796926D01*
X190651951Y-101641075D01*
X190669334Y-101502467D01*
X190672834Y-101427706D01*
X190682208Y-101327867D01*
X190695767Y-101219526D01*
X190703306Y-101169116D01*
X190741075Y-100991052D01*
X190797903Y-100821640D01*
X190876879Y-100655792D01*
X190981088Y-100488419D01*
X191113616Y-100314434D01*
X191277552Y-100128747D01*
X191428991Y-99972732D01*
X191536829Y-99868005D01*
X191648954Y-99763974D01*
X191756920Y-99668141D01*
X191852280Y-99588007D01*
X191925254Y-99532012D01*
X192014012Y-99471886D01*
X192093018Y-99425784D01*
X192175546Y-99387406D01*
X192274870Y-99350452D01*
X192379768Y-99316287D01*
X192568615Y-99257547D01*
X192727569Y-99209901D01*
X192866792Y-99170736D01*
X192996444Y-99137444D01*
X193126687Y-99107414D01*
X193267682Y-99078036D01*
X193428170Y-99046968D01*
X193553241Y-99023612D01*
X193657643Y-99005484D01*
X193748741Y-98992373D01*
X193833903Y-98984070D01*
X193920494Y-98980365D01*
X194015882Y-98981048D01*
X194127432Y-98985909D01*
X194262512Y-98994738D01*
X194428488Y-99007326D01*
X194532250Y-99015509D01*
X194636146Y-99022723D01*
X194772777Y-99030694D01*
X194932565Y-99038948D01*
X195105930Y-99047010D01*
X195283294Y-99054406D01*
X195421250Y-99059512D01*
X195635886Y-99067892D01*
X195814206Y-99077072D01*
X195962227Y-99087519D01*
X196085966Y-99099700D01*
X196191440Y-99114082D01*
X196246750Y-99123642D01*
X196376580Y-99143725D01*
X196535365Y-99160489D01*
X196727373Y-99174298D01*
X196956871Y-99185514D01*
X196987584Y-99186721D01*
X197194489Y-99195117D01*
X197364542Y-99203510D01*
X197503211Y-99212849D01*
X197615968Y-99224080D01*
X197708282Y-99238151D01*
X197785623Y-99256010D01*
X197853460Y-99278603D01*
X197917264Y-99306880D01*
X197982505Y-99341787D01*
X198024750Y-99366388D01*
X198244846Y-99476997D01*
X198437500Y-99546997D01*
X198594622Y-99596606D01*
X198719757Y-99641087D01*
X198822204Y-99684675D01*
X198911263Y-99731607D01*
X198996232Y-99786116D01*
X199053798Y-99827711D01*
X199150634Y-99894573D01*
X199264282Y-99964931D01*
X199372773Y-100025301D01*
X199390000Y-100034038D01*
X199495525Y-100090420D01*
X199610644Y-100157956D01*
X199713241Y-100223575D01*
X199728667Y-100234172D01*
X199823531Y-100297523D01*
X199928493Y-100363395D01*
X200023059Y-100418986D01*
X200035584Y-100425922D01*
X200165244Y-100508543D01*
X200310737Y-100621104D01*
X200465991Y-100757320D01*
X200624930Y-100910906D01*
X200781482Y-101075579D01*
X200929573Y-101245053D01*
X201063128Y-101413044D01*
X201176074Y-101573267D01*
X201231677Y-101663500D01*
X201286660Y-101755618D01*
X201353996Y-101863813D01*
X201421952Y-101969347D01*
X201444625Y-102003551D01*
X201504076Y-102098495D01*
X201573380Y-102219038D01*
X201648093Y-102356440D01*
X201723772Y-102501956D01*
X201795974Y-102646846D01*
X201860256Y-102782367D01*
X201912174Y-102899776D01*
X201947285Y-102990331D01*
X201949460Y-102996837D01*
X201973986Y-103088513D01*
X201987968Y-103188188D01*
X201993298Y-103310910D01*
X201993500Y-103347043D01*
X201996252Y-103468954D01*
X202006098Y-103566124D01*
X202025432Y-103655882D01*
X202045126Y-103721247D01*
X202083504Y-103855836D01*
X202117058Y-104005336D01*
X202143131Y-104155074D01*
X202159065Y-104290374D01*
X202162766Y-104370721D01*
X202167012Y-104451112D01*
X202178064Y-104550880D01*
X202193088Y-104645887D01*
X202206956Y-104740862D01*
X202219906Y-104869109D01*
X202231622Y-105022470D01*
X202241788Y-105192792D01*
X202250091Y-105371917D01*
X202256213Y-105551689D01*
X202259840Y-105723953D01*
X202260657Y-105880552D01*
X202258348Y-106013331D01*
X202252597Y-106114133D01*
X202250598Y-106133274D01*
X202239554Y-106240969D01*
X202231140Y-106350663D01*
X202226701Y-106443746D01*
X202226334Y-106469658D01*
X202213354Y-106607189D01*
X202174159Y-106773612D01*
X202108363Y-106970415D01*
X202073301Y-107061000D01*
X202037304Y-107157133D01*
X201997430Y-107273297D01*
X201960759Y-107388632D01*
X201951184Y-107420833D01*
X201919920Y-107523816D01*
X201886573Y-107626613D01*
X201856695Y-107712335D01*
X201846850Y-107738333D01*
X201828978Y-107790337D01*
X201802391Y-107876407D01*
X201769084Y-107989656D01*
X201731054Y-108123194D01*
X201690294Y-108270132D01*
X201653797Y-108404887D01*
X201597058Y-108612391D01*
X201546714Y-108784841D01*
X201500162Y-108928550D01*
X201454801Y-109049832D01*
X201408030Y-109154999D01*
X201357246Y-109250364D01*
X201299849Y-109342240D01*
X201233236Y-109436941D01*
X201222448Y-109451565D01*
X201150109Y-109556392D01*
X201073879Y-109678536D01*
X201006809Y-109796752D01*
X200987631Y-109833833D01*
X200943226Y-109917777D01*
X200881722Y-110027223D01*
X200808975Y-110152105D01*
X200730839Y-110282353D01*
X200661434Y-110394750D01*
X200566845Y-110545582D01*
X200491647Y-110666675D01*
X200432966Y-110764293D01*
X200387929Y-110844703D01*
X200353660Y-110914168D01*
X200327286Y-110978956D01*
X200305932Y-111045330D01*
X200286725Y-111119557D01*
X200266790Y-111207901D01*
X200247490Y-111297099D01*
X200196666Y-111516902D01*
X200145352Y-111702995D01*
X200089720Y-111863872D01*
X200025945Y-112008026D01*
X199950201Y-112143949D01*
X199858662Y-112280134D01*
X199747502Y-112425074D01*
X199729044Y-112447916D01*
X199655473Y-112539882D01*
X199603498Y-112610819D01*
X199567308Y-112671963D01*
X199541092Y-112734548D01*
X199519040Y-112809811D01*
X199499167Y-112892416D01*
X199482070Y-112977018D01*
X199468626Y-113070531D01*
X199458140Y-113180743D01*
X199449915Y-113315446D01*
X199443255Y-113482428D01*
X199441518Y-113538000D01*
X199427969Y-113993083D01*
X199607564Y-114369158D01*
X199666780Y-114496704D01*
X199722051Y-114622293D01*
X199769588Y-114736817D01*
X199805604Y-114831170D01*
X199825633Y-114893571D01*
X199864107Y-115041909D01*
X199995618Y-115115454D01*
X200127129Y-115189000D01*
X199815000Y-114485000D01*
X199615000Y-113985000D01*
X199625000Y-113585000D01*
X199665000Y-113115000D01*
X199725000Y-112805000D01*
X199915000Y-112515000D01*
X200135000Y-112215000D01*
X200315000Y-111785000D01*
X200375000Y-111385000D01*
X200445000Y-111105000D01*
X200695000Y-110615000D01*
X201025000Y-110095000D01*
X201375000Y-109555000D01*
X201625000Y-109125000D01*
X201875000Y-108275000D01*
X202175000Y-107395000D01*
X202355000Y-106705000D01*
X202425000Y-105945000D01*
X202405000Y-105315000D01*
X202395000Y-104785000D01*
X202335000Y-104235000D01*
X202255000Y-103865000D01*
X202165000Y-103585000D01*
X202165000Y-103275000D01*
X202105000Y-102995000D01*
X201945000Y-102585000D01*
X201705000Y-102155000D01*
X201465000Y-101755000D01*
X201375000Y-101575000D01*
X201235000Y-101405000D01*
X201065000Y-101155000D01*
X200735000Y-100805000D01*
X200415000Y-100525000D01*
X199595000Y-99985000D01*
X198765000Y-99535000D01*
X197995000Y-99145000D01*
X197615000Y-99035000D01*
X197305000Y-99035000D01*
X196895000Y-99035000D01*
X196385000Y-98975000D01*
X195825000Y-98915000D01*
X195175000Y-98895000D01*
X194195000Y-98845000D01*
X193625000Y-98845000D01*
X193265000Y-98895000D01*
X192795000Y-99005000D01*
X192315000Y-99155000D01*
X191795000Y-99425000D01*
X191375000Y-99775000D01*
X190945000Y-100265000D01*
X190685000Y-100635000D01*
X190545000Y-101135000D01*
X190505000Y-101545000D01*
X190445000Y-101735000D01*
X190345000Y-101935000D01*
X190155000Y-102195000D01*
X189875000Y-102615000D01*
X189625000Y-103125000D01*
X189445000Y-103525000D01*
X189315000Y-103935000D01*
X189275000Y-104195000D01*
X189255000Y-104275000D01*
X189195000Y-104345000D01*
X189085000Y-104405000D01*
X188875000Y-104465000D01*
X188545000Y-104595000D01*
X188175000Y-104745000D01*
X187865000Y-104885000D01*
X187735000Y-105005000D01*
X187725000Y-105165000D01*
X187725000Y-105435000D01*
X187795000Y-105535000D01*
X187925000Y-105675000D01*
X187995000Y-105955000D01*
X188065000Y-106255000D01*
X188185000Y-106645000D01*
X188315000Y-106865000D01*
X188445000Y-107015000D01*
X188645000Y-107135000D01*
X188955000Y-107335000D01*
X188905000Y-107625000D01*
X188875000Y-107955000D01*
X188875000Y-108395000D01*
X188865000Y-108635000D01*
X188875000Y-109055000D01*
X188925000Y-109555000D01*
X189015000Y-109985000D01*
X189125000Y-110385000D01*
X189242417Y-110729291D01*
X189335000Y-111055000D01*
X189585000Y-111685000D01*
X189775000Y-112075000D01*
G37*
X189775000Y-112075000D02*
X189995000Y-112525000D01*
X190115000Y-112755000D01*
X190265000Y-112875000D01*
X190445000Y-113005000D01*
X190565000Y-113055000D01*
X190635000Y-113105000D01*
X190675000Y-113175000D01*
X190715000Y-113245000D01*
X190715000Y-113315000D01*
X190655000Y-113485000D01*
X190565000Y-113745000D01*
X190335000Y-114275000D01*
X190165000Y-114805000D01*
X189939084Y-115188891D01*
X190058028Y-115117165D01*
X190126482Y-115077664D01*
X190185740Y-115046559D01*
X190218811Y-115032161D01*
X190253993Y-115002680D01*
X190284720Y-114945187D01*
X190288563Y-114934304D01*
X190312435Y-114875602D01*
X190337501Y-114833594D01*
X190343701Y-114827132D01*
X190363124Y-114793630D01*
X190380318Y-114735522D01*
X190385490Y-114707419D01*
X190395771Y-114650740D01*
X190406277Y-114630085D01*
X190421025Y-114639314D01*
X190425902Y-114645649D01*
X190466505Y-114679139D01*
X190511401Y-114672769D01*
X190561952Y-114625917D01*
X190604054Y-114564404D01*
X190674718Y-114447808D01*
X190597943Y-114349264D01*
X190556537Y-114292261D01*
X190528662Y-114246502D01*
X190521167Y-114226456D01*
X190530425Y-114184561D01*
X190555725Y-114113907D01*
X190593353Y-114023178D01*
X190639599Y-113921055D01*
X190690750Y-113816222D01*
X190723218Y-113753826D01*
X190791395Y-113616474D01*
X190845798Y-113486806D01*
X190883396Y-113373129D01*
X190901159Y-113283751D01*
X190902167Y-113263356D01*
X190886703Y-113205444D01*
X190858838Y-113166681D01*
X190820487Y-113122725D01*
X190779424Y-113062606D01*
X190770273Y-113046984D01*
X190739475Y-112997963D01*
X190715274Y-112969445D01*
X190709446Y-112966500D01*
X190685619Y-112956109D01*
X190634841Y-112928271D01*
X190566051Y-112887990D01*
X190528462Y-112865216D01*
X190399658Y-112774962D01*
X190302055Y-112682347D01*
X190282895Y-112658841D01*
X190254262Y-112614412D01*
X190210357Y-112537470D01*
X190154058Y-112433746D01*
X190088246Y-112308971D01*
X190015801Y-112168877D01*
X189939601Y-112019194D01*
X189862528Y-111865654D01*
X189787461Y-111713987D01*
X189717279Y-111569924D01*
X189654862Y-111439198D01*
X189603090Y-111327537D01*
X189564844Y-111240674D01*
X189545092Y-111190541D01*
X189520193Y-111112139D01*
X189491973Y-111012784D01*
X189466198Y-110912867D01*
X189464255Y-110904791D01*
X189438228Y-110806202D01*
X189403301Y-110687648D01*
X189365383Y-110568820D01*
X189349037Y-110520845D01*
X189234144Y-110158074D01*
X189148006Y-109810937D01*
X189091356Y-109483195D01*
X189064930Y-109178609D01*
X189063040Y-109055948D01*
X189064082Y-108940628D01*
X189065404Y-108864167D01*
X189067629Y-108823092D01*
X189071379Y-108813932D01*
X189077277Y-108833213D01*
X189085943Y-108877463D01*
X189090529Y-108902500D01*
X189131334Y-109042745D01*
X189196500Y-109177666D01*
X189238021Y-109251054D01*
X189261066Y-109304491D01*
X189269672Y-109353876D01*
X189267880Y-109415109D01*
X189265058Y-109447541D01*
X189260223Y-109527088D01*
X189265292Y-109568809D01*
X189281826Y-109576379D01*
X189310434Y-109554433D01*
X189342287Y-109537605D01*
X189362756Y-109555254D01*
X189368490Y-109600295D01*
X189358768Y-109656670D01*
X189346597Y-109713175D01*
X189352056Y-109745468D01*
X189369765Y-109763625D01*
X189390273Y-109786668D01*
X189391000Y-109820411D01*
X189378166Y-109865585D01*
X189362452Y-109926469D01*
X189368727Y-109953480D01*
X189398947Y-109950038D01*
X189420500Y-109939666D01*
X189458818Y-109924283D01*
X189475909Y-109924520D01*
X189486218Y-109948220D01*
X189504027Y-110001076D01*
X189524725Y-110069110D01*
X189555034Y-110160817D01*
X189595063Y-110266055D01*
X189631879Y-110352416D01*
X189674637Y-110450151D01*
X189721207Y-110563150D01*
X189760939Y-110665450D01*
X189802681Y-110764162D01*
X189853967Y-110866435D01*
X189903917Y-110950624D01*
X189905378Y-110952786D01*
X189948380Y-111019680D01*
X189974200Y-111074340D01*
X189988051Y-111133337D01*
X189995150Y-111213242D01*
X189996705Y-111243002D01*
X190007200Y-111361924D01*
X190025697Y-111476162D01*
X190050025Y-111577725D01*
X190078013Y-111658621D01*
X190107491Y-111710859D01*
X190127965Y-111726127D01*
X190167856Y-111730688D01*
X190194184Y-111713295D01*
X190214735Y-111666043D01*
X190225784Y-111626814D01*
X190257141Y-111544075D01*
X190295803Y-111502023D01*
X190339334Y-111501098D01*
X190385298Y-111541741D01*
X190416235Y-111592434D01*
X190433898Y-111633434D01*
X190445834Y-111680609D01*
X190453082Y-111742953D01*
X190456681Y-111829463D01*
X190457667Y-111949131D01*
X190457667Y-111951474D01*
X190460932Y-112114364D01*
X190471191Y-112243347D01*
X190489139Y-112346381D01*
X190493844Y-112365067D01*
X190530020Y-112500833D01*
X190713717Y-112500833D01*
X190814026Y-112503049D01*
X190889347Y-112511899D01*
X190956896Y-112530685D01*
X191032082Y-112561887D01*
X191105458Y-112594538D01*
X191167371Y-112620998D01*
X191203792Y-112635306D01*
X191229945Y-112658282D01*
X191240286Y-112709897D01*
X191240834Y-112733002D01*
X191244331Y-112786276D01*
X191253075Y-112816052D01*
X191256709Y-112818320D01*
X191280074Y-112806123D01*
X191326598Y-112774048D01*
X191386530Y-112728844D01*
X191390903Y-112725420D01*
X191509222Y-112632534D01*
X191650043Y-112664124D01*
X191790865Y-112695714D01*
X191919003Y-112600493D01*
X192007253Y-112524952D01*
X192090109Y-112430978D01*
X192172335Y-112315235D01*
X192239157Y-112218842D01*
X192292973Y-112154690D01*
X192339843Y-112117228D01*
X192385828Y-112100898D01*
X192408278Y-112098955D01*
X192415137Y-112116762D01*
X192413651Y-112160824D01*
X192405916Y-112216374D01*
X192394029Y-112268642D01*
X192380086Y-112302860D01*
X192379153Y-112304114D01*
X192369750Y-112341492D01*
X192392870Y-112369135D01*
X192415184Y-112373833D01*
X192444376Y-112358796D01*
X192487805Y-112320279D01*
X192516917Y-112288687D01*
X192589798Y-112203542D01*
X192601453Y-112290435D01*
X192614809Y-112361595D01*
X192631190Y-112393163D01*
X192652029Y-112387851D01*
X192652612Y-112387277D01*
X192656256Y-112359604D01*
X192647481Y-112308283D01*
X192642029Y-112288499D01*
X192618238Y-112209819D01*
X192594259Y-112130680D01*
X192592298Y-112124218D01*
X192579745Y-112071216D01*
X192584241Y-112030078D01*
X192609514Y-111981559D01*
X192624367Y-111958653D01*
X192674917Y-111898454D01*
X192733974Y-111849787D01*
X192753425Y-111838739D01*
X192801246Y-111817784D01*
X192824519Y-111816903D01*
X192836362Y-111836843D01*
X192838578Y-111843599D01*
X192863826Y-111882710D01*
X192882056Y-111894963D01*
X192898405Y-111912128D01*
X192908134Y-111953068D01*
X192912470Y-112025054D01*
X192913000Y-112078599D01*
X192914779Y-112167813D01*
X192920697Y-112220180D01*
X192931625Y-112241058D01*
X192939459Y-112241290D01*
X192957313Y-112215578D01*
X192963596Y-112165557D01*
X192957564Y-112107842D01*
X192946926Y-112074606D01*
X192942376Y-112052356D01*
X192963242Y-112047852D01*
X193000827Y-112054146D01*
X193058072Y-112077769D01*
X193081632Y-112116862D01*
X193093089Y-112165394D01*
X193138050Y-112116155D01*
X193169222Y-112066939D01*
X193198673Y-111996249D01*
X193210995Y-111954865D01*
X193238277Y-111867636D01*
X193267575Y-111820592D01*
X193301010Y-111811582D01*
X193333106Y-111831162D01*
X193385821Y-111862392D01*
X193428441Y-111856050D01*
X193454584Y-111813132D01*
X193454827Y-111812177D01*
X193482847Y-111764091D01*
X193527940Y-111727677D01*
X193569989Y-111708873D01*
X193590087Y-111713808D01*
X193600970Y-111739000D01*
X193620215Y-111771480D01*
X193642328Y-111781384D01*
X193653781Y-111763128D01*
X193653834Y-111760815D01*
X193672252Y-111743281D01*
X193718429Y-111723694D01*
X193739430Y-111717416D01*
X193806862Y-111689273D01*
X193843028Y-111646326D01*
X193846093Y-111638957D01*
X193853936Y-111565815D01*
X193832135Y-111485184D01*
X193790307Y-111420106D01*
X193770193Y-111391877D01*
X193784956Y-111377863D01*
X193802409Y-111372760D01*
X193827876Y-111373379D01*
X193858398Y-111391623D01*
X193899694Y-111432579D01*
X193957483Y-111501332D01*
X193983172Y-111533547D01*
X194040201Y-111609137D01*
X194085512Y-111675799D01*
X194113400Y-111724742D01*
X194119500Y-111743560D01*
X194129059Y-111776636D01*
X194159644Y-111774019D01*
X194175936Y-111764814D01*
X194189328Y-111732225D01*
X194184688Y-111666530D01*
X194162971Y-111572458D01*
X194125133Y-111454737D01*
X194099286Y-111385444D01*
X194064415Y-111293470D01*
X194044585Y-111228421D01*
X194039114Y-111177913D01*
X194047322Y-111129566D01*
X194068527Y-111070998D01*
X194080409Y-111042146D01*
X194106669Y-110970392D01*
X194114403Y-110917917D01*
X194105840Y-110867103D01*
X194103542Y-110859358D01*
X194095558Y-110796281D01*
X194116916Y-110762733D01*
X194164594Y-110760953D01*
X194211366Y-110779472D01*
X194262674Y-110798492D01*
X194317889Y-110798005D01*
X194364758Y-110788077D01*
X194421376Y-110776882D01*
X194467835Y-110779170D01*
X194521621Y-110797748D01*
X194571533Y-110821226D01*
X194640988Y-110859657D01*
X194687096Y-110900660D01*
X194724728Y-110959465D01*
X194743665Y-110997472D01*
X194781015Y-111065726D01*
X194819287Y-111120154D01*
X194844315Y-111144469D01*
X194874897Y-111160700D01*
X194878628Y-111149507D01*
X194873269Y-111134079D01*
X194871970Y-111096272D01*
X194882675Y-111081940D01*
X194889696Y-111054991D01*
X194882128Y-111000077D01*
X194862750Y-110927841D01*
X194834341Y-110848925D01*
X194804897Y-110784011D01*
X194788218Y-110741185D01*
X194788034Y-110717522D01*
X194817462Y-110711917D01*
X194855904Y-110724154D01*
X194880512Y-110745891D01*
X194881825Y-110751760D01*
X194892680Y-110790203D01*
X194900306Y-110804403D01*
X194919330Y-110818496D01*
X194949313Y-110804836D01*
X194974065Y-110784711D01*
X195020569Y-110728511D01*
X195028829Y-110671108D01*
X194998120Y-110608745D01*
X194927717Y-110537664D01*
X194926088Y-110536287D01*
X194853627Y-110465436D01*
X194813245Y-110399537D01*
X194803620Y-110369076D01*
X194783909Y-110320456D01*
X194756460Y-110287489D01*
X194730156Y-110276122D01*
X194713880Y-110292299D01*
X194712167Y-110307866D01*
X194698662Y-110330659D01*
X194680417Y-110328321D01*
X194662139Y-110328704D01*
X194652389Y-110352975D01*
X194648860Y-110408978D01*
X194648667Y-110436330D01*
X194643926Y-110511520D01*
X194631406Y-110566478D01*
X194621620Y-110583571D01*
X194577588Y-110604962D01*
X194524904Y-110601583D01*
X194475303Y-110579483D01*
X194440521Y-110544715D01*
X194432293Y-110503328D01*
X194437682Y-110488727D01*
X194449852Y-110445381D01*
X194457191Y-110379484D01*
X194458167Y-110345806D01*
X194453847Y-110275704D01*
X194437516Y-110232529D01*
X194410542Y-110206016D01*
X194381908Y-110183500D01*
X194383810Y-110175998D01*
X194421091Y-110179948D01*
X194441677Y-110183111D01*
X194494352Y-110188076D01*
X194520245Y-110176659D01*
X194533719Y-110142435D01*
X194533861Y-110141870D01*
X194534586Y-110086728D01*
X194518892Y-110012142D01*
X194509439Y-109983141D01*
X194480321Y-109917750D01*
X194440216Y-109864729D01*
X194377947Y-109810644D01*
X194346473Y-109787254D01*
X194282020Y-109737720D01*
X194230742Y-109693103D01*
X194203208Y-109662639D01*
X194202564Y-109661505D01*
X194166898Y-109634892D01*
X194108659Y-109626921D01*
X194043108Y-109637235D01*
X193985504Y-109665477D01*
X193984034Y-109666616D01*
X193936735Y-109695625D01*
X193899204Y-109706833D01*
X193872053Y-109713179D01*
X193870652Y-109737391D01*
X193894820Y-109787226D01*
X193897250Y-109791500D01*
X193924355Y-109851294D01*
X193923449Y-109884773D01*
X193894738Y-109889181D01*
X193890080Y-109887833D01*
X193848867Y-109893800D01*
X193790624Y-109925794D01*
X193724810Y-109976822D01*
X193660887Y-110039890D01*
X193625055Y-110083727D01*
X193591862Y-110121140D01*
X193569194Y-110132707D01*
X193565098Y-110128543D01*
X193542876Y-110111538D01*
X193505384Y-110122208D01*
X193463734Y-110155121D01*
X193436164Y-110191613D01*
X193409997Y-110255709D01*
X193399834Y-110317391D01*
X193393507Y-110367025D01*
X193378667Y-110394750D01*
X193359162Y-110393071D01*
X193357500Y-110385415D01*
X193339394Y-110368568D01*
X193304584Y-110363000D01*
X193264805Y-110370245D01*
X193251667Y-110384166D01*
X193234523Y-110402945D01*
X193219917Y-110405333D01*
X193189025Y-110411544D01*
X193190802Y-110425040D01*
X193218325Y-110438118D01*
X193253841Y-110443091D01*
X193313554Y-110450111D01*
X193335270Y-110468890D01*
X193322491Y-110502824D01*
X193319660Y-110506890D01*
X193290492Y-110555647D01*
X193272432Y-110592842D01*
X193251231Y-110626296D01*
X193227398Y-110622940D01*
X193222666Y-110619281D01*
X193185881Y-110604225D01*
X193138481Y-110601017D01*
X193098110Y-110608861D01*
X193082334Y-110625598D01*
X193093555Y-110656163D01*
X193120575Y-110701623D01*
X193153428Y-110747576D01*
X193182148Y-110779621D01*
X193193459Y-110786188D01*
X193207868Y-110803108D01*
X193208765Y-110812791D01*
X193189546Y-110836595D01*
X193139440Y-110866853D01*
X193068531Y-110899379D01*
X192986905Y-110929982D01*
X192904648Y-110954477D01*
X192833997Y-110968412D01*
X192754096Y-110973324D01*
X192698664Y-110962548D01*
X192671064Y-110947999D01*
X192624242Y-110928932D01*
X192580394Y-110927831D01*
X192555079Y-110944081D01*
X192553429Y-110952639D01*
X192569697Y-110971533D01*
X192610102Y-111002411D01*
X192627513Y-111014069D01*
X192673903Y-111051754D01*
X192699548Y-111087420D01*
X192701334Y-111096036D01*
X192695316Y-111118265D01*
X192671310Y-111105264D01*
X192670905Y-111104929D01*
X192636031Y-111092697D01*
X192583316Y-111090360D01*
X192526399Y-111096157D01*
X192478917Y-111108329D01*
X192454510Y-111125114D01*
X192454325Y-111132885D01*
X192467612Y-111165926D01*
X192489971Y-111221338D01*
X192500578Y-111247586D01*
X192521069Y-111310960D01*
X192523058Y-111349141D01*
X192507392Y-111357041D01*
X192485081Y-111340547D01*
X192444958Y-111323711D01*
X192375327Y-111316532D01*
X192286082Y-111317785D01*
X192187118Y-111326245D01*
X192088327Y-111340689D01*
X191999605Y-111359892D01*
X191930845Y-111382630D01*
X191891941Y-111407680D01*
X191887934Y-111414430D01*
X191890102Y-111452698D01*
X191911540Y-111505231D01*
X191917916Y-111516176D01*
X191950120Y-111573826D01*
X191955991Y-111610053D01*
X191934086Y-111637674D01*
X191901909Y-111658483D01*
X191845258Y-111680589D01*
X191806659Y-111672578D01*
X191775219Y-111644517D01*
X191774805Y-111620376D01*
X191800501Y-111611833D01*
X191838544Y-111598747D01*
X191845002Y-111567003D01*
X191818232Y-111527873D01*
X191813357Y-111523738D01*
X191768814Y-111492559D01*
X191742711Y-111493065D01*
X191727108Y-111529293D01*
X191719202Y-111571604D01*
X191708097Y-111624728D01*
X191694767Y-111642671D01*
X191674948Y-111633163D01*
X191656419Y-111609753D01*
X191663927Y-111580015D01*
X191678402Y-111556314D01*
X191700061Y-111517110D01*
X191704076Y-111496641D01*
X191677953Y-111487205D01*
X191620050Y-111473643D01*
X191540494Y-111457809D01*
X191449413Y-111441560D01*
X191356936Y-111426751D01*
X191273190Y-111415238D01*
X191238931Y-111411414D01*
X191099444Y-111397522D01*
X191000407Y-111268196D01*
X190942791Y-111198988D01*
X190884658Y-111138933D01*
X190838038Y-111100395D01*
X190835757Y-111098969D01*
X190794386Y-111069674D01*
X190778725Y-111038829D01*
X190781505Y-110988646D01*
X190784013Y-110972344D01*
X190797389Y-110902756D01*
X190813318Y-110867078D01*
X190838332Y-110857075D01*
X190871161Y-110862494D01*
X190920906Y-110860901D01*
X190989023Y-110832848D01*
X191033906Y-110807124D01*
X191093865Y-110770122D01*
X191137702Y-110742335D01*
X191154274Y-110731015D01*
X191148421Y-110711650D01*
X191125248Y-110681418D01*
X191101010Y-110639472D01*
X191099499Y-110608560D01*
X191129178Y-110581972D01*
X191194879Y-110553429D01*
X191290447Y-110524588D01*
X191409726Y-110497109D01*
X191546559Y-110472651D01*
X191664167Y-110456417D01*
X191875492Y-110427347D01*
X192063690Y-110392934D01*
X192247933Y-110349588D01*
X192279843Y-110341178D01*
X192351107Y-110305365D01*
X192381202Y-110265073D01*
X192406634Y-110209255D01*
X192125359Y-110219428D01*
X192000633Y-110225087D01*
X191905243Y-110233074D01*
X191826191Y-110245503D01*
X191750482Y-110264489D01*
X191665117Y-110292145D01*
X191653584Y-110296154D01*
X191560967Y-110327378D01*
X191494551Y-110345358D01*
X191441008Y-110352010D01*
X191387014Y-110349251D01*
X191336084Y-110341809D01*
X191251325Y-110331629D01*
X191145522Y-110324155D01*
X191039945Y-110320838D01*
X191028225Y-110320789D01*
X190847366Y-110320666D01*
X190770439Y-110220125D01*
X190685687Y-110116703D01*
X190612948Y-110042885D01*
X190555023Y-110001139D01*
X190514713Y-109993935D01*
X190514144Y-109994146D01*
X190483831Y-110021502D01*
X190478834Y-110039867D01*
X190469065Y-110072519D01*
X190443111Y-110130792D01*
X190405995Y-110203674D01*
X190394167Y-110225416D01*
X190350773Y-110307922D01*
X190325310Y-110371116D01*
X190313130Y-110431492D01*
X190309584Y-110505545D01*
X190309500Y-110525805D01*
X190296715Y-110695783D01*
X190257808Y-110834266D01*
X190191952Y-110943700D01*
X190155481Y-110982125D01*
X190107842Y-111025620D01*
X190075133Y-111054451D01*
X190066035Y-111061500D01*
X190065451Y-111041800D01*
X190066648Y-110988473D01*
X190069380Y-110910176D01*
X190072499Y-110835479D01*
X190074184Y-110709955D01*
X190070015Y-110569806D01*
X190060877Y-110438873D01*
X190056257Y-110396271D01*
X190041689Y-110291320D01*
X190025643Y-110214814D01*
X190003804Y-110152961D01*
X189971860Y-110091966D01*
X189949869Y-110056083D01*
X189894958Y-109956039D01*
X189843163Y-109833401D01*
X189792653Y-109682883D01*
X189741599Y-109499199D01*
X189704308Y-109347000D01*
X189677890Y-109240732D01*
X189650357Y-109140523D01*
X189625294Y-109058891D01*
X189609090Y-109014572D01*
X189564458Y-108864775D01*
X189556795Y-108733166D01*
X189060667Y-108733166D01*
X189052923Y-108750589D01*
X189046556Y-108747277D01*
X189044023Y-108722157D01*
X189046556Y-108719055D01*
X189059140Y-108721961D01*
X189060667Y-108733166D01*
X189556795Y-108733166D01*
X189555668Y-108713825D01*
X189583256Y-108572293D01*
X189586262Y-108563833D01*
X189614140Y-108473024D01*
X189636658Y-108374335D01*
X189643616Y-108331000D01*
X189656524Y-108251504D01*
X189676123Y-108178154D01*
X189706106Y-108103016D01*
X189750169Y-108018150D01*
X189812007Y-107915623D01*
X189895317Y-107787496D01*
X189899852Y-107780666D01*
X189977378Y-107664250D01*
X189081834Y-107664250D01*
X189071250Y-107674833D01*
X189060667Y-107664250D01*
X189071250Y-107653666D01*
X189081834Y-107664250D01*
X189977378Y-107664250D01*
X189986770Y-107650147D01*
X190053411Y-107550888D01*
X190102728Y-107478756D01*
X190137671Y-107429620D01*
X190161192Y-107399347D01*
X190176242Y-107383804D01*
X190185771Y-107378859D01*
X190186859Y-107378777D01*
X190203799Y-107395625D01*
X190235351Y-107440562D01*
X190275422Y-107504749D01*
X190285720Y-107522190D01*
X190333225Y-107595379D01*
X190381301Y-107656176D01*
X190420526Y-107692847D01*
X190424814Y-107695409D01*
X190466465Y-107712911D01*
X190493251Y-107702229D01*
X190515461Y-107673427D01*
X190563423Y-107613568D01*
X190628257Y-107551310D01*
X190716146Y-107481463D01*
X190833272Y-107398837D01*
X190879711Y-107367670D01*
X190975919Y-107301900D01*
X191072810Y-107232602D01*
X191156710Y-107169698D01*
X191198170Y-107136632D01*
X191276767Y-107077978D01*
X191331804Y-107052043D01*
X191351628Y-107051991D01*
X191380162Y-107051360D01*
X191388931Y-107018480D01*
X191389000Y-107012724D01*
X191377539Y-106972107D01*
X191337108Y-106939410D01*
X191309050Y-106925543D01*
X191229100Y-106889491D01*
X191236069Y-106599537D01*
X191239324Y-106482112D01*
X191243923Y-106395760D01*
X191251972Y-106329226D01*
X191265577Y-106271256D01*
X191286843Y-106210597D01*
X191317875Y-106135994D01*
X191326602Y-106115712D01*
X191362046Y-106031530D01*
X191390032Y-105961351D01*
X191406898Y-105914566D01*
X191410167Y-105901303D01*
X191426486Y-105874385D01*
X191468205Y-105834036D01*
X191524468Y-105788678D01*
X191584420Y-105746736D01*
X191637205Y-105716631D01*
X191658990Y-105708241D01*
X191700974Y-105686669D01*
X191727685Y-105644109D01*
X191742067Y-105573199D01*
X191746724Y-105488695D01*
X191755114Y-105408299D01*
X191773493Y-105330852D01*
X191780584Y-105311485D01*
X191807720Y-105222670D01*
X191807557Y-105155111D01*
X191785875Y-105118813D01*
X191752210Y-105101869D01*
X191692069Y-105079679D01*
X191634738Y-105061850D01*
X191510059Y-105026090D01*
X191412488Y-105095122D01*
X191348218Y-105140323D01*
X191290556Y-105180424D01*
X191266181Y-105197119D01*
X191221438Y-105239517D01*
X191164470Y-105310971D01*
X191101165Y-105402276D01*
X191037411Y-105504225D01*
X190979096Y-105607613D01*
X190932109Y-105703232D01*
X190913417Y-105748666D01*
X190873479Y-105845140D01*
X190821507Y-105956475D01*
X190767526Y-106061399D01*
X190757560Y-106079405D01*
X190710907Y-106160655D01*
X190673552Y-106215546D01*
X190634268Y-106254743D01*
X190581825Y-106288913D01*
X190504997Y-106328720D01*
X190484228Y-106339035D01*
X190307686Y-106412505D01*
X190113787Y-106464166D01*
X190091550Y-106468607D01*
X189978811Y-106490275D01*
X189902100Y-106503636D01*
X189855885Y-106508457D01*
X189834638Y-106504503D01*
X189832830Y-106491541D01*
X189844930Y-106469339D01*
X189851983Y-106458494D01*
X189877001Y-106411040D01*
X189886167Y-106377380D01*
X189902743Y-106355010D01*
X189947260Y-106315658D01*
X190011906Y-106265008D01*
X190088868Y-106208742D01*
X190170333Y-106152542D01*
X190248487Y-106102093D01*
X190315517Y-106063076D01*
X190325375Y-106057922D01*
X190378217Y-106021544D01*
X190393547Y-105989432D01*
X190371504Y-105967221D01*
X190322973Y-105960333D01*
X190174180Y-105972809D01*
X190048782Y-106012950D01*
X189935023Y-106084827D01*
X189914459Y-106101805D01*
X189852966Y-106156094D01*
X189819310Y-106196935D01*
X189809092Y-106238321D01*
X189817913Y-106294246D01*
X189834745Y-106355431D01*
X189840007Y-106384075D01*
X189826603Y-106393170D01*
X189784772Y-106386570D01*
X189766463Y-106382394D01*
X189689125Y-106365613D01*
X189634686Y-106361257D01*
X189595669Y-106374760D01*
X189564602Y-106411558D01*
X189534008Y-106477083D01*
X189496415Y-106576772D01*
X189495428Y-106579458D01*
X189454857Y-106684688D01*
X189411075Y-106789956D01*
X189370681Y-106879730D01*
X189351442Y-106918502D01*
X189320605Y-106982835D01*
X189302617Y-107032001D01*
X189301187Y-107054575D01*
X189329005Y-107059292D01*
X189389547Y-107057196D01*
X189473955Y-107049433D01*
X189573373Y-107037146D01*
X189678947Y-107021482D01*
X189781820Y-107003585D01*
X189873135Y-106984600D01*
X189907334Y-106976206D01*
X189986552Y-106956311D01*
X190051298Y-106941519D01*
X190089456Y-106934569D01*
X190092542Y-106934362D01*
X190107039Y-106948673D01*
X190115586Y-106995101D01*
X190118902Y-107078164D01*
X190119000Y-107100867D01*
X190119000Y-107267734D01*
X189976125Y-107282113D01*
X189883347Y-107295912D01*
X189773197Y-107318744D01*
X189668337Y-107345866D01*
X189660856Y-107348079D01*
X189581362Y-107371523D01*
X189518564Y-107389397D01*
X189482525Y-107398863D01*
X189478003Y-107399666D01*
X189467632Y-107381245D01*
X189455682Y-107335955D01*
X189453799Y-107326390D01*
X189437662Y-107274351D01*
X189405624Y-107249140D01*
X189368890Y-107239765D01*
X189300999Y-107230766D01*
X189255186Y-107238942D01*
X189222841Y-107271008D01*
X189195354Y-107333685D01*
X189177519Y-107389083D01*
X189148830Y-107476505D01*
X189122237Y-107546105D01*
X189100503Y-107591853D01*
X189086395Y-107607724D01*
X189082477Y-107596264D01*
X189088263Y-107565074D01*
X189104190Y-107505205D01*
X189127135Y-107428181D01*
X189133689Y-107407318D01*
X189156586Y-107329271D01*
X189171427Y-107266748D01*
X189175762Y-107230530D01*
X189174774Y-107226595D01*
X189147345Y-107212639D01*
X189117313Y-107209166D01*
X189064699Y-107197528D01*
X188994360Y-107167653D01*
X188922138Y-107127101D01*
X188875977Y-107093992D01*
X188843274Y-107068259D01*
X188786116Y-107024450D01*
X188713978Y-106969799D01*
X188669084Y-106936041D01*
X188591394Y-106877392D01*
X188522052Y-106824334D01*
X188471069Y-106784561D01*
X188454311Y-106770994D01*
X188403279Y-106709923D01*
X188351283Y-106615194D01*
X188301682Y-106495261D01*
X188257831Y-106358578D01*
X188223089Y-106213600D01*
X188214485Y-106167074D01*
X188192320Y-106049665D01*
X188166577Y-105932513D01*
X188140027Y-105826893D01*
X188115444Y-105744081D01*
X188101168Y-105706333D01*
X188076723Y-105665255D01*
X188033219Y-105603628D01*
X187979017Y-105533153D01*
X187965028Y-105515833D01*
X187852743Y-105378250D01*
X187858747Y-105220545D01*
X187864750Y-105062840D01*
X188203417Y-104912289D01*
X188328669Y-104855611D01*
X188453821Y-104797219D01*
X188568084Y-104742269D01*
X188660666Y-104695916D01*
X188700834Y-104674642D01*
X188891051Y-104590811D01*
X189028917Y-104553189D01*
X189118270Y-104533071D01*
X189180455Y-104511674D01*
X189230220Y-104481789D01*
X189282312Y-104436210D01*
X189296562Y-104422367D01*
X189345979Y-104371543D01*
X189377415Y-104328674D01*
X189397283Y-104279941D01*
X189411993Y-104211528D01*
X189421273Y-104153575D01*
X189446974Y-104021504D01*
X189485908Y-103879382D01*
X189539986Y-103722097D01*
X189611121Y-103544543D01*
X189701225Y-103341608D01*
X189812210Y-103108185D01*
X189813651Y-103105230D01*
X189915612Y-102898151D01*
X190003365Y-102724743D01*
X190079845Y-102579970D01*
X190147985Y-102458794D01*
X190210717Y-102356179D01*
X190270976Y-102267088D01*
X190331695Y-102186484D01*
X190389096Y-102117108D01*
X190509282Y-101957486D01*
X190597758Y-101796926D01*
X190651951Y-101641075D01*
X190669334Y-101502467D01*
X190672834Y-101427706D01*
X190682208Y-101327867D01*
X190695767Y-101219526D01*
X190703306Y-101169116D01*
X190741075Y-100991052D01*
X190797903Y-100821640D01*
X190876879Y-100655792D01*
X190981088Y-100488419D01*
X191113616Y-100314434D01*
X191277552Y-100128747D01*
X191428991Y-99972732D01*
X191536829Y-99868005D01*
X191648954Y-99763974D01*
X191756920Y-99668141D01*
X191852280Y-99588007D01*
X191925254Y-99532012D01*
X192014012Y-99471886D01*
X192093018Y-99425784D01*
X192175546Y-99387406D01*
X192274870Y-99350452D01*
X192379768Y-99316287D01*
X192568615Y-99257547D01*
X192727569Y-99209901D01*
X192866792Y-99170736D01*
X192996444Y-99137444D01*
X193126687Y-99107414D01*
X193267682Y-99078036D01*
X193428170Y-99046968D01*
X193553241Y-99023612D01*
X193657643Y-99005484D01*
X193748741Y-98992373D01*
X193833903Y-98984070D01*
X193920494Y-98980365D01*
X194015882Y-98981048D01*
X194127432Y-98985909D01*
X194262512Y-98994738D01*
X194428488Y-99007326D01*
X194532250Y-99015509D01*
X194636146Y-99022723D01*
X194772777Y-99030694D01*
X194932565Y-99038948D01*
X195105930Y-99047010D01*
X195283294Y-99054406D01*
X195421250Y-99059512D01*
X195635886Y-99067892D01*
X195814206Y-99077072D01*
X195962227Y-99087519D01*
X196085966Y-99099700D01*
X196191440Y-99114082D01*
X196246750Y-99123642D01*
X196376580Y-99143725D01*
X196535365Y-99160489D01*
X196727373Y-99174298D01*
X196956871Y-99185514D01*
X196987584Y-99186721D01*
X197194489Y-99195117D01*
X197364542Y-99203510D01*
X197503211Y-99212849D01*
X197615968Y-99224080D01*
X197708282Y-99238151D01*
X197785623Y-99256010D01*
X197853460Y-99278603D01*
X197917264Y-99306880D01*
X197982505Y-99341787D01*
X198024750Y-99366388D01*
X198244846Y-99476997D01*
X198437500Y-99546997D01*
X198594622Y-99596606D01*
X198719757Y-99641087D01*
X198822204Y-99684675D01*
X198911263Y-99731607D01*
X198996232Y-99786116D01*
X199053798Y-99827711D01*
X199150634Y-99894573D01*
X199264282Y-99964931D01*
X199372773Y-100025301D01*
X199390000Y-100034038D01*
X199495525Y-100090420D01*
X199610644Y-100157956D01*
X199713241Y-100223575D01*
X199728667Y-100234172D01*
X199823531Y-100297523D01*
X199928493Y-100363395D01*
X200023059Y-100418986D01*
X200035584Y-100425922D01*
X200165244Y-100508543D01*
X200310737Y-100621104D01*
X200465991Y-100757320D01*
X200624930Y-100910906D01*
X200781482Y-101075579D01*
X200929573Y-101245053D01*
X201063128Y-101413044D01*
X201176074Y-101573267D01*
X201231677Y-101663500D01*
X201286660Y-101755618D01*
X201353996Y-101863813D01*
X201421952Y-101969347D01*
X201444625Y-102003551D01*
X201504076Y-102098495D01*
X201573380Y-102219038D01*
X201648093Y-102356440D01*
X201723772Y-102501956D01*
X201795974Y-102646846D01*
X201860256Y-102782367D01*
X201912174Y-102899776D01*
X201947285Y-102990331D01*
X201949460Y-102996837D01*
X201973986Y-103088513D01*
X201987968Y-103188188D01*
X201993298Y-103310910D01*
X201993500Y-103347043D01*
X201996252Y-103468954D01*
X202006098Y-103566124D01*
X202025432Y-103655882D01*
X202045126Y-103721247D01*
X202083504Y-103855836D01*
X202117058Y-104005336D01*
X202143131Y-104155074D01*
X202159065Y-104290374D01*
X202162766Y-104370721D01*
X202167012Y-104451112D01*
X202178064Y-104550880D01*
X202193088Y-104645887D01*
X202206956Y-104740862D01*
X202219906Y-104869109D01*
X202231622Y-105022470D01*
X202241788Y-105192792D01*
X202250091Y-105371917D01*
X202256213Y-105551689D01*
X202259840Y-105723953D01*
X202260657Y-105880552D01*
X202258348Y-106013331D01*
X202252597Y-106114133D01*
X202250598Y-106133274D01*
X202239554Y-106240969D01*
X202231140Y-106350663D01*
X202226701Y-106443746D01*
X202226334Y-106469658D01*
X202213354Y-106607189D01*
X202174159Y-106773612D01*
X202108363Y-106970415D01*
X202073301Y-107061000D01*
X202037304Y-107157133D01*
X201997430Y-107273297D01*
X201960759Y-107388632D01*
X201951184Y-107420833D01*
X201919920Y-107523816D01*
X201886573Y-107626613D01*
X201856695Y-107712335D01*
X201846850Y-107738333D01*
X201828978Y-107790337D01*
X201802391Y-107876407D01*
X201769084Y-107989656D01*
X201731054Y-108123194D01*
X201690294Y-108270132D01*
X201653797Y-108404887D01*
X201597058Y-108612391D01*
X201546714Y-108784841D01*
X201500162Y-108928550D01*
X201454801Y-109049832D01*
X201408030Y-109154999D01*
X201357246Y-109250364D01*
X201299849Y-109342240D01*
X201233236Y-109436941D01*
X201222448Y-109451565D01*
X201150109Y-109556392D01*
X201073879Y-109678536D01*
X201006809Y-109796752D01*
X200987631Y-109833833D01*
X200943226Y-109917777D01*
X200881722Y-110027223D01*
X200808975Y-110152105D01*
X200730839Y-110282353D01*
X200661434Y-110394750D01*
X200566845Y-110545582D01*
X200491647Y-110666675D01*
X200432966Y-110764293D01*
X200387929Y-110844703D01*
X200353660Y-110914168D01*
X200327286Y-110978956D01*
X200305932Y-111045330D01*
X200286725Y-111119557D01*
X200266790Y-111207901D01*
X200247490Y-111297099D01*
X200196666Y-111516902D01*
X200145352Y-111702995D01*
X200089720Y-111863872D01*
X200025945Y-112008026D01*
X199950201Y-112143949D01*
X199858662Y-112280134D01*
X199747502Y-112425074D01*
X199729044Y-112447916D01*
X199655473Y-112539882D01*
X199603498Y-112610819D01*
X199567308Y-112671963D01*
X199541092Y-112734548D01*
X199519040Y-112809811D01*
X199499167Y-112892416D01*
X199482070Y-112977018D01*
X199468626Y-113070531D01*
X199458140Y-113180743D01*
X199449915Y-113315446D01*
X199443255Y-113482428D01*
X199441518Y-113538000D01*
X199427969Y-113993083D01*
X199607564Y-114369158D01*
X199666780Y-114496704D01*
X199722051Y-114622293D01*
X199769588Y-114736817D01*
X199805604Y-114831170D01*
X199825633Y-114893571D01*
X199864107Y-115041909D01*
X199995618Y-115115454D01*
X200127129Y-115189000D01*
X199815000Y-114485000D01*
X199615000Y-113985000D01*
X199625000Y-113585000D01*
X199665000Y-113115000D01*
X199725000Y-112805000D01*
X199915000Y-112515000D01*
X200135000Y-112215000D01*
X200315000Y-111785000D01*
X200375000Y-111385000D01*
X200445000Y-111105000D01*
X200695000Y-110615000D01*
X201025000Y-110095000D01*
X201375000Y-109555000D01*
X201625000Y-109125000D01*
X201875000Y-108275000D01*
X202175000Y-107395000D01*
X202355000Y-106705000D01*
X202425000Y-105945000D01*
X202405000Y-105315000D01*
X202395000Y-104785000D01*
X202335000Y-104235000D01*
X202255000Y-103865000D01*
X202165000Y-103585000D01*
X202165000Y-103275000D01*
X202105000Y-102995000D01*
X201945000Y-102585000D01*
X201705000Y-102155000D01*
X201465000Y-101755000D01*
X201375000Y-101575000D01*
X201235000Y-101405000D01*
X201065000Y-101155000D01*
X200735000Y-100805000D01*
X200415000Y-100525000D01*
X199595000Y-99985000D01*
X198765000Y-99535000D01*
X197995000Y-99145000D01*
X197615000Y-99035000D01*
X197305000Y-99035000D01*
X196895000Y-99035000D01*
X196385000Y-98975000D01*
X195825000Y-98915000D01*
X195175000Y-98895000D01*
X194195000Y-98845000D01*
X193625000Y-98845000D01*
X193265000Y-98895000D01*
X192795000Y-99005000D01*
X192315000Y-99155000D01*
X191795000Y-99425000D01*
X191375000Y-99775000D01*
X190945000Y-100265000D01*
X190685000Y-100635000D01*
X190545000Y-101135000D01*
X190505000Y-101545000D01*
X190445000Y-101735000D01*
X190345000Y-101935000D01*
X190155000Y-102195000D01*
X189875000Y-102615000D01*
X189625000Y-103125000D01*
X189445000Y-103525000D01*
X189315000Y-103935000D01*
X189275000Y-104195000D01*
X189255000Y-104275000D01*
X189195000Y-104345000D01*
X189085000Y-104405000D01*
X188875000Y-104465000D01*
X188545000Y-104595000D01*
X188175000Y-104745000D01*
X187865000Y-104885000D01*
X187735000Y-105005000D01*
X187725000Y-105165000D01*
X187725000Y-105435000D01*
X187795000Y-105535000D01*
X187925000Y-105675000D01*
X187995000Y-105955000D01*
X188065000Y-106255000D01*
X188185000Y-106645000D01*
X188315000Y-106865000D01*
X188445000Y-107015000D01*
X188645000Y-107135000D01*
X188955000Y-107335000D01*
X188905000Y-107625000D01*
X188875000Y-107955000D01*
X188875000Y-108395000D01*
X188865000Y-108635000D01*
X188875000Y-109055000D01*
X188925000Y-109555000D01*
X189015000Y-109985000D01*
X189125000Y-110385000D01*
X189242417Y-110729291D01*
X189335000Y-111055000D01*
X189585000Y-111685000D01*
X189775000Y-112075000D01*
M02*
